<?xml version="1.0" standalone="no"?>
<!DOCTYPE svg PUBLIC "-//W3C//DTD SVG 20010904//EN"
 "http://www.w3.org/TR/2001/REC-SVG-20010904/DTD/svg10.dtd">
<svg version="1.0" xmlns="http://www.w3.org/2000/svg"
 width="1304.000000pt" height="1304.000000pt" viewBox="0 0 1304.000000 1304.000000"
 preserveAspectRatio="xMidYMid meet">
<metadata>
Created by potrace 1.14, written by Peter Selinger 2001-2017
</metadata>
<g transform="translate(0.000000,1304.000000) scale(0.100000,-0.100000)"
fill="#000000" stroke="none">
<path d="M6175 10001 c-143 -65 -429 -193 -635 -286 -206 -92 -498 -223 -649
-291 l-274 -124 -1786 0 -1786 0 -35 -57 c-18 -32 -253 -422 -522 -867 -268
-445 -488 -813 -488 -818 0 -4 63 -8 140 -8 l140 0 0 -1990 0 -1989 -118 -3
-117 -3 -3 -217 -2 -218 1765 0 1765 0 0 -105 0 -105 2950 0 2950 0 0 105 0
105 1765 0 1765 0 -2 218 -3 217 -117 3 -118 3 0 1989 0 1990 140 0 c77 0 140
4 140 8 0 5 -220 373 -488 818 -269 445 -504 835 -522 867 l-35 57 -1812 0
c-1754 0 -1813 1 -1855 19 -24 10 -306 132 -628 271 -322 139 -684 295 -805
347 -358 155 -427 183 -444 182 -9 0 -133 -53 -276 -118z m370 -55 c44 -19
343 -147 665 -286 322 -139 646 -278 720 -310 74 -32 403 -173 730 -314 327
-142 666 -287 752 -324 l158 -67 0 -77 0 -78 -3050 0 -3050 0 0 78 0 77 128
57 c70 31 420 188 777 348 358 161 826 371 1040 467 215 96 494 221 620 278
127 57 268 121 315 143 47 22 92 41 100 41 9 1 51 -14 95 -33z m-2255 -790
c-14 -7 -233 -107 -486 -220 l-462 -208 -4 -145 c-2 -80 -2 -253 0 -384 l4
-239 114 0 114 0 0 -140 0 -140 -1675 0 -1675 0 352 583 c193 320 389 645 435
722 47 77 91 150 99 163 l14 22 1598 0 c1334 -1 1593 -3 1572 -14z m7784 -241
c84 -137 285 -472 449 -742 l297 -493 -1675 0 -1675 0 0 140 0 140 114 0 114
0 4 239 c2 131 2 304 0 384 l-4 145 -27 12 c-14 7 -240 104 -501 217 -261 112
-477 206 -479 209 -2 2 724 3 1614 2 l1618 -3 151 -250z m-2504 -690 l0 -135
-3050 0 -3050 0 0 135 0 135 3050 0 3050 0 0 -135z m-230 -410 l0 -135 -2820
0 -2820 0 0 135 0 135 2820 0 2820 0 0 -135z m-5380 -2115 l0 -1850 -195 0
-195 0 0 -140 0 -140 -1580 0 -1580 0 0 1990 0 1990 1775 0 1775 0 0 -1850z
m480 0 l0 -1850 -175 0 -175 0 0 1850 0 1850 175 0 175 0 0 -1850z m480 0 l0
-1850 -175 0 -175 0 0 1850 0 1850 175 0 175 0 0 -1850z m480 0 l0 -1850 -175
0 -175 0 0 1850 0 1850 175 0 175 0 0 -1850z m2110 0 l0 -1850 -145 0 -145 0
0 990 0 990 -700 0 -700 0 0 -990 0 -990 -145 0 -145 0 0 1850 0 1850 990 0
990 0 0 -1850z m480 0 l0 -1850 -175 0 -175 0 0 1850 0 1850 175 0 175 0 0
-1850z m480 0 l0 -1850 -175 0 -175 0 0 1850 0 1850 175 0 175 0 0 -1850z
m480 0 l0 -1850 -175 0 -175 0 0 1850 0 1850 175 0 175 0 0 -1850z m3680 -140
l0 -1990 -1580 0 -1580 0 0 140 0 140 -195 0 -195 0 0 1850 0 1850 1775 0
1775 0 0 -1990z m-5538 -785 l-2 -925 -570 0 -570 0 -2 925 -3 925 575 0 575
0 -3 -925z m2248 -1130 l0 -75 -2820 0 -2820 0 0 75 0 75 2820 0 2820 0 0 -75z
m-5770 -295 l0 -90 -1700 0 -1700 0 0 90 0 90 1700 0 1700 0 0 -90z m5770
-110 l0 -200 -2820 0 -2820 0 0 200 0 200 2820 0 2820 0 0 -200z m3530 110 l0
-90 -1700 0 -1700 0 0 90 0 90 1700 0 1700 0 0 -90z"/>
<path d="M6443 9290 c-124 -26 -241 -137 -273 -259 -32 -123 -1 -246 86 -340
77 -83 151 -115 264 -115 113 0 187 32 264 115 87 94 118 217 86 340 -26 97
-106 190 -203 234 -59 27 -161 38 -224 25z m184 -149 c78 -39 123 -115 123
-206 0 -31 -6 -70 -13 -88 -35 -83 -130 -147 -217 -147 -58 0 -137 37 -174 81
-45 54 -58 95 -54 171 3 55 9 75 33 109 36 50 67 75 121 95 50 18 129 12 181
-15z"/>
<path d="M717 7253 c-4 -3 -7 -354 -7 -780 l0 -773 430 0 430 0 0 774 c0 696
-2 774 -16 780 -21 8 -829 8 -837 -1z m723 -778 l0 -645 -300 0 -300 0 0 645
0 645 300 0 300 0 0 -645z"/>
<path d="M1783 7253 c-10 -4 -13 -169 -13 -779 l0 -774 430 0 430 0 -2 778 -3
777 -415 2 c-228 1 -421 -1 -427 -4z m717 -778 l0 -645 -300 0 -300 0 0 645 0
645 300 0 300 0 0 -645z"/>
<path d="M2862 7252 c-10 -7 -12 -169 -10 -778 l3 -769 433 -3 432 -2 0 774
c0 696 -2 774 -16 780 -24 9 -827 7 -842 -2z m728 -777 l0 -645 -305 0 -305 0
0 645 0 645 305 0 305 0 0 -645z"/>
<path d="M710 4775 l0 -775 430 0 430 0 0 775 0 775 -430 0 -430 0 0 -775z
m730 0 l0 -645 -300 0 -300 0 0 645 0 645 300 0 300 0 0 -645z"/>
<path d="M1770 4775 l0 -775 430 0 430 0 0 775 0 775 -430 0 -430 0 0 -775z
m730 0 l0 -645 -300 0 -300 0 0 645 0 645 300 0 300 0 0 -645z"/>
<path d="M2857 5543 c-4 -3 -7 -352 -7 -775 l0 -768 435 0 435 0 0 775 0 775
-428 0 c-236 0 -432 -3 -435 -7z m733 -768 l0 -645 -305 0 -305 0 0 645 0 645
305 0 305 0 0 -645z"/>
<path d="M6060 6650 l0 -460 460 0 460 0 0 460 0 460 -460 0 -460 0 0 -460z
m790 5 l0 -335 -330 0 -330 0 0 335 0 335 330 0 330 0 0 -335z"/>
<path d="M9333 7253 c-10 -4 -13 -169 -13 -779 l0 -774 433 2 432 3 3 769 c2
609 0 771 -10 778 -14 8 -825 10 -845 1z m727 -778 l0 -645 -305 0 -305 0 0
645 0 645 305 0 305 0 0 -645z"/>
<path d="M10397 7253 c-4 -3 -7 -354 -7 -780 l0 -773 430 0 430 0 0 774 c0
696 -2 774 -16 780 -21 8 -829 8 -837 -1z m723 -778 l0 -645 -305 0 -305 0 0
645 0 645 305 0 305 0 0 -645z"/>
<path d="M11483 7253 c-10 -4 -13 -169 -13 -779 l0 -774 430 0 430 0 -2 778
-3 777 -415 2 c-228 1 -421 -1 -427 -4z m717 -778 l0 -645 -300 0 -300 0 0
645 0 645 300 0 300 0 0 -645z"/>
<path d="M9320 4775 l0 -775 435 0 435 0 -2 773 -3 772 -432 3 -433 2 0 -775z
m740 0 l0 -645 -305 0 -305 0 0 645 0 645 305 0 305 0 0 -645z"/>
<path d="M10390 4775 l0 -775 430 0 430 0 0 775 0 775 -430 0 -430 0 0 -775z
m730 0 l0 -645 -305 0 -305 0 0 645 0 645 305 0 305 0 0 -645z"/>
<path d="M11470 4775 l0 -775 430 0 430 0 0 775 0 775 -430 0 -430 0 0 -775z
m730 0 l0 -645 -300 0 -300 0 0 645 0 645 300 0 300 0 0 -645z"/>
</g>
</svg>
