<svg width="149" height="149" viewBox="0 0 149 149" fill="none" xmlns="http://www.w3.org/2000/svg">
<g clip-path="url(#clip0_1472_74)">
<path d="M121.48 0H26.77C11.9853 0 0 11.9853 0 26.77V121.48C0 136.265 11.9853 148.25 26.77 148.25H121.48C136.265 148.25 148.25 136.265 148.25 121.48V26.77C148.25 11.9853 136.265 0 121.48 0Z" fill="#E6E5F1"/>
<path d="M85.09 20.2402H36.67C31.77 20.2402 27.8 23.9702 27.8 28.5702V94.7902C27.8 99.3902 31.77 103.12 36.67 103.12H85.0801C89.9801 103.12 93.95 99.3902 93.95 94.7902V28.5802C93.95 23.9802 89.9801 20.2502 85.0801 20.2502L85.09 20.2402Z" fill="#94C93D"/>
<path d="M85.09 105.35H36.6701C33.6901 105.35 30.8301 104.24 28.7201 102.26C26.6101 100.28 25.4301 97.59 25.4301 94.79V28.58C25.4301 25.78 26.6101 23.09 28.7201 21.11C30.8301 19.13 33.6901 18.02 36.6701 18.02H85.0801C88.0601 18.02 90.9201 19.13 93.0301 21.11C95.1401 23.09 96.3201 25.78 96.3201 28.58V94.79C96.3201 97.59 95.1401 100.28 93.0301 102.26C90.9201 104.24 88.0601 105.35 85.0801 105.35H85.09ZM36.6701 22.47C34.9501 22.47 33.2901 23.11 32.0801 24.26C30.8701 25.41 30.1801 26.96 30.1801 28.58V94.79C30.1801 96.41 30.8601 97.96 32.0801 99.11C33.3001 100.25 34.9501 100.9 36.6701 100.9H85.0801C86.8001 100.9 88.4601 100.26 89.6701 99.11C90.8901 97.97 91.5701 96.41 91.5701 94.79V28.58C91.5701 26.96 90.8901 25.41 89.6701 24.26C88.4501 23.12 86.8001 22.47 85.0801 22.47H36.6701Z" fill="#010101"/>
<path d="M111.57 45.1299H63.16C58.26 45.1299 54.29 48.8599 54.29 53.4599V119.67C54.29 124.27 58.26 128 63.16 128H111.57C116.47 128 120.44 124.27 120.44 119.67V53.4599C120.44 48.8599 116.47 45.1299 111.57 45.1299Z" fill="white"/>
<path d="M111.57 130.24H63.16C60.18 130.24 57.32 129.13 55.21 127.15C53.1 125.17 51.92 122.48 51.92 119.68V53.4599C51.92 50.6599 53.1 47.9699 55.21 45.9899C57.32 44.0099 60.18 42.8999 63.16 42.8999H111.57C114.55 42.8999 117.41 44.0099 119.52 45.9899C121.63 47.9699 122.81 50.6599 122.81 53.4599V119.67C122.81 122.47 121.63 125.16 119.52 127.14C117.41 129.12 114.55 130.23 111.57 130.23V130.24ZM63.16 47.3599C61.44 47.3599 59.78 47.9999 58.57 49.1499C57.35 50.2899 56.67 51.8499 56.67 53.4699V119.67C56.67 121.29 57.35 122.84 58.57 123.99C59.79 125.13 61.44 125.78 63.16 125.78H111.57C113.29 125.78 114.95 125.14 116.16 123.99C117.38 122.85 118.06 121.29 118.06 119.67V53.4599C118.06 51.8399 117.38 50.2899 116.16 49.1399C114.94 47.9999 113.29 47.3499 111.57 47.3499H63.16V47.3599Z" fill="#010101"/>
</g>
<defs>
<clipPath id="clip0_1472_74">
<rect width="148.25" height="148.25" fill="white"/>
</clipPath>
</defs>
</svg>
