<svg width="149" height="149" viewBox="0 0 149 149" fill="none" xmlns="http://www.w3.org/2000/svg">
<g clip-path="url(#clip0_1472_66)">
<path d="M121.48 0H26.77C11.9853 0 0 11.9853 0 26.77V121.48C0 136.265 11.9853 148.25 26.77 148.25H121.48C136.265 148.25 148.25 136.265 148.25 121.48V26.77C148.25 11.9853 136.265 0 121.48 0Z" fill="#E6E5F1"/>
<path d="M20.1 74.1201C20.1 80.7701 21.3 87.1501 23.5 93.0301C31.17 113.54 50.94 128.14 74.12 128.14C103.96 128.14 128.14 103.95 128.14 74.1201C128.14 44.2901 103.95 20.1001 74.12 20.1001C58.42 20.1001 44.28 26.8001 34.41 37.4901C25.52 47.1201 20.1 59.9901 20.1 74.1201V74.1201Z" fill="white"/>
<path d="M74.5499 76.4802C73.9299 76.4802 73.3399 76.2302 72.8999 75.7902C72.4599 75.3502 72.2199 74.7502 72.2199 74.1302V20.0502C72.2199 19.7402 72.2799 19.4402 72.3999 19.1502C72.5199 18.8602 72.6899 18.6102 72.9099 18.3902C73.1299 18.1702 73.3799 18.0002 73.6699 17.8802C73.9499 17.7602 74.2599 17.7002 74.5599 17.7002C84.1799 17.7002 93.6399 20.2102 102.03 24.9702C110.41 29.7302 117.44 36.5902 122.43 44.8802C127.42 53.1702 130.2 62.6102 130.51 72.3002C130.82 81.9902 128.65 91.5902 124.2 100.19C119.75 108.79 113.18 116.08 105.12 121.38C97.0599 126.68 87.7799 129.79 78.1799 130.42C68.5799 131.05 58.9699 129.18 50.2999 124.99C41.6199 120.8 34.1599 114.43 28.6399 106.49C28.3399 105.98 28.2499 105.38 28.3699 104.8C28.4899 104.22 28.8299 103.71 29.3099 103.37C29.7899 103.03 30.3799 102.88 30.9599 102.96C31.5399 103.04 32.0699 103.33 32.4499 103.79C37.4499 111 44.1999 116.81 52.0499 120.67C59.8999 124.53 68.5999 126.31 77.3199 125.84C86.0399 125.37 94.4999 122.67 101.9 117.99C109.3 113.31 115.39 106.81 119.6 99.1102C123.81 91.4002 126 82.7402 125.96 73.9402C125.92 65.1402 123.66 56.5002 119.39 48.8302C115.11 41.1602 108.97 34.7102 101.53 30.1002C94.0899 25.4902 85.6099 22.8602 76.8899 22.4602V74.1302C76.8899 74.7502 76.6499 75.3502 76.2099 75.7902C75.7699 76.2302 75.1899 76.4802 74.5699 76.4802H74.5499Z" fill="black"/>
<path d="M74.5499 45.9102C78.4299 45.9102 82.2699 46.7202 85.8299 48.3002C89.3799 49.8702 92.5699 52.1802 95.1999 55.0602C97.8199 57.9402 99.8199 61.3402 101.07 65.0502C102.32 68.7502 102.79 72.6802 102.46 76.5702C102.12 80.4702 100.99 84.2502 99.1199 87.6802C97.2599 91.1102 94.6999 94.1102 91.6199 96.5002C88.5399 98.8802 85.0099 100.6 81.2399 101.53C77.4699 102.46 73.5499 102.6 69.7199 101.92C69.2399 101.85 68.7999 101.62 68.4499 101.28C68.0999 100.93 67.8599 100.47 67.7899 99.9802C67.7099 99.4902 67.7899 98.9802 68.0199 98.5302C68.2499 98.0902 68.6099 97.7302 69.0599 97.5102C69.5099 97.2902 70.0099 97.2202 70.4999 97.3102C75.3899 98.1802 80.4299 97.4502 84.8799 95.2402C89.3299 93.0302 92.9699 89.4402 95.2599 85.0002C97.5499 80.5602 98.3799 75.5102 97.6199 70.5602C96.8599 65.6202 94.5599 61.0502 91.0499 57.5102C87.2499 53.6602 82.2299 51.2702 76.8699 50.7502V74.1402C76.8699 74.7602 76.6199 75.3602 76.1899 75.8002C75.7499 76.2402 75.1599 76.4902 74.5399 76.4902C73.9199 76.4902 73.3299 76.2402 72.8899 75.8002C72.4499 75.3602 72.2099 74.7602 72.2099 74.1402V48.2702C72.2099 47.9602 72.2699 47.6502 72.3899 47.3702C72.5099 47.0802 72.6799 46.8202 72.8999 46.6102C73.1199 46.3902 73.3799 46.2202 73.6599 46.1002C73.9399 45.9802 74.2499 45.9202 74.5599 45.9202L74.5499 45.9102Z" fill="black"/>
<path d="M55.08 106.26C59.45 108.95 64.33 110.7 69.4 111.41C74.47 112.12 79.64 111.77 84.57 110.39C89.5 109.01 94.1 106.61 98.08 103.36C102.06 100.11 105.33 96.0702 107.69 91.4902C107.98 90.9502 108.48 90.5502 109.06 90.3802C109.64 90.2002 110.27 90.2602 110.81 90.5402C111.35 90.8202 111.76 91.3102 111.95 91.8902C112.14 92.4702 112.1 93.1102 111.83 93.6602C109.18 98.8102 105.5 103.36 101.02 107.02C96.55 110.68 91.37 113.37 85.82 114.93C80.27 116.49 74.46 116.88 68.75 116.08C63.04 115.28 57.56 113.31 52.64 110.28C52.48 110.18 52.34 110.07 52.2 109.93C51.8 109.52 51.56 108.98 51.52 108.41C51.48 107.84 51.66 107.27 52.02 106.82C52.37 106.37 52.88 106.06 53.44 105.96C54 105.86 54.58 105.96 55.07 106.26H55.08Z" fill="#2F2F2F"/>
<path d="M74.56 31.8003C80.75 31.8003 86.86 33.1703 92.46 35.8203C98.06 38.4703 103.01 42.3403 106.95 47.1403C110.89 51.9403 113.73 57.5703 115.27 63.6103C116.8 69.6503 116.99 75.9503 115.82 82.0703C115.76 82.3703 115.65 82.6603 115.48 82.9203C115.31 83.1803 115.09 83.4003 114.84 83.5803C114.59 83.7503 114.3 83.8803 114 83.9403C113.7 84.0003 113.39 84.0103 113.09 83.9403C112.63 83.8603 112.2 83.6303 111.87 83.3003C111.6 83.0303 111.4 82.6903 111.29 82.3303C111.18 81.9603 111.16 81.5703 111.23 81.2003C112.27 75.7603 112.11 70.1503 110.74 64.7803C109.38 59.4103 106.85 54.4103 103.35 50.1403C99.84 45.8703 95.44 42.4303 90.46 40.0703C85.48 37.7103 80.04 36.4903 74.54 36.5003C73.92 36.5003 73.33 36.2503 72.89 35.8103C72.45 35.3703 72.21 34.7703 72.21 34.1503C72.21 33.5303 72.46 32.9303 72.89 32.4903C73.33 32.0503 73.92 31.8003 74.54 31.8003H74.56Z" fill="black"/>
<path d="M110.26 94.4404C113.999 94.4404 117.03 91.4094 117.03 87.6704C117.03 83.9314 113.999 80.9004 110.26 80.9004C106.521 80.9004 103.49 83.9314 103.49 87.6704C103.49 91.4094 106.521 94.4404 110.26 94.4404Z" fill="white"/>
<path d="M24.49 103.47C28.2289 103.47 31.26 100.439 31.26 96.7002C31.26 92.9612 28.2289 89.9302 24.49 89.9302C20.751 89.9302 17.72 92.9612 17.72 96.7002C17.72 100.439 20.751 103.47 24.49 103.47Z" fill="white"/>
<path d="M49.3199 51.56C49.3199 55.3 46.2899 58.33 42.5499 58.33C38.8099 58.33 35.7799 55.3 35.7799 51.56C35.7799 47.82 38.8099 44.79 42.5499 44.79C46.2899 44.79 49.3199 47.82 49.3199 51.56V51.56Z" fill="white"/>
<path d="M33.66 91.0903C34.97 92.4103 35.85 94.0803 36.21 95.9103C36.57 97.7303 36.38 99.6203 35.68 101.34C34.97 103.06 33.78 104.53 32.24 105.56C30.7 106.59 28.9 107.14 27.05 107.14C25.2 107.14 23.4 106.59 21.86 105.56C20.32 104.53 19.13 103.06 18.42 101.34C17.71 99.6203 17.53 97.7303 17.89 95.9103C18.25 94.0903 19.14 92.4103 20.44 91.0903C22.19 89.3303 24.57 88.3403 27.04 88.3403C29.51 88.3403 31.89 89.3303 33.64 91.0903H33.66ZM23.75 101.07C24.4 101.73 25.24 102.18 26.14 102.36C27.05 102.54 27.99 102.45 28.84 102.09C29.69 101.73 30.42 101.13 30.94 100.36C31.45 99.5903 31.73 98.6803 31.73 97.7403C31.73 96.8003 31.46 95.9003 30.94 95.1303C30.43 94.3603 29.7 93.7503 28.84 93.4003C27.99 93.0403 27.05 92.9503 26.14 93.1303C25.23 93.3103 24.4 93.7603 23.75 94.4203C22.88 95.3003 22.39 96.5003 22.39 97.7403C22.39 98.9803 22.88 100.18 23.75 101.06V101.07Z" fill="black"/>
<path d="M50.3599 43.4004C51.6699 44.7204 52.5499 46.3904 52.9099 48.2204C53.2699 50.0404 53.0799 51.9304 52.3799 53.6504C51.6699 55.3704 50.4799 56.8404 48.9399 57.8704C47.3999 58.9004 45.5999 59.4504 43.7499 59.4504C41.8999 59.4504 40.0999 58.9004 38.5599 57.8704C37.0199 56.8404 35.8299 55.3704 35.1199 53.6504C34.4099 51.9304 34.2299 50.0404 34.5899 48.2204C34.9499 46.4004 35.8399 44.7204 37.1399 43.4004C38.8899 41.6404 41.2699 40.6504 43.7399 40.6504C46.2099 40.6504 48.5899 41.6404 50.3399 43.4004H50.3599ZM40.4499 53.3804C41.0999 54.0404 41.9399 54.4904 42.8399 54.6704C43.7499 54.8504 44.6899 54.7604 45.5399 54.4004C46.3899 54.0404 47.1199 53.4404 47.6399 52.6704C48.1499 51.9004 48.4299 50.9904 48.4299 50.0604C48.4299 49.1304 48.1599 48.2204 47.6399 47.4504C47.1299 46.6804 46.3999 46.0704 45.5399 45.7204C44.6899 45.3604 43.7499 45.2704 42.8399 45.4504C41.9299 45.6304 41.0999 46.0804 40.4499 46.7404C39.5799 47.6204 39.0899 48.8204 39.0899 50.0704C39.0899 51.3204 39.5799 52.5104 40.4499 53.4004V53.3804Z" fill="#94C93D"/>
<path d="M84.46 64.1403C86.9 66.8203 88.22 70.3403 88.14 73.9803C88.06 77.6103 86.6 81.0803 84.05 83.6503C81.5 86.2203 78.06 87.7103 74.45 87.7903C70.84 87.8703 67.34 86.5503 64.68 84.1003C64.24 83.6603 64 83.0603 64 82.4403C64 81.8203 64.25 81.2203 64.69 80.7803C65.13 80.3403 65.72 80.0903 66.34 80.0903C66.96 80.0903 67.55 80.3403 67.99 80.7803C69.11 81.9103 70.5 82.7303 72.02 83.1703C73.54 83.6103 75.15 83.6503 76.7 83.2903C78.24 82.9303 79.67 82.1803 80.85 81.1103C82.03 80.0403 82.91 78.6903 83.43 77.1803C83.94 75.6703 84.07 74.0503 83.79 72.4803C83.51 70.9103 82.84 69.4303 81.84 68.2003C80.84 66.9603 79.54 66.0003 78.07 65.4003C76.6 64.8103 75 64.6003 73.43 64.8003C71.44 65.0503 75.91 63.2003 74.38 64.7303C73.47 65.6503 75.76 60.0803 73.43 62.4203C72.52 61.5003 72.52 60.9903 73.43 60.0803C70.26 60.3403 75.86 57.6203 73.43 60.0803C75.45 59.9103 77.49 60.1903 79.4 60.8903C81.31 61.5903 83.04 62.7103 84.47 64.1503L84.46 64.1403Z" fill="black"/>
<path d="M118.31 81.64C119.45 82.79 120.23 84.26 120.55 85.86C120.87 87.46 120.7 89.11 120.09 90.62C119.47 92.12 118.42 93.41 117.08 94.32C115.74 95.23 114.15 95.71 112.54 95.71C110.93 95.71 109.34 95.23 108 94.32C106.66 93.41 105.61 92.13 104.99 90.62C104.37 89.12 104.21 87.46 104.53 85.86C104.85 84.26 105.62 82.79 106.77 81.64C108.3 80.1 110.38 79.23 112.55 79.23C114.72 79.23 116.8 80.1 118.33 81.64H118.31ZM110.06 89.95C110.55 90.44 111.17 90.78 111.85 90.92C112.53 91.06 113.23 90.99 113.87 90.72C114.51 90.45 115.06 90 115.44 89.42C115.83 88.84 116.03 88.16 116.03 87.46C116.03 86.76 115.82 86.08 115.44 85.5C115.05 84.92 114.51 84.47 113.87 84.2C113.23 83.93 112.53 83.86 111.85 84C111.17 84.14 110.55 84.47 110.06 84.96C109.4 85.62 109.03 86.52 109.03 87.46C109.03 88.4 109.4 89.29 110.05 89.96L110.06 89.95Z" fill="black"/>
</g>
<defs>
<clipPath id="clip0_1472_66">
<rect width="148.25" height="148.25" fill="white"/>
</clipPath>
</defs>
</svg>