<svg width="149" height="149" viewBox="0 0 149 149" fill="none" xmlns="http://www.w3.org/2000/svg">
<g clip-path="url(#clip0_1472_99)">
<path d="M121.48 0H26.77C11.9853 0 0 11.9853 0 26.77V121.48C0 136.265 11.9853 148.25 26.77 148.25H121.48C136.265 148.25 148.25 136.265 148.25 121.48V26.77C148.25 11.9853 136.265 0 121.48 0Z" fill="#E6E5F1"/>
<path d="M102.51 37.4497H54.1C49.2 37.4497 45.23 41.1797 45.23 45.7797V111.99C45.23 116.59 49.2 120.32 54.1 120.32H102.51C107.41 120.32 111.38 116.59 111.38 111.99V45.7797C111.38 41.1797 107.41 37.4497 102.51 37.4497V37.4497Z" fill="white"/>
<path d="M102.51 122.55H54.1C51.12 122.55 48.26 121.44 46.15 119.46C44.04 117.48 42.86 114.79 42.86 111.99V45.7797C42.86 42.9797 44.04 40.2897 46.15 38.3097C48.26 36.3297 51.12 35.2197 54.1 35.2197H102.51C105.49 35.2197 108.35 36.3297 110.46 38.3097C112.57 40.2897 113.75 42.9797 113.75 45.7797V111.99C113.75 114.79 112.57 117.48 110.46 119.46C108.35 121.44 105.49 122.55 102.51 122.55V122.55ZM54.1 39.6697C52.38 39.6697 50.72 40.3097 49.51 41.4597C48.29 42.5997 47.61 44.1597 47.61 45.7797V111.99C47.61 113.61 48.29 115.16 49.51 116.31C50.73 117.45 52.38 118.1 54.1 118.1H102.51C104.23 118.1 105.89 117.46 107.1 116.31C108.32 115.17 109 113.61 109 111.99V45.7797C109 44.1597 108.32 42.6097 107.1 41.4597C105.88 40.3197 104.23 39.6697 102.51 39.6697H54.1Z" fill="#010101"/>
<path d="M80.1699 81.3799H58.6799C57.2999 81.3799 56.1799 80.2599 56.1799 78.8799C56.1799 77.4999 57.2999 76.3799 58.6799 76.3799H80.1699C81.5499 76.3799 82.6699 77.4999 82.6699 78.8799C82.6699 80.2599 81.5499 81.3799 80.1699 81.3799Z" fill="#231F20"/>
<path d="M98.3499 91.0601H58.6799C57.2999 91.0601 56.1799 89.9401 56.1799 88.5601C56.1799 87.1801 57.2999 86.0601 58.6799 86.0601H98.3499C99.7299 86.0601 100.85 87.1801 100.85 88.5601C100.85 89.9401 99.7299 91.0601 98.3499 91.0601Z" fill="#231F20"/>
<path d="M98.3499 100.74H58.6799C57.2999 100.74 56.1799 99.6197 56.1799 98.2397C56.1799 96.8597 57.2999 95.7397 58.6799 95.7397H98.3499C99.7299 95.7397 100.85 96.8597 100.85 98.2397C100.85 99.6197 99.7299 100.74 98.3499 100.74Z" fill="#231F20"/>
<path d="M98.3499 110.42H58.6799C57.2999 110.42 56.1799 109.3 56.1799 107.92C56.1799 106.54 57.2999 105.42 58.6799 105.42H98.3499C99.7299 105.42 100.85 106.54 100.85 107.92C100.85 109.3 99.7299 110.42 98.3499 110.42Z" fill="#231F20"/>
<path d="M45.23 63.1699C55.5798 63.1699 63.97 54.7798 63.97 44.4299C63.97 34.0801 55.5798 25.6899 45.23 25.6899C34.8802 25.6899 26.49 34.0801 26.49 44.4299C26.49 54.7798 34.8802 63.1699 45.23 63.1699Z" fill="#94C93D"/>
<path d="M41.72 52.1502C41.72 51.6702 41.81 51.2202 41.99 50.7802C42.17 50.3502 42.42 49.9802 42.74 49.6602C43.06 49.3402 43.43 49.0902 43.86 48.9102C44.29 48.7302 44.75 48.6402 45.22 48.6402C45.69 48.6402 46.16 48.7302 46.59 48.9102C47.02 49.0902 47.39 49.3402 47.71 49.6602C48.03 49.9802 48.28 50.3502 48.46 50.7802C48.64 51.2102 48.73 51.6702 48.73 52.1502C48.73 52.6302 48.64 53.0902 48.46 53.5202C48.28 53.9502 48.03 54.3202 47.71 54.6402C47.39 54.9602 47.01 55.2102 46.59 55.3902C46.16 55.5702 45.7 55.6602 45.22 55.6602C44.74 55.6602 44.28 55.5702 43.86 55.3902C43.43 55.2102 43.05 54.9602 42.74 54.6402C42.42 54.3202 42.17 53.9402 41.99 53.5202C41.81 53.0902 41.72 52.6402 41.72 52.1502ZM42.41 47.3502V32.4102H48.05V47.3502H42.41Z" fill="white"/>
</g>
<defs>
<clipPath id="clip0_1472_99">
<rect width="148.25" height="148.25" fill="white"/>
</clipPath>
</defs>
</svg>
