<svg width="84" height="112" viewBox="0 0 84 112" fill="none" xmlns="http://www.w3.org/2000/svg">
<g clip-path="url(#clip0_212_770)">
<path d="M8.63949 2.04463L49.5734 2.04463C51.3212 2.04408 52.9982 2.73585 54.2383 3.96893L66.9119 16.8377L80.076 29.8667C81.3058 31.1095 81.9964 32.7877 81.9981 34.5372L81.998 103.351C81.998 105.113 81.2988 106.803 80.0541 108.049C78.8094 109.296 77.1212 109.996 75.3609 109.996L34.4371 109.996C33.5691 109.996 32.7095 109.826 31.9074 109.494C31.1052 109.162 30.3762 108.675 29.7621 108.061L16.8082 94.9119L3.93443 82.2236C2.7022 80.9783 2.01137 79.296 2.01239 77.5432L2.0124 8.66942C2.01505 6.9115 2.71439 5.22647 3.95693 3.98437C5.19946 2.74227 6.88361 2.04463 8.63949 2.04463V2.04463Z" fill="white"/>
<path d="M8.63929 0.040067L49.5732 0.0400706C51.8503 0.0358033 54.036 0.937045 55.6496 2.54566L68.3333 15.4344L81.4873 28.4635C82.2854 29.2642 82.9182 30.2144 83.3493 31.26C83.7805 32.3056 84.0016 33.426 84 34.5571L84 103.351C83.9973 105.644 83.0863 107.842 81.4667 109.464C79.8471 111.085 77.6512 111.997 75.3607 112L34.4369 112C33.3069 112.003 32.1875 111.782 31.143 111.35C30.0985 110.918 29.1495 110.284 28.3504 109.484L15.3865 96.325L2.53271 83.6367C1.7317 82.8335 1.09662 81.8801 0.663762 80.8311C0.230906 79.7821 0.00880055 78.658 0.0100471 77.523L0.0100531 8.64928C0.0232523 6.36484 0.937556 4.17818 2.55386 2.56563C4.17016 0.953084 6.35748 0.0453167 8.63929 0.040067V0.040067ZM75.3607 107.991C75.9707 107.992 76.575 107.873 77.1391 107.641C77.7031 107.408 78.2159 107.067 78.6482 106.636C79.0804 106.205 79.4237 105.693 79.6584 105.13C79.893 104.566 80.0144 103.961 80.0157 103.351L80.0157 34.4669C80.0159 33.2464 79.5336 32.0754 78.6743 31.2096L65.5303 18.2307L52.8366 5.3419C51.9739 4.48584 50.8078 4.0066 49.5931 4.00894L8.63929 4.00893C7.41176 4.01159 6.23539 4.50164 5.36833 5.37159C4.50127 6.24154 4.01434 7.42031 4.01434 8.64928L4.01434 77.523C4.01076 78.1294 4.12751 78.7305 4.35778 79.2913C4.58806 79.8522 4.92724 80.3617 5.35574 80.7903L18.2095 93.4887L31.2235 106.658C31.65 107.083 32.1561 107.419 32.7126 107.648C33.2692 107.877 33.8653 107.993 34.4669 107.991L75.3607 107.991Z" fill="#231F20"/>
<path d="M33.1758 106.528C33.1767 106.69 33.1292 106.848 33.0396 106.983C32.9499 107.117 32.8221 107.222 32.6725 107.284C32.523 107.345 32.3585 107.36 32.2002 107.327C32.042 107.294 31.8971 107.215 31.7843 107.099L18.5 93.4987L4.93549 80.2191C4.8212 80.1048 4.74316 79.9592 4.71113 79.8007C4.6791 79.6421 4.69451 79.4777 4.75543 79.3278C4.81635 79.178 4.92007 79.0495 5.0536 78.9585C5.18713 78.8674 5.34456 78.8179 5.50611 78.816L32.3649 78.816C32.4714 78.816 32.5768 78.837 32.6752 78.8778C32.7736 78.9186 32.863 78.9784 32.9383 79.0537C33.0136 79.1291 33.0732 79.2186 33.114 79.3171C33.1547 79.4156 33.1758 79.5212 33.1758 79.6278L33.1758 106.528Z" fill="#F1F2F2"/>
<path d="M2.0121 76.8015L28.4504 76.8015C29.8647 76.8042 31.2204 77.3678 32.2204 78.3691C33.2205 79.3703 33.7835 80.7275 33.7861 82.1434L33.7861 109.595L29.7818 109.595L29.7818 82.1434C29.7792 81.7907 29.6381 81.4532 29.389 81.2038C29.1398 80.9544 28.8027 80.8131 28.4504 80.8105L2.0121 80.8105L2.0121 76.8015Z" fill="#231F20"/>
<path d="M51.0645 5.52225C51.0636 5.36041 51.111 5.202 51.2007 5.06734C51.2903 4.93269 51.4181 4.82793 51.5677 4.76653C51.7172 4.70513 51.8818 4.68988 52.0401 4.72275C52.1983 4.75561 52.3431 4.83508 52.456 4.95096L65.7402 18.5513L79.3248 31.851C79.4391 31.9653 79.5171 32.1109 79.5491 32.2694C79.5812 32.428 79.5658 32.5925 79.5048 32.7423C79.4439 32.8921 79.3402 33.0206 79.2067 33.1116C79.0731 33.2027 78.9157 33.2523 78.7542 33.2542L51.8754 33.2541C51.6594 33.2515 51.4532 33.1638 51.3014 33.0099C51.1496 32.8561 51.0645 32.6486 51.0645 32.4323L51.0645 5.52225Z" fill="#F1F2F2"/>
<path d="M50.4544 2.46558L54.4587 2.46558L54.4587 29.9169C54.4613 30.2696 54.6025 30.6071 54.8516 30.8565C55.1007 31.1059 55.4378 31.2472 55.7902 31.2498L82.2285 31.2498L82.2285 35.2588L55.7902 35.2588C54.375 35.2588 53.0179 34.696 52.0173 33.6942C51.0166 32.6924 50.4544 31.3336 50.4544 29.9169L50.4544 2.46558Z" fill="#231F20"/>
<path d="M59.2037 76.0813L62.0352 73.2466L22.8053 33.9711L19.9738 36.8058L59.2037 76.0813Z" fill="#231F20"/>
</g>
<defs>
<clipPath id="clip0_212_770">
<rect width="84" height="112" fill="white" transform="translate(84 112) rotate(-180)"/>
</clipPath>
</defs>
</svg>
