<svg width="149" height="150" viewBox="0 0 149 150" fill="none" xmlns="http://www.w3.org/2000/svg">
<g clip-path="url(#clip0_1472_199)">
<path d="M121.48 0H26.77C11.9853 0 0 11.9853 0 26.77V121.48C0 136.265 11.9853 148.25 26.77 148.25H121.48C136.265 148.25 148.25 136.265 148.25 121.48V26.77C148.25 11.9853 136.265 0 121.48 0Z" fill="white"/>
<path d="M76.65 149.08C109.942 149.08 136.93 122.091 136.93 88.7995C136.93 55.5078 109.942 28.5195 76.65 28.5195C43.3583 28.5195 16.37 55.5078 16.37 88.7995C16.37 122.091 43.3583 149.08 76.65 149.08Z" fill="#F1F2F2"/>
<path d="M76.65 126.89C106.407 126.89 130.53 102.767 130.53 73.0099C130.53 43.2528 106.407 19.1299 76.65 19.1299C46.8929 19.1299 22.77 43.2528 22.77 73.0099C22.77 102.767 46.8929 126.89 76.65 126.89Z" fill="white"/>
<path d="M72.57 129.11C71.25 128.6 69.84 128.68 68.47 128.47C62.89 127.62 57.55 125.99 52.51 123.45C51.76 123.07 51.27 123.03 50.54 123.53C48.19 125.14 45.29 125.02 42.93 123.33C40.64 121.69 39.6 118.97 40.28 116.26C40.43 115.66 40.38 115.26 39.89 114.81C30.35 105.99 24.64 95.0996 22.54 82.3096C22.12 79.7396 21.94 77.1296 21.96 74.5196C21.96 73.9496 21.78 73.6796 21.26 73.4596C18.09 72.1196 16.55 69.5196 16.91 66.2196C17.24 63.1996 19.4 60.9496 22.64 60.4096C23.54 60.2596 23.83 59.8496 24.04 59.0596C25.35 54.1896 27.38 49.6296 30.02 45.3396C30.8 44.0596 31.8 43.8196 32.76 44.6896C33.62 45.4696 33.44 46.2996 32.89 47.1796C30.58 50.9296 28.8 54.9096 27.55 59.1296C27.48 59.3796 27.44 59.6396 27.34 59.8796C26.95 60.7296 27.03 61.3796 27.94 61.8596C28.29 62.0396 28.63 62.3696 28.79 62.7196C29.34 63.9096 30.22 63.7896 31.27 63.5796C37.34 62.3096 43.48 61.7396 49.67 61.6196C50.32 61.6096 50.71 61.4596 51.1 60.8696C52.7 58.4496 54.97 57.3496 57.87 57.7696C58.61 57.8796 59 57.6396 59.42 57.0696C62.52 52.8996 66.03 49.1096 69.94 45.6796C70.4 45.2796 70.64 44.9496 70.34 44.2896C69.81 43.1496 69.74 41.9096 70.01 40.6896C70.12 40.1996 69.96 40.0496 69.59 39.8296C64.5 36.8596 59.14 34.5496 53.49 32.8596C52.98 32.7096 52.88 32.8996 52.65 33.2296C50.41 36.4296 46.94 37.2996 43.46 35.4896C42.99 35.2496 42.76 35.3396 42.43 35.6496C41 36.9596 39.64 38.3396 38.34 39.7696C37.45 40.7496 36.55 40.8496 35.73 40.1196C34.89 39.3696 34.91 38.5296 35.81 37.4996C37.11 36.0096 38.5 34.5996 39.98 33.2996C40.52 32.8196 40.68 32.4596 40.43 31.7096C39.45 28.7196 40.55 25.7196 43.14 23.9996C45.75 22.2596 48.83 22.4096 51.28 24.4996C51.82 24.9596 52.18 24.9096 52.74 24.6396C61.55 20.3296 70.86 18.5796 80.64 19.2796C87.5 19.7696 94.03 21.4396 100.21 24.4496C100.69 24.6796 101.01 24.7096 101.49 24.3296C103.93 22.4196 106.84 22.3296 109.37 23.9896C111.86 25.6296 113.01 28.4396 112.27 31.3596C112.12 31.9696 112.21 32.3096 112.66 32.6996C113.53 33.4596 114.38 34.2396 115.2 35.0496C115.57 35.4196 115.86 35.4496 116.36 35.2796C119.38 34.2896 122.15 35.1396 124.03 37.5596C125.88 39.9396 125.98 42.8796 124.23 45.5396C123.9 46.0396 123.95 46.3696 124.22 46.8296C128.22 53.7996 130.51 61.2896 131.16 69.2996C131.17 69.4596 131.2 69.5896 131.38 69.6296V78.7996C130.88 80.0496 130.96 81.3896 130.76 82.6796C128.74 95.2696 123 105.87 113.73 114.58C113.16 115.12 113.04 115.53 113.27 116.28C114.14 119.1 113.06 122.04 110.62 123.72C108.12 125.44 105 125.38 102.64 123.5C102.09 123.06 101.69 123.02 101.08 123.33C95.41 126.23 89.4 127.98 83.07 128.72C82.11 128.83 81.09 128.63 80.17 129.11H72.57V129.11ZM47.26 104.41C47.18 105.78 47.45 107.96 47.53 110.16C47.55 110.77 47.77 111.1 48.41 111.21C49.77 111.45 50.99 112.1 51.8 113.19C52.48 114.1 53.06 114.04 54 113.67C71.21 107.04 85.62 96.5696 97.21 82.2296C97.5 81.8796 97.77 81.6296 97.42 81.0896C96.56 79.7696 96.28 78.2696 96.5 76.7096C96.61 75.9596 96.29 75.6896 95.68 75.3996C90.31 72.7696 84.76 70.6196 79.02 68.9496C74.2 67.5496 69.3 66.5696 64.33 65.8596C63.83 65.7896 63.52 65.7596 63.29 66.4496C62.2 69.7896 59.28 71.5896 55.77 71.1696C55.05 71.0796 54.71 71.1796 54.37 71.8996C49.64 81.9296 47.28 92.4896 47.24 104.4L47.26 104.41ZM78.22 125.72C84.34 125.72 92.44 123.81 99.27 120.45C99.95 120.12 100.16 119.79 100.08 119.03C99.69 115.48 101.62 112.54 105.01 111.53C105.55 111.37 105.68 111.17 105.73 110.67C106.01 107.93 106.13 105.18 106.12 102.42C106.12 101.34 106.74 100.73 107.74 100.71C108.81 100.68 109.44 101.3 109.47 102.43C109.54 105.26 109.49 108.1 109.13 110.91C108.99 112.04 109.9 111.89 110.33 112.31C110.82 112.79 111.11 112.36 111.43 112.07C116.29 107.57 120.14 102.33 123.02 96.3596C123.36 95.6596 123.25 95.2896 122.72 94.7596C118.41 90.4696 113.76 86.5796 108.76 83.1096C108.39 82.8496 108.1 82.3596 107.43 82.8496C106.77 83.3296 106.9 83.8096 107.05 84.3596C107.72 86.8396 108.23 89.3396 108.58 91.8796C108.77 93.2396 108.27 94.0396 107.15 94.1796C106.13 94.3096 105.44 93.6196 105.21 92.3396C104.83 90.2596 104.38 88.1896 104 86.1096C103.8 84.9796 103.48 84.0796 102.05 84.2696C101.81 84.2996 101.51 84.2196 101.3 84.0996C100.58 83.6996 100.17 83.9496 99.67 84.5596C87.79 99.1996 73.07 109.96 55.45 116.69C54.19 117.17 53.6 117.72 53.46 119.11C53.37 120 53.63 120.24 54.28 120.55C61.36 123.95 68.82 125.64 78.2 125.71L78.22 125.72ZM47.98 65.0896C46.79 65.1796 45.61 65.2596 44.42 65.3696C40.02 65.7896 35.64 66.3996 31.26 67.0396C30.63 67.1296 30.41 67.3696 30.35 67.9996C30.11 70.6296 28.64 72.3996 26.26 73.3596C25.48 73.6796 25.33 74.0696 25.36 74.8096C25.64 82.2596 27.55 89.2996 30.65 96.0396C33.41 102.04 37.03 107.44 41.87 111.98C42.08 112.18 42.31 112.46 42.56 112.49C43.13 112.55 44.24 111.26 44.19 110.64C43.82 106.11 43.78 101.58 44.16 97.0396C44.92 87.7696 47.3 78.9396 51.32 70.5696C51.78 69.6096 51.84 68.9196 51.13 68.1096C50.8 67.7396 50.62 67.2096 50.45 66.7196C49.84 65.0396 49.85 65.0296 48 65.0796L47.98 65.0896ZM104.81 70.9396C105.3 70.9596 105.33 70.4996 105.51 70.2096C109.56 63.3896 112.73 56.1696 115.09 48.5996C115.3 47.9396 115.26 47.5996 114.65 47.1496C112.26 45.3896 111.05 42.1296 112.32 39.5196C113.2 37.7196 112.49 36.9496 111.33 36.0296C111.13 35.8696 110.93 35.6996 110.75 35.4996C110.32 35.0196 109.98 34.9596 109.37 35.3696C106.33 37.3696 102.29 36.5896 100.19 33.5996C99.78 33.0096 99.47 32.9696 98.86 33.1696C93.83 34.7796 89.01 36.8696 84.4 39.4596C83.6 39.9096 83.09 40.3096 83.45 41.3296C83.6 41.7596 83.62 42.3696 83.42 42.7596C82.39 44.7496 83.53 45.7996 84.89 47.0496C91.99 53.5996 97.59 61.2896 101.83 69.9796C101.99 70.3096 102 70.7996 102.59 70.7796C103.33 70.7596 104.08 70.6696 104.82 70.9596L104.81 70.9396ZM124.83 92.0396C126.57 87.2896 127.57 82.5196 127.88 77.5996C128.52 67.4396 126.44 57.8996 121.54 48.9796C121.36 48.6496 121.27 47.9196 120.67 48.2196C119.92 48.5896 118.76 47.9696 118.4 49.3196C117.94 51.0296 117.33 52.7096 116.73 54.3796C114.55 60.4696 111.79 66.2796 108.52 71.8596C108.3 72.2396 107.89 72.5696 108.38 73.1196C109.89 74.8296 110.26 76.8696 109.86 79.0596C109.78 79.5096 109.86 79.6996 110.21 79.9396C115.41 83.4996 120.24 87.5096 124.83 92.0296V92.0396ZM98.98 71.9396C98.92 71.8196 98.84 71.6596 98.76 71.4896C94.43 62.4996 88.5 54.7196 81.05 48.0796C80.6 47.6796 80.28 47.7296 79.8 47.9796C77.75 49.0396 75.65 49.0696 73.61 47.9796C72.98 47.6496 72.65 47.7796 72.18 48.1996C68.84 51.1796 65.78 54.4296 63.02 57.9596C62.59 58.5096 61.98 59.0596 61.86 59.6896C61.78 60.1096 62.44 60.6596 62.76 61.1496C62.82 61.2396 62.9 61.3396 62.92 61.4396C63.07 62.1996 63.62 62.3796 64.29 62.4596C72.5 63.4296 80.45 65.4796 88.18 68.4096C91.37 69.6196 94.49 70.9896 97.54 72.5096C98.23 72.8596 98.96 72.5896 98.98 71.9396V71.9396ZM76.31 22.5096C74.74 22.6096 72.81 22.6296 70.88 22.8496C65.04 23.4996 59.48 25.0996 54.2 27.6896C53.82 27.8796 53.49 28.0196 53.57 28.5696C53.64 29.1096 53.83 29.4296 54.39 29.5896C60.3 31.2896 65.89 33.7196 71.2 36.8096C71.64 37.0596 71.91 37.0596 72.33 36.7296C75 34.6196 78.3 34.5796 80.95 36.6496C81.43 37.0196 81.73 37.0896 82.28 36.7696C87.29 33.8296 92.57 31.4896 98.14 29.8596C99.31 29.5196 98.87 28.6596 99.1 28.0296C99.32 27.4296 98.66 27.4496 98.35 27.3096C91.5 24.0396 84.25 22.5496 76.32 22.4996L76.31 22.5096ZM122.03 41.7096C122.04 39.7796 120.59 38.2896 118.7 38.2896C116.75 38.2896 115.3 39.7096 115.28 41.6396C115.26 43.5696 116.69 45.0396 118.62 45.0596C120.53 45.0896 122.01 43.6296 122.02 41.7096H122.03ZM106.58 77.5496C106.58 75.6296 105.15 74.1396 103.24 74.0996C101.45 74.0596 99.85 75.6696 99.85 77.5196C99.85 79.3796 101.42 80.9896 103.22 80.9696C105.12 80.9496 106.59 79.4596 106.59 77.5496H106.58ZM26.98 67.0696C26.98 65.1296 25.54 63.6896 23.6 63.6896C21.75 63.6896 20.22 65.2596 20.24 67.1296C20.26 68.9796 21.84 70.5396 23.66 70.5196C25.59 70.4896 26.99 69.0396 26.98 67.0696ZM109.08 29.5896C109.07 27.7096 107.54 26.2196 105.65 26.2396C103.86 26.2696 102.33 27.8096 102.31 29.5996C102.29 31.5796 103.78 33.0496 105.77 33.0196C107.72 32.9996 109.08 31.5796 109.07 29.5896H109.08ZM106.81 114.76C104.85 114.75 103.43 116.13 103.41 118.09C103.39 120 104.86 121.51 106.74 121.53C108.63 121.54 110.15 120.04 110.16 118.17C110.16 116.21 108.75 114.78 106.82 114.77L106.81 114.76ZM56.78 67.8596C58.73 67.8796 60.26 66.3496 60.24 64.4196C60.22 62.6196 58.7 61.1096 56.88 61.0996C54.98 61.0796 53.45 62.5796 53.44 64.4396C53.44 66.3796 54.87 67.8496 56.78 67.8696V67.8596ZM50.24 29.7196C50.25 27.7496 48.86 26.2896 46.94 26.2496C45.01 26.2096 43.48 27.7296 43.48 29.6896C43.48 31.5096 44.97 33.0096 46.8 33.0496C48.69 33.0896 50.22 31.5996 50.24 29.7196V29.7196ZM80.02 42.0096C80.04 40.0496 78.65 38.5896 76.73 38.5396C74.9 38.4996 73.3 40.0396 73.26 41.8896C73.21 43.7296 74.77 45.3296 76.61 45.3396C78.58 45.3496 80 43.9596 80.02 42.0096V42.0096ZM50.24 117.84C50.24 115.99 48.66 114.39 46.86 114.4C45.04 114.4 43.48 116 43.48 117.85C43.48 119.69 45.06 121.28 46.87 121.28C48.71 121.28 50.24 119.72 50.24 117.84V117.84Z" fill="#0E0D0D"/>
<path d="M122.03 41.7296C122.02 43.6496 120.53 45.1096 118.63 45.0796C116.7 45.0496 115.26 43.5896 115.29 41.6596C115.31 39.7296 116.76 38.3096 118.71 38.3096C120.6 38.3096 122.05 39.7996 122.04 41.7296H122.03Z" fill="#94C93D"/>
<path d="M106.58 77.5699C106.58 79.4899 105.11 80.9699 103.21 80.9899C101.41 81.0099 99.84 79.3899 99.84 77.5399C99.84 75.6899 101.44 74.0799 103.23 74.1199C105.14 74.1599 106.58 75.6499 106.57 77.5699H106.58Z" fill="#94C93D"/>
<path d="M26.98 67.09C26.98 69.05 25.59 70.5 23.66 70.54C21.84 70.57 20.25 69 20.24 67.15C20.22 65.28 21.76 63.71 23.6 63.71C25.54 63.71 26.97 65.15 26.98 67.09Z" fill="#94C93D"/>
<path d="M109.08 29.5897C109.09 31.5797 107.73 32.9997 105.78 33.0197C103.79 33.0397 102.3 31.5697 102.32 29.5997C102.33 27.8097 103.86 26.2697 105.66 26.2397C107.55 26.2097 109.07 27.6997 109.09 29.5897H109.08Z" fill="#94C93D"/>
<path d="M106.81 114.76C108.75 114.77 110.16 116.21 110.15 118.16C110.15 120.03 108.62 121.54 106.73 121.52C104.85 121.51 103.38 119.99 103.4 118.08C103.42 116.12 104.84 114.74 106.8 114.75L106.81 114.76Z" fill="#94C93D"/>
<path d="M56.79 67.86C54.88 67.84 53.44 66.37 53.45 64.43C53.45 62.57 54.99 61.07 56.89 61.09C58.71 61.11 60.24 62.61 60.25 64.41C60.27 66.35 58.74 67.87 56.79 67.85V67.86Z" fill="#94C93D"/>
<path d="M50.25 29.7198C50.24 31.5998 48.7 33.0898 46.81 33.0498C44.98 33.0098 43.49 31.5098 43.49 29.6898C43.49 27.7298 45.02 26.2098 46.95 26.2498C48.86 26.2898 50.26 27.7498 50.25 29.7198V29.7198Z" fill="#94C93D"/>
<path d="M80.03 42.0098C80.01 43.9698 78.59 45.3598 76.62 45.3398C74.78 45.3298 73.22 43.7198 73.27 41.8898C73.32 40.0398 74.91 38.4998 76.74 38.5398C78.66 38.5798 80.06 40.0498 80.03 42.0098V42.0098Z" fill="#94C93D"/>
<path d="M50.25 117.839C50.25 119.719 48.73 121.279 46.88 121.279C45.07 121.279 43.5 119.689 43.49 117.849C43.49 115.999 45.04 114.409 46.87 114.399C48.67 114.399 50.25 115.999 50.25 117.839V117.839Z" fill="#94C93D"/>
</g>
<defs>
<clipPath id="clip0_1472_199">
<rect width="148.25" height="149.08" fill="white"/>
</clipPath>
</defs>
</svg>
