<svg width="149" height="149" viewBox="0 0 149 149" fill="none" xmlns="http://www.w3.org/2000/svg">
<g clip-path="url(#clip0_1472_146)">
<path d="M121.48 0H26.77C11.9853 0 0 11.9853 0 26.77V121.48C0 136.265 11.9853 148.25 26.77 148.25H121.48C136.265 148.25 148.25 136.265 148.25 121.48V26.77C148.25 11.9853 136.265 0 121.48 0Z" fill="white"/>
<path d="M60.88 120.56C94.1717 120.56 121.16 93.5717 121.16 60.28C121.16 26.9883 94.1717 0 60.88 0C27.5883 0 0.599976 26.9883 0.599976 60.28C0.599976 93.5717 27.5883 120.56 60.88 120.56Z" fill="#F1F2F2"/>
<path d="M85.09 20.2393H36.67C31.77 20.2393 27.8 23.9693 27.8 28.5693V94.7893C27.8 99.3893 31.77 103.119 36.67 103.119H85.0801C89.9801 103.119 93.95 99.3893 93.95 94.7893V28.5793C93.95 23.9793 89.9801 20.2493 85.0801 20.2493L85.09 20.2393Z" fill="#94C93D"/>
<path d="M85.09 105.35H36.6701C33.6901 105.35 30.8301 104.24 28.7201 102.26C26.6101 100.28 25.4301 97.5895 25.4301 94.7895V28.5795C25.4301 25.7795 26.6101 23.0895 28.7201 21.1095C30.8301 19.1295 33.6901 18.0195 36.6701 18.0195H85.0801C88.0601 18.0195 90.9201 19.1295 93.0301 21.1095C95.1401 23.0895 96.3201 25.7795 96.3201 28.5795V94.7895C96.3201 97.5895 95.1401 100.28 93.0301 102.26C90.9201 104.24 88.0601 105.35 85.0801 105.35H85.09ZM36.6701 22.4695C34.9501 22.4695 33.2901 23.1095 32.0801 24.2595C30.8701 25.4095 30.1801 26.9595 30.1801 28.5795V94.7895C30.1801 96.4095 30.8601 97.9595 32.0801 99.1095C33.3001 100.25 34.9501 100.9 36.6701 100.9H85.0801C86.8001 100.9 88.4601 100.26 89.6701 99.1095C90.8901 97.9695 91.5701 96.4095 91.5701 94.7895V28.5795C91.5701 26.9595 90.8901 25.4095 89.6701 24.2595C88.4501 23.1195 86.8001 22.4695 85.0801 22.4695H36.6701Z" fill="#010101"/>
<path d="M111.57 45.1299H63.16C58.26 45.1299 54.29 48.8599 54.29 53.4599V119.67C54.29 124.27 58.26 128 63.16 128H111.57C116.47 128 120.44 124.27 120.44 119.67V53.4599C120.44 48.8599 116.47 45.1299 111.57 45.1299Z" fill="white"/>
<path d="M111.57 130.239H63.16C60.18 130.239 57.32 129.129 55.21 127.149C53.1 125.169 51.92 122.479 51.92 119.679V53.4594C51.92 50.6594 53.1 47.9694 55.21 45.9894C57.32 44.0094 60.18 42.8994 63.16 42.8994H111.57C114.55 42.8994 117.41 44.0094 119.52 45.9894C121.63 47.9694 122.81 50.6594 122.81 53.4594V119.669C122.81 122.469 121.63 125.159 119.52 127.139C117.41 129.119 114.55 130.229 111.57 130.229V130.239ZM63.16 47.3594C61.44 47.3594 59.78 47.9994 58.57 49.1494C57.35 50.2894 56.67 51.8494 56.67 53.4694V119.669C56.67 121.289 57.35 122.839 58.57 123.989C59.79 125.129 61.44 125.779 63.16 125.779H111.57C113.29 125.779 114.95 125.139 116.16 123.989C117.38 122.849 118.06 121.289 118.06 119.669V53.4594C118.06 51.8394 117.38 50.2894 116.16 49.1394C114.94 47.9994 113.29 47.3494 111.57 47.3494H63.16V47.3594Z" fill="#010101"/>
</g>
<defs>
<clipPath id="clip0_1472_146">
<rect width="148.25" height="148.25" fill="white"/>
</clipPath>
</defs>
</svg>
