<svg width="149" height="149" viewBox="0 0 149 149" fill="none" xmlns="http://www.w3.org/2000/svg">
<g clip-path="url(#clip0_1472_129)">
<path d="M121.48 0H26.77C11.9853 0 0 11.9853 0 26.77V121.48C0 136.265 11.9853 148.25 26.77 148.25H121.48C136.265 148.25 148.25 136.265 148.25 121.48V26.77C148.25 11.9853 136.265 0 121.48 0Z" fill="white"/>
<path d="M88.14 120.56C121.432 120.56 148.42 93.5717 148.42 60.28C148.42 26.9883 121.432 0 88.14 0C54.8483 0 27.86 26.9883 27.86 60.28C27.86 93.5717 54.8483 120.56 88.14 120.56Z" fill="#F1F2F2"/>
<path d="M74.5499 76.4802C73.9299 76.4802 73.3399 76.2302 72.8999 75.7902C72.4599 75.3502 72.2199 74.7502 72.2199 74.1302V20.0502C72.2199 19.7402 72.2799 19.4402 72.3999 19.1502C72.5199 18.8602 72.6899 18.6102 72.9099 18.3902C73.1299 18.1702 73.3799 18.0002 73.6699 17.8802C73.9499 17.7602 74.2599 17.7002 74.5599 17.7002C84.1799 17.7002 93.6399 20.2102 102.03 24.9702C110.41 29.7302 117.44 36.5902 122.43 44.8802C127.42 53.1702 130.2 62.6102 130.51 72.3002C130.82 81.9902 128.65 91.5902 124.2 100.19C119.75 108.79 113.18 116.08 105.12 121.38C97.0599 126.68 87.7799 129.79 78.1799 130.42C68.5799 131.05 58.9699 129.18 50.2999 124.99C41.6199 120.8 34.1599 114.43 28.6399 106.49C28.3399 105.98 28.2499 105.38 28.3699 104.8C28.4899 104.22 28.8299 103.71 29.3099 103.37C29.7899 103.03 30.3799 102.88 30.9599 102.96C31.5399 103.04 32.0699 103.33 32.4499 103.79C37.4499 111 44.1999 116.81 52.0499 120.67C59.8999 124.53 68.5999 126.31 77.3199 125.84C86.0399 125.37 94.4999 122.67 101.9 117.99C109.3 113.31 115.39 106.81 119.6 99.1102C123.81 91.4002 126 82.7402 125.96 73.9402C125.92 65.1402 123.66 56.5002 119.39 48.8302C115.11 41.1602 108.97 34.7102 101.53 30.1002C94.0899 25.4902 85.6099 22.8602 76.8899 22.4602V74.1302C76.8899 74.7502 76.6499 75.3502 76.2099 75.7902C75.7699 76.2302 75.1899 76.4802 74.5699 76.4802H74.5499Z" fill="black"/>
<path d="M74.5499 45.9102C78.4299 45.9102 82.2699 46.7202 85.8299 48.3002C89.3799 49.8702 92.5699 52.1802 95.1999 55.0602C97.8199 57.9402 99.8199 61.3402 101.07 65.0502C102.32 68.7502 102.79 72.6802 102.46 76.5702C102.12 80.4702 100.99 84.2502 99.1199 87.6802C97.2599 91.1102 94.6999 94.1102 91.6199 96.5002C88.5399 98.8802 85.0099 100.6 81.2399 101.53C77.4699 102.46 73.5499 102.6 69.7199 101.92C69.2399 101.85 68.7999 101.62 68.4499 101.28C68.0999 100.93 67.8599 100.47 67.7899 99.9802C67.7099 99.4902 67.7899 98.9802 68.0199 98.5302C68.2499 98.0902 68.6099 97.7302 69.0599 97.5102C69.5099 97.2902 70.0099 97.2202 70.4999 97.3102C75.3899 98.1802 80.4299 97.4502 84.8799 95.2402C89.3299 93.0302 92.9699 89.4402 95.2599 85.0002C97.5499 80.5602 98.3799 75.5102 97.6199 70.5602C96.8599 65.6202 94.5599 61.0502 91.0499 57.5102C87.2499 53.6602 82.2299 51.2702 76.8699 50.7502V74.1402C76.8699 74.7602 76.6199 75.3602 76.1899 75.8002C75.7499 76.2402 75.1599 76.4902 74.5399 76.4902C73.9199 76.4902 73.3299 76.2402 72.8899 75.8002C72.4499 75.3602 72.2099 74.7602 72.2099 74.1402V48.2702C72.2099 47.9602 72.2699 47.6502 72.3899 47.3702C72.5099 47.0802 72.6799 46.8202 72.8999 46.6102C73.1199 46.3902 73.3799 46.2202 73.6599 46.1002C73.9399 45.9802 74.2499 45.9202 74.5599 45.9202L74.5499 45.9102Z" fill="black"/>
<path d="M55.08 106.261C59.45 108.951 64.33 110.701 69.4 111.411C74.47 112.121 79.64 111.771 84.57 110.391C89.5 109.011 94.1 106.611 98.08 103.361C102.06 100.111 105.33 96.0706 107.69 91.4906C107.98 90.9506 108.48 90.5506 109.06 90.3806C109.64 90.2006 110.27 90.2607 110.81 90.5407C111.35 90.8207 111.76 91.3107 111.95 91.8907C112.14 92.4707 112.1 93.1107 111.83 93.6607C109.18 98.8107 105.5 103.361 101.02 107.021C96.55 110.681 91.37 113.371 85.82 114.931C80.27 116.491 74.46 116.881 68.75 116.081C63.04 115.281 57.56 113.311 52.64 110.281C52.48 110.181 52.34 110.071 52.2 109.931C51.8 109.521 51.56 108.981 51.52 108.411C51.48 107.841 51.66 107.271 52.02 106.821C52.37 106.371 52.88 106.061 53.44 105.961C54 105.861 54.58 105.961 55.07 106.261H55.08Z" fill="#2F2F2F"/>
<path d="M74.56 31.7998C80.75 31.7998 86.86 33.1698 92.46 35.8198C98.06 38.4698 103.01 42.3398 106.95 47.1398C110.89 51.9398 113.73 57.5698 115.27 63.6098C116.8 69.6498 116.99 75.9498 115.82 82.0698C115.76 82.3698 115.65 82.6598 115.48 82.9198C115.31 83.1798 115.09 83.3998 114.84 83.5798C114.59 83.7498 114.3 83.8798 114 83.9398C113.7 83.9998 113.39 84.0098 113.09 83.9398C112.63 83.8598 112.2 83.6298 111.87 83.2998C111.6 83.0298 111.4 82.6898 111.29 82.3298C111.18 81.9598 111.16 81.5698 111.23 81.1998C112.27 75.7598 112.11 70.1498 110.74 64.7798C109.38 59.4098 106.85 54.4098 103.35 50.1398C99.84 45.8698 95.44 42.4298 90.46 40.0698C85.48 37.7098 80.04 36.4898 74.54 36.4998C73.92 36.4998 73.33 36.2498 72.89 35.8098C72.45 35.3698 72.21 34.7698 72.21 34.1498C72.21 33.5298 72.46 32.9298 72.89 32.4898C73.33 32.0498 73.92 31.7998 74.54 31.7998H74.56Z" fill="black"/>
<path d="M110.26 94.4404C113.999 94.4404 117.03 91.4094 117.03 87.6704C117.03 83.9314 113.999 80.9004 110.26 80.9004C106.521 80.9004 103.49 83.9314 103.49 87.6704C103.49 91.4094 106.521 94.4404 110.26 94.4404Z" fill="white"/>
<path d="M24.49 103.471C28.2289 103.471 31.26 100.44 31.26 96.7007C31.26 92.9617 28.2289 89.9307 24.49 89.9307C20.751 89.9307 17.72 92.9617 17.72 96.7007C17.72 100.44 20.751 103.471 24.49 103.471Z" fill="white"/>
<path d="M49.3199 51.56C49.3199 55.3 46.2899 58.33 42.5499 58.33C38.8099 58.33 35.7799 55.3 35.7799 51.56C35.7799 47.82 38.8099 44.79 42.5499 44.79C46.2899 44.79 49.3199 47.82 49.3199 51.56V51.56Z" fill="white"/>
<path d="M33.66 91.0898C34.97 92.4098 35.85 94.0799 36.21 95.9099C36.57 97.7299 36.38 99.6198 35.68 101.34C34.97 103.06 33.78 104.53 32.24 105.56C30.7 106.59 28.9 107.14 27.05 107.14C25.2 107.14 23.4 106.59 21.86 105.56C20.32 104.53 19.13 103.06 18.42 101.34C17.71 99.6198 17.53 97.7299 17.89 95.9099C18.25 94.0899 19.14 92.4098 20.44 91.0898C22.19 89.3298 24.57 88.3398 27.04 88.3398C29.51 88.3398 31.89 89.3298 33.64 91.0898H33.66ZM23.75 101.07C24.4 101.73 25.24 102.18 26.14 102.36C27.05 102.54 27.99 102.45 28.84 102.09C29.69 101.73 30.42 101.13 30.94 100.36C31.45 99.5898 31.73 98.6798 31.73 97.7398C31.73 96.7998 31.46 95.8998 30.94 95.1298C30.43 94.3598 29.7 93.7498 28.84 93.3998C27.99 93.0398 27.05 92.9498 26.14 93.1298C25.23 93.3098 24.4 93.7598 23.75 94.4198C22.88 95.2998 22.39 96.4998 22.39 97.7398C22.39 98.9798 22.88 100.18 23.75 101.06V101.07Z" fill="black"/>
<path d="M50.3599 43.4004C51.6699 44.7204 52.5499 46.3904 52.9099 48.2204C53.2699 50.0404 53.0799 51.9304 52.3799 53.6504C51.6699 55.3704 50.4799 56.8404 48.9399 57.8704C47.3999 58.9004 45.5999 59.4504 43.7499 59.4504C41.8999 59.4504 40.0999 58.9004 38.5599 57.8704C37.0199 56.8404 35.8299 55.3704 35.1199 53.6504C34.4099 51.9304 34.2299 50.0404 34.5899 48.2204C34.9499 46.4004 35.8399 44.7204 37.1399 43.4004C38.8899 41.6404 41.2699 40.6504 43.7399 40.6504C46.2099 40.6504 48.5899 41.6404 50.3399 43.4004H50.3599ZM40.4499 53.3804C41.0999 54.0404 41.9399 54.4904 42.8399 54.6704C43.7499 54.8504 44.6899 54.7604 45.5399 54.4004C46.3899 54.0404 47.1199 53.4404 47.6399 52.6704C48.1499 51.9004 48.4299 50.9904 48.4299 50.0604C48.4299 49.1304 48.1599 48.2204 47.6399 47.4504C47.1299 46.6804 46.3999 46.0704 45.5399 45.7204C44.6899 45.3604 43.7499 45.2704 42.8399 45.4504C41.9299 45.6304 41.0999 46.0804 40.4499 46.7404C39.5799 47.6204 39.0899 48.8204 39.0899 50.0704C39.0899 51.3204 39.5799 52.5104 40.4499 53.4004V53.3804Z" fill="#94C93D"/>
<path d="M84.46 64.1398C86.9 66.8198 88.22 70.3398 88.14 73.9798C88.06 77.6098 86.6 81.0798 84.05 83.6498C81.5 86.2198 78.06 87.7098 74.45 87.7898C70.84 87.8698 67.34 86.5498 64.68 84.0998C64.24 83.6598 64 83.0598 64 82.4398C64 81.8198 64.25 81.2198 64.69 80.7798C65.13 80.3398 65.72 80.0898 66.34 80.0898C66.96 80.0898 67.55 80.3398 67.99 80.7798C69.11 81.9098 70.5 82.7298 72.02 83.1698C73.54 83.6098 75.15 83.6498 76.7 83.2898C78.24 82.9298 79.67 82.1798 80.85 81.1098C82.03 80.0398 82.91 78.6898 83.43 77.1798C83.94 75.6698 84.07 74.0498 83.79 72.4798C83.51 70.9098 82.84 69.4298 81.84 68.1998C80.84 66.9598 79.54 65.9998 78.07 65.3998C76.6 64.8098 75 64.5998 73.43 64.7998C71.44 65.0498 75.91 63.1998 74.38 64.7298C73.47 65.6498 75.76 60.0798 73.43 62.4198C72.52 61.4998 72.52 60.9898 73.43 60.0798C70.26 60.3398 75.86 57.6198 73.43 60.0798C75.45 59.9098 77.49 60.1898 79.4 60.8898C81.31 61.5898 83.04 62.7098 84.47 64.1498L84.46 64.1398Z" fill="black"/>
<path d="M118.31 81.6405C119.45 82.7905 120.23 84.2605 120.55 85.8605C120.87 87.4605 120.7 89.1105 120.09 90.6205C119.47 92.1205 118.42 93.4105 117.08 94.3205C115.74 95.2305 114.15 95.7105 112.54 95.7105C110.93 95.7105 109.34 95.2305 108 94.3205C106.66 93.4105 105.61 92.1305 104.99 90.6205C104.37 89.1205 104.21 87.4605 104.53 85.8605C104.85 84.2605 105.62 82.7905 106.77 81.6405C108.3 80.1005 110.38 79.2305 112.55 79.2305C114.72 79.2305 116.8 80.1005 118.33 81.6405H118.31ZM110.06 89.9505C110.55 90.4405 111.17 90.7805 111.85 90.9205C112.53 91.0605 113.23 90.9905 113.87 90.7205C114.51 90.4505 115.06 90.0005 115.44 89.4205C115.83 88.8405 116.03 88.1605 116.03 87.4605C116.03 86.7605 115.82 86.0805 115.44 85.5005C115.05 84.9205 114.51 84.4705 113.87 84.2005C113.23 83.9305 112.53 83.8605 111.85 84.0005C111.17 84.1405 110.55 84.4705 110.06 84.9605C109.4 85.6205 109.03 86.5205 109.03 87.4605C109.03 88.4005 109.4 89.2905 110.05 89.9605L110.06 89.9505Z" fill="black"/>
</g>
<defs>
<clipPath id="clip0_1472_129">
<rect width="148.43" height="148.25" fill="white"/>
</clipPath>
</defs>
</svg>
