<svg width="149" height="149" viewBox="0 0 149 149" fill="none" xmlns="http://www.w3.org/2000/svg">
<g clip-path="url(#clip0_1472_160)">
<path d="M121.48 0H26.77C11.9853 0 0 11.9853 0 26.77V121.48C0 136.265 11.9853 148.25 26.77 148.25H121.48C136.265 148.25 148.25 136.265 148.25 121.48V26.77C148.25 11.9853 136.265 0 121.48 0Z" fill="white"/>
<path d="M74.12 120.56C107.412 120.56 134.4 93.5717 134.4 60.28C134.4 26.9883 107.412 0 74.12 0C40.8282 0 13.84 26.9883 13.84 60.28C13.84 93.5717 40.8282 120.56 74.12 120.56Z" fill="#F1F2F2"/>
<path d="M96.4599 38.5098H48.0499C43.1499 38.5098 39.1799 42.2398 39.1799 46.8398V113.05C39.1799 117.65 43.1499 121.38 48.0499 121.38H96.4599C101.36 121.38 105.33 117.65 105.33 113.05V46.8398C105.33 42.2398 101.36 38.5098 96.4599 38.5098V38.5098Z" fill="white"/>
<path d="M96.4599 123.62H48.0499C45.0699 123.62 42.2099 122.51 40.0999 120.53C37.9899 118.55 36.8099 115.86 36.8099 113.06V46.8403C36.8099 44.0403 37.9899 41.3503 40.0999 39.3703C42.2099 37.3903 45.0699 36.2803 48.0499 36.2803H96.4599C99.4399 36.2803 102.3 37.3903 104.41 39.3703C106.52 41.3503 107.7 44.0403 107.7 46.8403V113.05C107.7 115.85 106.52 118.54 104.41 120.52C102.3 122.5 99.4399 123.61 96.4599 123.61V123.62ZM48.0499 40.7403C46.3299 40.7403 44.6699 41.3803 43.4599 42.5303C42.2399 43.6703 41.5599 45.2303 41.5599 46.8503V113.05C41.5599 114.67 42.2399 116.22 43.4599 117.37C44.6799 118.51 46.3299 119.16 48.0499 119.16H96.4599C98.1799 119.16 99.8399 118.52 101.05 117.37C102.27 116.23 102.95 114.67 102.95 113.05V46.8403C102.95 45.2203 102.27 43.6703 101.05 42.5203C99.8299 41.3803 98.1799 40.7303 96.4599 40.7303H48.0499V40.7403Z" fill="#010101"/>
<path d="M74.1199 82.4404H52.6299C51.2499 82.4404 50.1299 81.3204 50.1299 79.9404C50.1299 78.5604 51.2499 77.4404 52.6299 77.4404H74.1199C75.4999 77.4404 76.6199 78.5604 76.6199 79.9404C76.6199 81.3204 75.4999 82.4404 74.1199 82.4404Z" fill="#231F20"/>
<path d="M92.2999 92.1299H52.6299C51.2499 92.1299 50.1299 91.0099 50.1299 89.6299C50.1299 88.2499 51.2499 87.1299 52.6299 87.1299H92.2999C93.6799 87.1299 94.7999 88.2499 94.7999 89.6299C94.7999 91.0099 93.6799 92.1299 92.2999 92.1299V92.1299Z" fill="#231F20"/>
<path d="M92.2999 101.81H52.6299C51.2499 101.81 50.1299 100.69 50.1299 99.3096C50.1299 97.9296 51.2499 96.8096 52.6299 96.8096H92.2999C93.6799 96.8096 94.7999 97.9296 94.7999 99.3096C94.7999 100.69 93.6799 101.81 92.2999 101.81V101.81Z" fill="#231F20"/>
<path d="M92.2999 111.49H52.6299C51.2499 111.49 50.1299 110.37 50.1299 108.99C50.1299 107.61 51.2499 106.49 52.6299 106.49H92.2999C93.6799 106.49 94.7999 107.61 94.7999 108.99C94.7999 110.37 93.6799 111.49 92.2999 111.49V111.49Z" fill="#231F20"/>
<path d="M39.1799 64.23C49.5298 64.23 57.9199 55.8398 57.9199 45.49C57.9199 35.1402 49.5298 26.75 39.1799 26.75C28.8301 26.75 20.4399 35.1402 20.4399 45.49C20.4399 55.8398 28.8301 64.23 39.1799 64.23Z" fill="#94C93D"/>
<path d="M35.6699 53.2205C35.6699 52.7405 35.7599 52.2905 35.9399 51.8505C36.1199 51.4205 36.3699 51.0505 36.6899 50.7305C37.0099 50.4105 37.3799 50.1605 37.8099 49.9805C38.2399 49.8005 38.6999 49.7105 39.1699 49.7105C39.6399 49.7105 40.1099 49.8005 40.5399 49.9805C40.9699 50.1605 41.3399 50.4105 41.6599 50.7305C41.9799 51.0505 42.2299 51.4205 42.4099 51.8505C42.5899 52.2805 42.6799 52.7405 42.6799 53.2205C42.6799 53.7005 42.5899 54.1605 42.4099 54.5905C42.2299 55.0205 41.9799 55.3905 41.6599 55.7105C41.3399 56.0305 40.9599 56.2805 40.5399 56.4605C40.1099 56.6405 39.6499 56.7305 39.1699 56.7305C38.6899 56.7305 38.2299 56.6405 37.8099 56.4605C37.3799 56.2805 36.9999 56.0305 36.6899 55.7105C36.3699 55.3905 36.1199 55.0105 35.9399 54.5905C35.7599 54.1605 35.6699 53.7105 35.6699 53.2205ZM36.3599 48.4205V33.4805H41.9999V48.4205H36.3599Z" fill="white"/>
</g>
<defs>
<clipPath id="clip0_1472_160">
<rect width="148.25" height="148.25" fill="white"/>
</clipPath>
</defs>
</svg>
