<svg width="149" height="149" viewBox="0 0 149 149" fill="none" xmlns="http://www.w3.org/2000/svg">
<g clip-path="url(#clip0_1472_170)">
<path d="M121.48 0H26.77C11.9853 0 0 11.9853 0 26.77V121.48C0 136.265 11.9853 148.25 26.77 148.25H121.48C136.265 148.25 148.25 136.265 148.25 121.48V26.77C148.25 11.9853 136.265 0 121.48 0Z" fill="white"/>
<path d="M60.28 148.24C93.5717 148.24 120.56 121.251 120.56 87.9597C120.56 54.668 93.5717 27.6797 60.28 27.6797C26.9883 27.6797 0 54.668 0 87.9597C0 121.251 26.9883 148.24 60.28 148.24Z" fill="#F1F2F2"/>
<path d="M30.61 60.0493L118.77 59.7193L105.96 49.3093C105.9 49.2593 105.83 49.2293 105.76 49.2193L91.17 47.3093C91.01 47.2893 90.88 47.1793 90.83 47.0193L84.9 27.3893C84.88 27.3293 84.85 27.2693 84.8 27.2193L73.26 15.1793C73.08 14.9893 72.76 15.0193 72.62 15.2393L57.38 39.0493C57.31 39.1593 57.2 39.2293 57.07 39.2393L45.55 40.3993C45.44 40.4093 45.33 40.4693 45.26 40.5593L30.6 60.0493" fill="white"/>
<path d="M22.5 59.8896H125.75" stroke="#231F20" stroke-width="5" stroke-miterlimit="10" stroke-linecap="round"/>
<path d="M118.77 58.3595L105.93 48.0095C105.87 47.9595 105.8 47.9295 105.73 47.9195L91.1399 46.0095C90.9799 45.9895 90.8499 45.8795 90.7999 45.7195L84.8699 26.0895C84.8499 26.0295 84.8199 25.9695 84.7699 25.9195L73.2299 13.8795C73.0499 13.6895 72.7299 13.7195 72.5899 13.9395L57.3499 37.7495C57.2799 37.8595 57.1699 37.9295 57.0399 37.9395L45.5199 39.0995C45.4099 39.1095 45.2999 39.1695 45.2299 39.2595L30.5699 58.7495" stroke="#231F20" stroke-width="5" stroke-miterlimit="10" stroke-linecap="round"/>
<path d="M80.77 59.7298L63.65 48.0998C63.43 47.9498 63.41 47.6498 63.59 47.4598L79.3 32.1998C79.42 32.0898 79.45 31.9198 79.4 31.7698L72.86 13.5098" stroke="#231F20" stroke-width="5" stroke-miterlimit="10"/>
<path d="M30.24 67.4697L36.46 88.9597C36.49 89.0897 36.58 89.1897 36.7 89.2397L50.73 94.9897C50.82 95.0297 50.9 95.0997 50.94 95.1897L70.19 134.51C70.31 134.77 70.66 134.82 70.85 134.62L95.65 109.23C95.71 109.17 95.75 109.09 95.76 109.01L98.97 89.0297C98.98 88.9597 99.01 88.8997 99.05 88.8497L117.34 67.4697" stroke="#94C93D" stroke-width="5" stroke-miterlimit="10" stroke-linecap="round"/>
</g>
<defs>
<clipPath id="clip0_1472_170">
<rect width="148.25" height="148.25" fill="white"/>
</clipPath>
</defs>
</svg>
