<svg width="149" height="149" viewBox="0 0 149 149" fill="none" xmlns="http://www.w3.org/2000/svg">
<g clip-path="url(#clip0_1472_182)">
<path d="M121.48 0H26.77C11.9853 0 0 11.9853 0 26.77V121.48C0 136.265 11.9853 148.25 26.77 148.25H121.48C136.265 148.25 148.25 136.265 148.25 121.48V26.77C148.25 11.9853 136.265 0 121.48 0Z" fill="white"/>
<path d="M73.8 137.22C107.092 137.22 134.08 110.232 134.08 76.9402C134.08 43.6484 107.092 16.6602 73.8 16.6602C40.5083 16.6602 13.52 43.6484 13.52 76.9402C13.52 110.232 40.5083 137.22 73.8 137.22Z" fill="#F1F2F2"/>
<path d="M125.85 91.7801H25.04C25.04 63.9401 47.61 41.3701 75.45 41.3701C103.29 41.3701 125.86 63.9401 125.86 91.7801H125.85Z" fill="white"/>
<path d="M125.85 91.7801H25.04C25.04 63.9401 47.61 41.3701 75.45 41.3701C103.29 41.3701 125.86 63.9401 125.86 91.7801H125.85Z" fill="white"/>
<path d="M81.0401 84.9399C80.3001 84.9399 79.5601 84.6699 78.9801 84.1499C77.7201 83.0299 77.6301 81.1099 78.7601 79.8599L93.2101 64.0499C94.3501 62.7999 96.2801 62.7099 97.5401 63.8399C98.8001 64.9599 98.8901 66.8799 97.7501 68.1299L83.3001 83.9399C82.6901 84.6099 81.8601 84.9399 81.0301 84.9399H81.0401Z" fill="#94C93D"/>
<path d="M101.14 79.3396C100.59 77.8496 101.39 76.1796 102.89 75.6596C104.4 75.1096 106.09 75.8996 106.64 77.3896C107.19 78.8796 106.39 80.5496 104.89 81.0996C104.55 81.2196 104.24 81.2796 103.91 81.2796C102.71 81.2496 101.57 80.5196 101.14 79.3296V79.3396ZM46.12 80.3396C44.61 79.7596 43.88 78.0896 44.46 76.5996C45.04 75.1096 46.73 74.3796 48.24 74.9596C49.75 75.5396 50.48 77.2096 49.9 78.6996C49.44 79.8596 48.36 80.5196 47.2 80.5196C46.83 80.5196 46.46 80.4596 46.12 80.3396V80.3396ZM53.34 67.7596C52.3 66.5396 52.42 64.7196 53.62 63.6896C54.82 62.6296 56.66 62.7796 57.74 63.9596C58.78 65.1796 58.66 66.9996 57.46 68.0296C56.91 68.5196 56.23 68.7296 55.55 68.7296C54.75 68.7596 53.92 68.4296 53.34 67.7596ZM82.32 62.3196C80.75 61.9196 79.83 60.3396 80.23 58.7896C80.63 57.2396 82.23 56.3296 83.8 56.7196C85.37 57.1196 86.29 58.6996 85.89 60.2496C85.55 61.5596 84.35 62.4096 83.06 62.4096C82.81 62.4096 82.57 62.3796 82.32 62.3196ZM65.66 59.9796C65.29 58.4296 66.27 56.8796 67.84 56.5096C69.41 56.1496 70.97 57.1196 71.34 58.6696C71.71 60.2196 70.73 61.7696 69.16 62.1396C68.94 62.1996 68.7 62.1996 68.48 62.1996C67.16 62.2296 65.96 61.3196 65.65 59.9796H65.66Z" fill="black"/>
<path d="M125.6 92.9599L119.48 92.4099C119.6 91.0999 119.66 89.7999 119.66 88.4899C119.66 64.3499 99.81 44.7199 75.4 44.7199C50.99 44.7199 31.14 64.3599 31.14 88.4899C31.14 89.7999 31.2 91.0999 31.32 92.4099L25.2 92.9599C25.08 91.4999 25.02 90.0099 25.02 88.5199C25.02 61.0399 47.64 38.6699 75.43 38.6699C103.22 38.6699 125.84 61.0399 125.84 88.5199C125.81 89.9799 125.72 91.4699 125.59 92.9599H125.6Z" fill="black" stroke="white" stroke-miterlimit="10"/>
<path d="M64.6601 92.9894C64.0501 91.5594 63.7401 90.0394 63.7401 88.4894C63.7401 82.1094 68.9601 76.9395 75.4201 76.9395C81.8801 76.9395 87.1001 82.1094 87.1001 88.4894C87.1001 89.9794 86.8201 91.4394 86.2401 92.8094L80.5501 90.5294C80.8301 89.8894 80.9501 89.1894 80.9501 88.4894C80.9501 85.4794 78.4601 83.0194 75.4201 83.0194C72.3801 83.0194 69.8901 85.4794 69.8901 88.4894C69.8901 89.2194 70.0401 89.9495 70.3201 90.6195L64.6601 92.9894V92.9894Z" fill="black"/>
<path d="M135.9 95.57H12.3501C10.7501 95.57 9.43005 94.26 9.43005 92.68C9.43005 91.1 10.7501 89.79 12.3501 89.79H135.9C137.5 89.79 138.82 91.1 138.82 92.68C138.82 94.26 137.5 95.57 135.9 95.57Z" fill="black"/>
</g>
<defs>
<clipPath id="clip0_1472_182">
<rect width="148.25" height="148.25" fill="white"/>
</clipPath>
</defs>
</svg>
