<svg width="122" height="123" viewBox="0 0 122 123" fill="none" xmlns="http://www.w3.org/2000/svg">
<g clip-path="url(#clip0_1472_240)">
<path opacity="0.5" d="M55.23 78.22C76.8299 78.22 94.34 60.7099 94.34 39.11C94.34 17.5101 76.8299 0 55.23 0C33.6301 0 16.12 17.5101 16.12 39.11C16.12 60.7099 33.6301 78.22 55.23 78.22Z" fill="#D1D3D4"/>
<path opacity="0.5" d="M82.77 114.73C104.37 114.73 121.88 97.2196 121.88 75.6198C121.88 54.0199 104.37 36.5098 82.77 36.5098C61.1702 36.5098 43.66 54.0199 43.66 75.6198C43.66 97.2196 61.1702 114.73 82.77 114.73Z" fill="#97AAD7"/>
<path opacity="0.5" d="M39.11 122.08C60.7099 122.08 78.22 104.57 78.22 82.9704C78.22 61.3705 60.7099 43.8604 39.11 43.8604C17.5101 43.8604 0 61.3705 0 82.9704C0 104.57 17.5101 122.08 39.11 122.08Z" fill="#D1D3D4"/>
</g>
<defs>
<clipPath id="clip0_1472_240">
<rect width="121.88" height="122.09" fill="white"/>
</clipPath>
</defs>
</svg>
