<svg width="119" height="124" viewBox="0 0 119 124" fill="none" xmlns="http://www.w3.org/2000/svg">
<g clip-path="url(#clip0_1472_225)">
<path opacity="0.5" d="M78.94 78.2298C100.54 78.2298 118.05 60.7196 118.05 39.1198C118.05 17.5199 100.54 0.00976562 78.94 0.00976562C57.3401 0.00976562 39.83 17.5199 39.83 39.1198C39.83 60.7196 57.3401 78.2298 78.94 78.2298Z" fill="#B2D34E"/>
<path opacity="0.5" d="M77.9299 123.94C99.5298 123.94 117.04 106.43 117.04 84.8297C117.04 63.2299 99.5298 45.7197 77.9299 45.7197C56.3301 45.7197 38.8199 63.2299 38.8199 84.8297C38.8199 106.43 56.3301 123.94 77.9299 123.94Z" fill="#D1D3D4"/>
<path opacity="0.5" d="M39.12 102.66C60.7199 102.66 78.23 85.1503 78.23 63.5504C78.23 41.9506 60.7199 24.4404 39.12 24.4404C17.5202 24.4404 0.0100098 41.9506 0.0100098 63.5504C0.0100098 85.1503 17.5202 102.66 39.12 102.66Z" fill="#D1D3D4"/>
</g>
<defs>
<clipPath id="clip0_1472_225">
<rect width="118.06" height="123.95" fill="white"/>
</clipPath>
</defs>
</svg>
