<svg width="123" height="123" viewBox="0 0 123 123" fill="none" xmlns="http://www.w3.org/2000/svg">
<g clip-path="url(#clip0_1472_245)">
<path opacity="0.5" d="M39.11 78.22C60.7099 78.22 78.22 60.7099 78.22 39.11C78.22 17.5101 60.7099 0 39.11 0C17.5101 0 0 17.5101 0 39.11C0 60.7099 17.5101 78.22 39.11 78.22Z" fill="#D1D3D4"/>
<path opacity="0.5" d="M83.51 89.18C105.11 89.18 122.62 71.6698 122.62 50.07C122.62 28.4701 105.11 10.96 83.51 10.96C61.9102 10.96 44.4 28.4701 44.4 50.07C44.4 71.6698 61.9102 89.18 83.51 89.18Z" fill="#D1D3D4"/>
<path opacity="0.5" d="M54.27 122.42C75.8699 122.42 93.38 104.91 93.38 83.3102C93.38 61.7103 75.8699 44.2002 54.27 44.2002C32.6702 44.2002 15.16 61.7103 15.16 83.3102C15.16 104.91 32.6702 122.42 54.27 122.42Z" fill="#F15F3A"/>
</g>
<defs>
<clipPath id="clip0_1472_245">
<rect width="122.62" height="122.43" fill="white"/>
</clipPath>
</defs>
</svg>
