<svg width="2458" height="1261" viewBox="0 0 2458 1261" fill="none" xmlns="http://www.w3.org/2000/svg">
<g opacity="0.5">
<path d="M-242.564 136.17L80.4967 37.8515C293.407 -26.9006 521.815 -5.71337 717.559 94.2715C784.555 128.552 862.519 135.218 934.761 113.792L1023.93 87.3678C1142.9 52.3731 1252.82 164.023 1215.38 282.1C1205.13 314 1199.41 380.895 1197.5 446.123C1194.64 542.775 1247.81 632.524 1333.88 676.803L1522.95 774.169C1534.15 779.882 1544.64 786.548 1555.37 792.976C1594 816.067 1638.82 725.605 1687.22 615.383C1766.61 434.22 1987.63 364.231 2156.91 467.072L2535.52 697.514" stroke="#0067F9" stroke-width="0.75" stroke-miterlimit="10" stroke-dasharray="0.5 0.5"/>
<path opacity="0.9846" d="M-244.233 141.884L32.574 61.8956C32.8124 62.1336 79.3046 48.0881 79.5431 48.0881C134.618 31.9001 190.647 20.7113 246.438 14.5218C304.136 8.09418 362.073 7.38 419.055 12.6173C521.338 21.4255 622.429 49.7546 716.129 97.6045C783.125 131.885 860.612 138.789 932.615 118.554C932.854 118.792 1021.07 93.3194 1021.31 93.7955C1113.34 67.8471 1199.65 130.219 1215.14 215.206C1219.44 239.012 1218.24 264.246 1210.38 289.956C1200.36 322.332 1194.64 388.751 1192.97 453.741C1190.35 550.393 1243.52 639.904 1329.11 684.421C1329.83 685.373 1464.77 754.648 1465.96 754.41C1466.44 754.172 1518.89 781.073 1519.37 781.073C1530.58 786.786 1541.31 793.214 1552.03 799.641C1591.37 822.733 1637.39 733.937 1686.5 625.62C1711.78 570.628 1750.16 525.873 1796.18 492.783C1900.61 418.032 2035.55 402.558 2153.09 471.834C2155.72 470.881 2443.73 645.379 2444.92 647.998L2534.09 703.704" stroke="#0067F9" stroke-width="0.75" stroke-miterlimit="10" stroke-dasharray="0.5 0.5"/>
<path opacity="0.9692" d="M-245.902 147.359L31.3819 71.1797C31.8587 71.4177 77.8741 57.8484 78.5893 58.0864C133.903 42.3745 190.171 30.9477 245.961 23.8059C303.421 16.6641 360.88 14.9977 417.386 19.0447C518.477 26.1865 620.521 52.8491 714.698 100.937C781.456 134.98 858.704 142.597 930.231 123.553C930.708 124.267 1017.73 99.2707 1018.21 100.223C1109.29 75.4647 1194.64 138.312 1209.66 223.3C1213.95 247.105 1212.76 272.34 1204.89 298.05C1194.88 330.664 1189.63 396.845 1187.96 461.597C1185.82 558.249 1238.99 647.521 1323.63 692.276C1324.82 693.943 1459.05 762.742 1461.2 761.79C1461.91 761.552 1514.13 787.976 1515.08 787.976C1526.28 793.451 1537.01 800.117 1547.98 806.307C1588.04 829.398 1634.77 742.507 1685.31 635.618C1711.06 581.341 1750.16 537.062 1796.89 503.733C1903.23 428.031 2031.02 408.51 2149.04 475.88C2154.29 473.976 2440.87 647.045 2443.25 652.044L2532.18 709.178" stroke="#0067F9" stroke-width="0.75" stroke-miterlimit="10" stroke-dasharray="0.5 0.5"/>
<path opacity="0.9538" d="M-247.571 153.072L30.4282 80.9401C31.1435 81.4163 76.9204 68.0849 77.6357 68.323C133.188 53.0872 189.694 41.4223 245.246 33.5663C302.467 25.7104 359.688 22.8537 415.717 25.7104C516.093 30.7096 618.614 56.182 713.267 104.27C780.026 138.312 857.036 146.406 928.085 128.314C929.039 129.266 1014.87 105.222 1015.59 106.412C1105.71 83.0827 1190.11 145.93 1204.89 230.917C1208.95 254.723 1207.75 279.958 1200.12 305.668C1190.35 338.52 1185.34 404.701 1183.91 468.739C1182.24 565.391 1235.17 654.663 1319.1 699.418C1321 702.037 1454.28 769.884 1457.38 768.693C1458.57 768.217 1510.31 794.166 1511.5 794.404C1522.71 799.879 1533.68 806.307 1544.64 812.734C1585.41 835.826 1633.1 750.601 1684.84 645.617C1711.3 592.053 1751.12 548.25 1798.09 514.684C1906.33 438.029 2026.97 414.461 2145.47 480.166C2153.57 477.309 2438.25 648.95 2442.3 656.329L2530.99 714.892" stroke="#0067F9" stroke-width="0.75" stroke-miterlimit="10" stroke-dasharray="0.5 0.5"/>
<path opacity="0.9385" d="M-249.24 158.786L29.2361 90.4627C30.4282 91.1768 75.4899 78.0836 76.682 78.3216C132.473 63.562 189.217 51.659 244.531 42.8508C301.752 34.0426 358.258 30.4717 413.81 32.1381C513.232 35.2329 616.707 59.0388 711.599 107.365C778.118 141.169 854.89 149.739 925.463 132.837C926.655 134.028 1011.29 110.698 1012.25 112.364C1101.66 90.4627 1184.63 153.548 1199.17 238.536C1203.22 262.341 1201.79 287.576 1194.4 313.048C1184.63 346.138 1179.62 412.081 1178.67 475.881C1177.24 572.533 1230.17 661.567 1313.37 706.56C1316 710.131 1448.32 777.264 1452.37 775.597C1453.8 775.121 1505.3 800.593 1506.97 800.831C1518.42 806.307 1529.38 812.734 1540.35 818.924C1581.84 841.778 1630.24 758.695 1683.4 655.377C1710.35 602.766 1750.88 559.201 1798.56 525.635C1908.95 447.79 2022.2 420.651 2141.17 484.213C2151.9 480.404 2435.15 650.378 2440.39 660.615L2528.85 720.606" stroke="#0067F9" stroke-width="0.75" stroke-miterlimit="10" stroke-dasharray="0.5 0.5"/>
<path opacity="0.9231" d="M-250.909 164.261L28.044 99.985C29.4745 100.699 74.0593 88.082 75.7283 88.3201C131.757 74.0365 188.74 61.6574 244.054 52.3731C301.037 42.6127 357.304 38.0896 412.141 38.8038C510.848 39.756 614.799 62.1336 710.406 110.698C776.926 144.502 853.221 153.548 923.317 137.836C924.747 139.503 1008.43 116.887 1009.39 118.792C1097.84 98.3186 1179.86 161.404 1193.93 246.63C1197.74 270.197 1196.55 295.432 1189.16 321.142C1179.62 354.708 1174.85 420.175 1173.9 483.737C1172.71 580.389 1225.64 669.185 1308.13 714.178C1311.47 718.701 1442.84 785.12 1447.84 782.977C1449.75 782.263 1500.54 807.259 1502.92 807.497C1514.36 812.973 1525.33 819.162 1536.54 825.352C1578.98 848.205 1628.09 766.789 1682.45 665.138C1710.11 613.241 1751.35 570.152 1799.28 536.348C1911.57 457.55 2017.67 426.364 2137.12 488.26C2150.47 483.499 2432.29 652.044 2438.72 664.662L2526.94 726.081" stroke="#0067F9" stroke-width="0.75" stroke-miterlimit="10" stroke-dasharray="0.5 0.5"/>
<path opacity="0.9077" d="M-252.578 169.974L26.8519 109.745C28.5209 110.698 72.8673 98.3184 74.5362 98.7945C130.565 84.9871 188.025 72.37 243.1 62.3715C299.845 51.8969 355.635 46.4215 410.234 45.9454C507.987 44.9932 612.892 65.7043 708.737 114.268C775.019 147.835 851.075 157.595 920.933 142.836C922.602 144.74 1005.1 122.839 1006.53 125.219C1094.03 105.936 1175.09 169.498 1188.68 254.723C1192.49 278.291 1191.06 303.525 1183.91 328.998C1174.37 362.802 1169.84 428.03 1169.37 491.354C1168.65 588.006 1221.34 676.564 1303.12 721.796C1306.94 727.033 1437.35 792.737 1443.55 790.357C1445.7 789.643 1496.24 813.687 1499.1 814.401C1511.5 817.734 1521.75 826.066 1533.2 832.017C1576.35 854.871 1626.42 775.359 1681.74 675.374C1710.11 624.191 1751.83 581.579 1800.47 547.536C1914.67 467.786 2013.62 432.792 2133.54 492.545C2149.52 486.831 2429.9 653.949 2437.77 668.946L2525.75 731.556" stroke="#0067F9" stroke-width="0.75" stroke-miterlimit="10" stroke-dasharray="0.5 0.5"/>
<path opacity="0.8923" d="M-254.247 175.45L25.8982 119.268C27.8056 120.458 71.6752 108.317 73.821 108.793C130.088 95.4617 187.786 82.6065 242.623 71.6558C299.129 60.467 354.682 53.8013 408.565 52.1349C505.602 49.0402 610.985 68.561 707.307 117.125C773.35 150.691 849.168 160.69 918.549 147.121C920.456 149.263 1002 128.314 1003.43 130.933C1089.97 113.078 1170.08 176.64 1183.2 261.865C1187.01 285.433 1185.58 310.667 1178.43 336.14C1169.13 370.182 1164.6 435.172 1164.36 498.258C1163.88 594.91 1216.81 683.23 1297.88 728.699C1302.41 734.889 1431.87 799.879 1439.02 797.022C1441.65 796.07 1491.71 819.638 1494.81 820.59C1507.21 823.685 1517.7 832.017 1529.15 838.207C1573.02 861.06 1624.04 783.215 1680.54 684.897C1709.63 634.428 1751.83 592.53 1800.95 558.249C1917.06 477.547 2008.85 438.505 2129.25 496.592C2147.85 490.164 2426.8 655.615 2435.86 673.232L2523.6 737.27" stroke="#0067F9" stroke-width="0.75" stroke-miterlimit="10" stroke-dasharray="0.5 0.5"/>
<path opacity="0.8769" d="M-255.916 181.163L24.7061 128.79C26.8519 129.98 70.2446 118.315 72.6288 118.792C129.135 105.936 187.071 92.8431 241.908 81.1782C298.176 69.0372 353.251 61.6573 406.657 58.8006C502.741 53.8014 608.839 71.6558 705.876 120.458C771.919 154.024 847.26 164.499 916.164 152.12C918.31 154.739 998.658 134.265 1000.33 137.36C1086.16 120.934 1165.08 184.734 1177.71 269.959C1181.29 293.527 1179.86 318.761 1172.94 343.996C1163.65 378.514 1159.59 443.266 1159.59 505.876C1159.59 602.528 1212.28 690.61 1292.63 736.317C1297.88 743.459 1426.39 807.735 1434.49 804.402C1437.35 803.212 1487.18 826.542 1490.76 827.256C1503.16 830.351 1513.65 838.683 1525.33 844.634C1569.92 867.488 1621.89 791.309 1679.59 694.895C1709.39 645.379 1752.31 603.718 1801.66 569.2C1919.68 487.545 2004.32 444.695 2125.2 500.639C2146.66 493.259 2423.94 657.044 2434.19 677.279L2521.69 742.745" stroke="#0067F9" stroke-width="0.75" stroke-miterlimit="10" stroke-dasharray="0.5 0.5"/>
<path opacity="0.8615" d="M-257.585 186.638L23.514 138.312C25.8982 139.741 69.0525 128.314 71.6752 128.79C128.419 116.173 186.594 103.08 241.193 90.4625C297.222 77.6073 352.059 69.0372 404.75 65.2282C500.119 58.0864 606.931 74.5125 704.207 123.553C770.012 156.881 845.115 167.832 913.78 156.643C916.403 159.5 995.559 139.979 997.466 143.312C1082.34 128.314 1160.07 192.114 1172.47 277.577C1176.04 301.145 1174.37 326.141 1167.7 351.613C1158.64 386.37 1154.59 450.884 1154.82 513.256C1155.06 609.908 1207.75 697.99 1287.39 743.697C1293.11 751.791 1420.9 815.115 1430.2 811.544C1433.54 810.354 1482.89 832.969 1486.95 833.921C1499.34 837.016 1510.07 845.11 1521.75 851.062C1567.05 873.677 1619.75 799.641 1678.87 704.655C1709.15 655.853 1752.79 614.669 1802.85 579.912C1922.54 497.068 2000.51 450.408 2121.86 504.686C2145.94 496.354 2421.8 658.71 2433.48 681.326L2520.74 748.22" stroke="#0067F9" stroke-width="0.75" stroke-miterlimit="10" stroke-dasharray="0.5 0.5"/>
<path opacity="0.8462" d="M-259.254 192.352L22.3219 148.073C25.183 149.739 67.622 138.551 70.7215 139.265C127.704 127.124 186.117 113.792 240.478 100.461C296.268 86.8917 350.628 77.1313 403.081 72.1321C497.734 63.0858 605.024 78.0835 702.777 127.124C768.581 160.452 843.207 171.879 911.396 161.642C914.257 164.737 992.221 145.93 994.366 149.739C1078.29 135.932 1155.06 200.208 1167.22 285.671C1170.56 309.239 1169.13 334.235 1162.69 359.47C1153.63 394.464 1150.06 458.74 1150.29 520.874C1151.01 617.526 1203.46 705.37 1282.38 751.077C1288.82 759.885 1415.66 822.733 1425.91 818.686C1429.49 817.257 1478.6 839.397 1482.89 840.587C1495.29 843.682 1506.26 851.776 1517.94 857.49C1563.96 880.105 1617.6 807.735 1677.92 714.654C1708.92 666.566 1753.02 625.858 1803.57 591.101C1925.16 507.304 1995.98 456.598 2117.81 508.971C2144.51 499.686 2418.93 660.615 2431.81 685.611L2518.83 753.934" stroke="#0067F9" stroke-width="0.75" stroke-miterlimit="10" stroke-dasharray="0.5 0.5"/>
<path opacity="0.8308" d="M-260.923 198.065L21.3683 157.595C24.4677 159.262 66.6683 148.549 69.7678 149.263C126.989 137.598 185.641 124.029 239.762 109.983C295.315 95.4618 349.436 84.9872 401.174 78.7977C494.873 67.6089 603.117 81.1783 701.346 130.457C766.912 163.547 841.3 175.688 909.012 166.403C912.111 169.974 989.121 151.882 991.505 155.929C1074.48 143.55 1150.29 207.826 1161.98 293.289C1165.31 316.857 1163.65 341.853 1157.45 367.087C1148.63 402.32 1145.05 466.358 1145.76 528.254C1146.72 624.906 1199.17 712.511 1277.37 758.457C1284.53 768.217 1410.17 830.351 1421.62 825.828C1425.67 824.399 1474.31 845.825 1479.08 847.015C1491.71 850.11 1502.44 857.966 1514.36 863.917C1561.09 886.533 1615.69 816.067 1676.97 724.652C1708.68 677.279 1753.5 637.047 1804.52 602.052C1928.03 517.303 1991.68 462.787 2113.99 513.256C2143.32 503.019 2416.31 662.281 2430.38 690.134L2517.17 759.885" stroke="#0067F9" stroke-width="0.75" stroke-miterlimit="10" stroke-dasharray="0.5 0.5"/>
<path opacity="0.8154" d="M-262.592 203.541L20.1761 167.118C23.514 169.022 65.2378 158.548 68.8141 159.262C126.274 148.073 185.164 134.266 239.285 119.268C294.599 104.032 348.244 92.3671 399.505 85.2253C492.489 72.1321 601.209 84.035 699.916 133.551C765.482 166.642 839.392 179.021 906.866 171.165C910.204 174.974 986.022 157.595 988.644 162.118C1070.66 151.168 1145.53 215.682 1156.73 301.145C1159.83 324.713 1158.4 349.709 1152.2 374.705C1143.38 410.414 1140.04 473.976 1141 535.395C1142.43 632.048 1194.88 719.415 1272.13 765.599C1279.76 776.311 1404.69 837.493 1417.09 832.731C1421.38 831.065 1469.54 852.252 1475.02 853.443C1487.66 856.537 1498.63 864.393 1510.55 870.107C1557.99 892.722 1613.55 823.923 1676.01 734.175C1708.44 687.515 1753.74 647.759 1805.24 612.527C1930.65 526.825 1987.15 468.263 2109.94 516.827C2142.13 505.638 2413.45 663.471 2428.95 693.705L2515.5 764.885" stroke="#0067F9" stroke-width="0.75" stroke-miterlimit="10" stroke-dasharray="0.5 0.5"/>
<path opacity="0.8" d="M-264.261 209.254L18.9841 176.878C22.5604 178.783 63.8073 168.784 67.8605 169.736C125.559 159.024 184.687 144.978 238.57 129.266C293.646 113.078 347.052 100.699 397.598 92.129C489.628 76.8932 599.302 87.3678 698.247 137.122C763.575 169.974 837.485 183.068 904.243 176.164C907.82 180.211 982.684 163.785 985.307 168.546C1066.61 159.024 1140.04 223.538 1151.01 309.239C1154.11 332.807 1152.44 357.565 1146.48 382.799C1137.9 418.746 1134.8 482.308 1135.99 543.251C1137.9 639.903 1190.11 727.033 1266.64 773.455C1274.99 785.12 1398.97 845.587 1412.32 840.349C1417.09 838.445 1464.77 859.156 1470.49 860.584C1483.13 863.679 1494.34 871.297 1506.5 877.01C1554.9 899.388 1611.16 832.731 1674.82 744.649C1707.96 698.942 1753.74 659.424 1805.72 624.191C1933.03 537.538 1982.39 475.166 2105.65 521.826C2140.46 509.685 2410.35 666.09 2427.04 698.704L2513.35 771.312" stroke="#0067F9" stroke-width="0.75" stroke-miterlimit="10" stroke-dasharray="0.5 0.5"/>
<path opacity="0.7846" d="M-265.93 214.73L18.0304 186.163C21.8451 188.305 62.8536 178.545 66.9068 179.497C124.843 169.26 184.21 154.977 237.855 138.313C292.692 121.41 345.622 107.841 395.929 98.3187C487.244 81.1784 597.395 90.2246 697.055 139.979C762.382 172.831 835.816 186.401 902.336 180.449C906.389 184.972 979.823 169.022 982.922 174.26C1063.27 165.927 1135.75 230.918 1146.24 316.619C1149.1 340.187 1147.67 364.945 1141.71 390.179C1133.13 426.364 1130.27 489.688 1131.7 550.393C1133.84 647.045 1186.06 733.937 1262.11 780.596C1271.17 792.976 1394.2 852.966 1408.5 847.253C1413.51 845.349 1460.96 865.346 1467.16 866.774C1479.79 869.631 1491 877.487 1503.4 882.962C1552.51 905.339 1609.73 840.349 1674.58 753.934C1708.44 708.941 1754.93 669.899 1807.38 634.428C1936.61 546.822 1978.81 480.404 2102.55 525.159C2139.98 512.066 2408.44 667.042 2426.33 702.275L2512.4 776.073" stroke="#0067F9" stroke-width="0.75" stroke-miterlimit="10" stroke-dasharray="0.5 0.5"/>
<path opacity="0.7692" d="M-267.599 220.443L16.8382 195.923C20.8913 198.304 61.423 188.781 65.953 189.733C124.128 179.973 183.733 165.451 237.378 148.073C291.977 130.457 344.668 115.697 394.259 105.222C484.86 85.9395 595.487 93.5574 695.624 143.55C760.713 176.402 833.908 190.209 899.951 185.686C904.243 190.448 976.723 175.45 979.822 180.925C1059.22 174.021 1130.74 239.012 1140.76 324.713C1143.62 348.281 1141.95 373.039 1136.23 398.035C1127.88 434.696 1125.26 497.544 1126.69 558.011C1129.31 654.663 1181.29 741.555 1256.63 787.976C1266.41 801.308 1388.48 860.346 1403.74 854.395C1409.22 852.252 1456.19 872.011 1462.86 873.44C1475.5 876.296 1486.94 883.914 1499.34 889.628C1549.17 912.005 1607.35 848.681 1673.39 764.17C1707.96 719.891 1754.93 681.564 1807.86 645.617C1938.99 557.059 1974.04 486.831 2098.26 529.682C2138.31 515.637 2405.11 668.947 2424.66 706.798L2510.49 782.025" stroke="#0067F9" stroke-width="0.75" stroke-miterlimit="10" stroke-dasharray="0.5 0.5"/>
<path opacity="0.7538" d="M-269.268 226.156L15.6462 205.683C20.1762 208.064 59.9926 199.018 64.9994 199.97C123.413 190.686 183.256 175.926 236.663 157.833C291.023 139.265 343.237 123.791 392.352 112.126C482.237 90.7006 593.58 96.8902 693.955 147.121C758.806 179.497 831.525 194.018 897.329 190.447C901.859 195.447 973.147 181.163 976.485 187.115C1054.93 181.639 1125.5 246.867 1135.27 332.569C1138.13 356.137 1136.47 380.895 1130.74 405.891C1122.4 442.79 1120.01 505.4 1121.92 565.629C1124.78 662.281 1176.76 748.935 1251.38 795.594C1261.64 809.878 1382.76 868.202 1399.21 861.775C1404.93 859.632 1451.66 878.677 1458.81 880.343C1471.69 883.2 1483.13 890.818 1495.53 896.293C1546.07 918.433 1605.2 857.251 1672.2 774.169C1707.25 730.604 1755.17 692.752 1808.58 656.806C1941.62 567.295 1969.51 493.021 2094.44 533.967C2137.12 518.969 2402.48 670.851 2423.23 711.083L2508.82 787.738" stroke="#0067F9" stroke-width="0.75" stroke-miterlimit="10" stroke-dasharray="0.5 0.5"/>
<path opacity="0.7385" d="M-270.937 231.632L14.454 214.967C19.2224 217.586 59.0388 211.397 63.8073 209.968C120.075 191.4 182.541 186.162 235.709 167.118C289.831 147.835 341.807 131.171 390.206 118.315C479.138 94.9856 591.196 99.5087 692.286 149.977C757.137 182.591 829.617 197.589 894.945 194.971C899.713 200.446 970.047 186.876 973.624 193.304C1051.35 189.257 1120.49 254.485 1130.03 340.425C1132.65 363.993 1130.98 388.751 1125.5 413.509C1117.39 450.646 1115.01 513.018 1117.15 573.009C1120.49 669.661 1172.23 756.076 1246.14 802.974C1257.11 818.21 1377.27 875.82 1394.68 868.916C1400.88 866.536 1447.13 885.342 1454.52 887.009C1467.39 889.866 1478.84 897.245 1491.48 902.721C1542.74 924.86 1602.82 865.345 1671.01 784.167C1706.77 741.555 1755.17 703.941 1809.05 667.756C1944 577.294 1964.98 499.21 2090.15 538.252C2135.69 522.302 2399.38 672.756 2421.32 715.368L2506.67 793.452" stroke="#0067F9" stroke-width="0.75" stroke-miterlimit="10" stroke-dasharray="0.5 0.5"/>
<path opacity="0.7231" d="M-272.605 237.345L13.5004 224.728C18.5073 227.585 57.8468 221.871 63.0921 220.205C119.598 202.35 182.303 196.637 235.471 176.878C289.354 156.881 340.853 139.027 389.014 125.219C477.23 99.7469 590.004 103.08 691.333 153.548C755.707 185.686 827.71 201.16 892.561 199.97C897.568 205.683 966.71 192.828 970.525 199.732C1047.3 196.875 1115.48 262.579 1124.54 348.519C1127.17 372.087 1125.5 396.607 1120.01 421.603C1111.91 459.216 1110 521.35 1112.15 580.865C1115.96 677.517 1167.7 763.694 1240.66 810.83C1252.34 826.78 1371.55 883.676 1390.15 876.534C1396.58 874.154 1442.36 892.246 1450.47 893.912C1463.34 896.769 1475.02 904.149 1487.66 909.386C1539.64 931.526 1600.67 873.916 1670.05 794.166C1706.53 752.267 1755.41 715.13 1810.01 678.707C1946.86 587.292 1960.69 505.162 2086.34 542.299C2134.5 525.397 2396.76 674.184 2420.13 719.653L2505.24 799.165" stroke="#0067F9" stroke-width="0.75" stroke-miterlimit="10" stroke-dasharray="0.5 0.5"/>
<path opacity="0.7077" d="M-274.274 242.82L12.3082 234.25C17.5535 237.107 56.4162 231.87 61.8999 230.203C118.883 212.825 181.587 206.873 234.517 186.162C288.162 165.213 339.422 146.406 386.868 131.647C474.369 104.032 587.619 105.936 689.425 156.643C754.037 189.019 825.802 204.969 890.176 204.731C895.421 210.682 963.61 198.779 967.663 205.921C1043.48 204.493 1110.72 270.435 1119.3 356.137C1121.68 379.704 1120.01 404.225 1115.01 428.983C1107.14 466.834 1105.23 528.73 1107.85 588.006C1111.91 684.658 1163.65 770.598 1235.89 817.972C1248.05 834.874 1366.54 891.056 1386.09 883.438C1393.01 880.819 1438.31 898.436 1446.89 900.34C1459.77 903.197 1471.69 910.339 1484.32 915.814C1537.25 937.715 1599.24 882.009 1669.58 804.164C1706.77 762.98 1756.36 726.319 1811.2 689.896C1949.96 597.529 1956.64 511.351 2082.76 546.822C2133.54 529.206 2394.38 676.326 2418.93 724.176L2503.81 805.116" stroke="#0067F9" stroke-width="0.75" stroke-miterlimit="10" stroke-dasharray="0.5 0.5"/>
<path opacity="0.6923" d="M-275.943 248.534L11.1162 243.773C16.5999 246.868 54.9857 242.106 60.9463 240.202C118.167 223.538 181.111 217.11 233.802 195.685C287.208 174.021 337.992 154.263 384.961 138.074C471.508 108.555 585.712 108.793 687.995 159.738C752.369 191.876 823.895 208.302 888.031 209.254C893.753 215.444 960.511 204.255 964.802 211.873C1039.67 211.873 1105.95 277.815 1114.05 363.755C1116.44 387.323 1114.77 411.843 1109.76 436.601C1101.89 474.69 1100.46 536.348 1103.09 595.386C1107.62 692.038 1159.12 777.74 1230.88 825.114C1243.76 842.968 1361.3 898.436 1381.8 890.342C1388.95 887.485 1434.02 904.863 1442.84 906.768C1455.95 909.625 1467.87 916.766 1480.75 922.004C1534.39 943.905 1597.33 889.866 1668.86 813.925C1706.77 773.455 1756.84 737.27 1812.15 700.609C1952.82 607.289 1952.34 517.303 2078.95 550.631C2132.35 532.063 2391.76 677.755 2417.5 727.985L2502.14 810.354" stroke="#0067F9" stroke-width="0.75" stroke-miterlimit="10" stroke-dasharray="0.5 0.5"/>
<path opacity="0.6769" d="M-277.852 254.247L9.92321 253.533C15.6453 256.866 53.7928 252.343 59.9917 250.676C117.69 234.726 180.633 227.823 233.086 205.445C286.254 183.068 336.799 162.118 383.291 144.978C469.123 113.316 583.804 112.364 686.563 163.309C750.937 195.447 821.987 212.349 885.645 214.253C891.606 220.919 957.41 210.444 961.702 218.3C1035.85 219.491 1100.94 285.909 1108.57 371.849C1110.72 395.417 1109.05 419.937 1104.28 444.457C1096.65 483.022 1095.22 544.204 1098.32 602.766C1103.32 699.418 1154.58 785.12 1225.63 832.493C1239.22 851.3 1355.81 905.816 1377.27 897.484C1384.9 894.627 1429.48 911.291 1438.78 913.195C1451.9 915.814 1463.82 922.956 1476.93 928.193C1531.29 950.095 1595.19 897.96 1667.67 823.447C1706.29 783.691 1757.08 748.22 1812.87 711.083C1955.44 616.812 1947.81 522.778 2074.89 554.44C2130.92 534.919 2388.89 679.183 2416.07 732.032L2500.47 815.591" stroke="#0067F9" stroke-width="0.75" stroke-miterlimit="10" stroke-dasharray="0.5 0.5"/>
<path opacity="0.6615" d="M-279.521 259.723L8.73113 263.056C14.9301 266.388 52.3623 262.341 58.7997 260.675C116.736 245.439 179.918 238.059 232.371 214.968C285.3 191.638 335.369 169.736 381.384 151.644C466.501 117.839 581.658 115.459 684.895 166.642C749.03 198.541 819.841 216.158 883.023 219.253C889.222 226.156 953.834 216.396 958.602 224.728C1031.8 227.347 1095.69 293.765 1103.09 379.943C1105.23 403.51 1103.56 428.031 1098.79 452.551C1091.16 491.354 1090.21 552.298 1093.31 610.622C1098.56 707.274 1159.35 781.311 1220.15 840.349C1237.56 857.251 1349.85 913.91 1372.5 905.101C1380.37 902.007 1424.72 918.433 1434.49 920.337C1447.61 922.956 1459.76 930.098 1472.88 935.097C1527.95 956.76 1592.8 906.53 1666.48 833.922C1705.82 795.118 1757.08 759.885 1813.34 722.748C1957.83 627.286 1943.04 529.682 2070.6 559.201C2129.49 538.728 2385.79 681.326 2414.17 736.793L2498.33 821.781" stroke="#0067F9" stroke-width="0.75" stroke-miterlimit="10" stroke-dasharray="0.5 0.5"/>
<path opacity="0.6462" d="M-281.189 265.436L7.53901 272.578C13.9764 276.149 50.9317 272.34 57.8459 270.673C116.259 255.914 179.441 248.296 231.655 224.49C284.346 200.446 334.176 177.354 379.476 158.071C463.878 122.124 579.751 118.316 683.464 169.736C747.361 201.636 817.934 219.491 880.877 223.776C887.314 230.918 950.973 221.871 955.741 230.679C1027.98 234.726 1090.93 301.383 1098.08 387.322C1099.99 410.89 1098.32 435.172 1093.79 459.931C1086.4 499.21 1085.44 559.915 1088.78 617.764C1094.5 714.416 1154.82 788.452 1215.14 847.491C1233.26 865.107 1344.61 921.289 1368.21 912.005C1376.56 908.91 1420.19 924.622 1430.44 926.765C1443.55 929.383 1455.95 936.287 1469.06 941.524C1524.85 963.188 1590.66 914.862 1665.52 843.682C1705.58 805.593 1757.31 770.836 1814.3 733.461C1960.69 637.047 1938.75 535.395 2066.79 563.248C2128.3 541.823 2383.17 682.992 2412.74 740.84L2496.66 827.256" stroke="#0067F9" stroke-width="0.75" stroke-miterlimit="10" stroke-dasharray="0.5 0.5"/>
<path opacity="0.6308" d="M-282.858 270.911L6.3469 282.1C13.0227 285.909 49.7396 282.576 56.8923 280.672C115.544 266.626 178.964 258.532 230.94 233.774C283.393 209.016 332.984 184.972 377.569 164.499C461.017 126.409 577.605 121.172 681.795 172.831C745.93 204.731 816.026 223.3 878.493 228.537C885.169 236.155 947.635 227.823 952.642 236.869C1023.93 242.344 1085.68 309.001 1092.6 395.178C1094.5 418.746 1092.83 443.028 1088.3 467.548C1081.15 507.066 1080.44 567.533 1084.01 625.144C1089.97 721.796 1150.05 796.07 1209.9 854.871C1228.73 873.439 1339.12 928.669 1363.68 919.147C1372.26 915.814 1415.66 931.288 1426.39 933.192C1439.5 935.811 1451.9 942.715 1465.25 947.714C1521.99 969.377 1588.75 922.718 1664.57 853.442C1705.34 816.067 1757.79 781.787 1815.01 744.173C1963.31 646.807 1934.22 541.347 2062.97 567.057C2127.11 544.68 2380.55 684.42 2411.54 744.649L2495.47 832.493" stroke="#0067F9" stroke-width="0.75" stroke-miterlimit="10" stroke-dasharray="0.5 0.5"/>
<path opacity="0.6154" d="M-284.527 276.625L5.39322 291.861C12.3074 295.67 48.5475 292.813 55.9386 291.147C115.067 277.815 178.487 269.245 230.463 243.773C282.677 218.062 331.792 192.828 375.9 171.403C458.633 131.409 575.936 124.743 680.365 176.402C744.023 208.064 814.119 227.109 876.109 233.536C883.261 241.392 944.297 233.774 949.781 243.297C1020.35 249.962 1080.91 317.095 1087.35 403.273C1089.02 426.84 1087.35 451.122 1083.06 475.643C1075.91 515.398 1075.43 575.627 1079.24 633C1085.68 729.652 1145.53 803.926 1204.65 862.727C1224.2 882.01 1333.64 936.763 1359.15 926.765C1368.21 923.194 1411.13 938.192 1422.33 940.334C1435.68 942.953 1448.08 949.619 1461.43 954.618C1518.89 976.043 1586.6 931.526 1663.62 863.679C1705.1 827.018 1758.03 793.214 1815.73 755.6C1965.93 657.282 1929.93 547.775 2058.92 571.819C2125.68 548.489 2377.69 686.563 2409.87 749.649L2493.56 838.921" stroke="#0067F9" stroke-width="0.75" stroke-miterlimit="10" stroke-dasharray="0.5 0.5"/>
<path opacity="0.6" d="M-286.196 282.1L4.20116 301.145C11.3538 305.192 47.117 302.573 54.9849 300.907C114.352 288.29 178.01 279.243 229.748 252.819C281.724 226.394 330.6 200.208 374.231 177.83C456.248 135.694 574.029 127.6 679.173 179.259C742.831 210.92 812.45 230.203 873.963 237.821C881.354 245.915 941.436 239.25 946.92 249.01C1016.54 257.104 1076.14 324.237 1082.11 410.652C1083.77 434.22 1082.11 458.502 1077.81 482.784C1070.9 523.016 1070.66 582.769 1074.71 639.903C1081.63 736.555 1141 811.068 1199.89 869.392C1220.15 889.627 1328.63 943.667 1355.1 933.192C1364.4 929.621 1407.07 943.905 1418.76 946.286C1432.11 948.904 1444.74 955.332 1458.1 960.331C1516.27 981.756 1584.94 938.906 1662.9 872.963C1705.1 837.254 1758.75 803.688 1816.92 765.837C1969.03 666.566 1925.88 553.012 2055.34 575.151C2124.72 550.869 2375.3 687.515 2408.68 752.981L2492.13 843.682" stroke="#0067F9" stroke-width="0.75" stroke-miterlimit="10" stroke-dasharray="0.5 0.5"/>
<path opacity="0.5846" d="M-287.865 287.814L3.00902 310.905C10.4001 315.19 45.9249 312.81 53.7928 311.143C113.398 299.24 177.295 289.718 228.794 262.579C280.532 235.441 328.931 208.064 372.086 184.496C453.387 140.217 571.883 130.694 677.265 182.591C740.685 214.015 810.066 234.012 871.102 242.582C878.731 251.152 937.621 244.963 943.582 255.199C1012.25 264.722 1070.66 332.093 1076.38 418.27C1078.05 441.838 1076.38 466.12 1072.09 490.402C1065.18 530.872 1065.18 590.387 1069.47 647.283C1076.86 743.935 1135.99 818.448 1194.16 876.772C1215.14 897.722 1322.43 951.047 1350.33 940.334C1360.1 936.525 1402.3 950.571 1414.23 952.951C1427.58 955.57 1440.21 961.998 1453.8 966.997C1512.69 988.422 1582.55 947.476 1661.47 882.962C1704.39 847.967 1758.51 815.115 1817.16 776.787C1971.18 676.564 1920.87 559.201 2050.81 579.436C2123.05 554.202 2371.73 689.42 2406.77 757.267L2489.98 849.396" stroke="#0067F9" stroke-width="0.75" stroke-miterlimit="10" stroke-dasharray="0.5 0.5"/>
<path opacity="0.5692" d="M-289.534 293.527L1.8169 320.666C9.68481 324.951 44.4944 323.047 52.8391 321.38C112.921 309.953 176.818 300.193 228.317 272.34C279.816 244.487 327.978 215.92 370.417 191.4C450.765 144.978 569.975 134.266 675.835 186.162C739.255 217.586 808.158 237.821 868.956 247.582C876.824 256.39 934.76 251.153 940.721 261.627C1008.43 272.578 1065.89 339.949 1071.14 426.364C1072.57 449.932 1070.9 473.976 1066.85 498.258C1060.17 538.966 1060.41 598.481 1064.7 654.901C1072.33 751.553 1131.22 826.304 1188.92 884.39C1210.61 906.292 1316.95 958.903 1345.8 947.714C1355.81 943.905 1397.54 957.236 1410.17 959.617C1423.52 961.998 1436.4 968.425 1450.23 973.424C1510.07 994.612 1580.64 955.808 1660.75 892.96C1704.38 858.68 1758.98 826.304 1818.35 787.976C1974.28 686.801 1916.82 565.391 2047.23 583.721C2122.1 557.535 2369.34 691.324 2405.58 761.552L2488.55 855.109" stroke="#0067F9" stroke-width="0.75" stroke-miterlimit="10" stroke-dasharray="0.5 0.5"/>
<path opacity="0.5538" d="M-291.203 299.003L0.863227 329.95C8.96956 334.473 43.3023 332.807 52.1239 331.379C112.444 320.666 176.58 310.429 227.84 281.624C279.101 252.819 326.785 223.538 368.986 197.827C448.619 149.263 568.306 137.122 674.881 189.257C738.063 220.443 806.728 241.392 867.049 252.343C875.155 261.389 931.899 256.866 938.098 267.817C1005.09 279.958 1061.36 347.805 1066.37 434.22C1067.8 457.788 1066.13 481.832 1062.32 506.114C1055.88 547.298 1056.12 606.337 1060.89 662.519C1068.99 759.171 1127.64 833.922 1184.63 892.008C1207.04 914.862 1312.42 966.759 1342.22 955.094C1352.71 951.047 1393.96 964.14 1407.07 966.521C1420.66 968.901 1433.54 975.329 1447.37 980.09C1507.93 1001.28 1579.45 964.14 1660.75 903.197C1705.1 869.869 1760.41 837.731 1820.02 799.165C1977.85 697.038 1913.24 571.819 2044.14 588.245C2121.62 561.106 2367.44 693.229 2404.87 766.313L2487.6 861.061" stroke="#0067F9" stroke-width="0.75" stroke-miterlimit="10" stroke-dasharray="0.5 0.5"/>
<path opacity="0.5385" d="M-292.872 304.716L-0.328912 339.711C8.01584 344.472 42.1101 343.044 50.9317 341.615C111.491 331.617 175.865 320.904 226.887 291.385C277.909 261.865 325.355 231.394 366.84 204.493C445.758 153.786 566.161 140.217 672.973 192.59C736.155 223.776 804.582 245.201 864.426 257.104C873.009 266.627 928.561 262.818 934.999 274.006C1001.04 287.576 1056.36 355.423 1060.89 442.076C1062.08 465.644 1060.41 489.688 1056.83 513.732C1050.39 555.154 1050.87 613.955 1055.88 669.661C1064.46 766.313 1122.64 841.302 1179.14 899.15C1202.27 922.718 1306.7 973.901 1337.45 961.998C1348.18 957.951 1389.19 970.568 1402.54 972.949C1416.13 975.329 1429.25 981.519 1443.07 986.28C1504.35 1007.23 1577.07 972.234 1659.32 912.72C1704.38 880.105 1760.18 848.444 1820.5 809.64C1980.24 706.56 1908.47 577.294 2039.84 591.816C2119.95 563.725 2364.34 694.419 2403.2 769.884L2485.21 866.536" stroke="#0067F9" stroke-width="0.75" stroke-miterlimit="10" stroke-dasharray="0.5 0.5"/>
<path opacity="0.5231" d="M-294.541 310.191L-1.52094 349.233C7.06223 353.994 40.6797 353.042 49.9781 351.614C111.014 342.329 175.388 331.141 226.172 300.669C276.955 270.435 323.924 238.773 364.933 210.921C442.897 158.071 564.015 143.074 671.305 195.685C734.248 226.871 802.198 248.534 861.803 261.627C870.625 271.388 924.985 268.293 931.661 279.958C996.75 294.955 1050.87 363.04 1055.16 449.456C1056.36 473.024 1054.69 497.068 1051.11 521.112C1044.91 562.772 1045.63 621.335 1050.63 676.803C1059.45 773.455 1117.39 848.443 1173.42 906.054C1197.26 930.574 1300.74 981.042 1332.45 968.663C1343.65 964.378 1384.19 976.519 1398.01 978.9C1411.6 981.28 1424.72 987.47 1438.78 992.231C1500.77 1013.18 1574.45 979.852 1657.65 922.242C1703.67 890.342 1759.94 859.156 1820.5 820.352C1982.15 716.32 1903.23 583.245 2035.08 595.862C2117.81 566.819 2360.76 696.085 2400.81 773.931L2483.07 871.535" stroke="#0067F9" stroke-width="0.75" stroke-miterlimit="10" stroke-dasharray="0.5 0.5"/>
<path opacity="0.5077" d="M-296.21 315.905L-2.47465 358.755C6.34695 363.754 39.4875 363.04 49.2628 361.85C110.537 353.28 175.149 341.615 225.933 310.429C276.479 279.243 323.209 246.629 363.741 217.824C440.989 162.833 562.823 146.644 670.589 199.256C733.294 230.203 801.006 252.581 860.134 266.864C869.194 276.863 922.601 274.72 929.277 286.861C993.412 303.287 1046.58 371.372 1050.39 458.026C1051.35 481.594 1049.68 505.638 1046.34 529.444C1040.38 571.58 1041.33 629.905 1046.58 684.896C1055.88 781.548 1113.58 856.537 1168.89 914.147C1193.21 939.382 1295.73 989.374 1328.63 976.519C1340.08 971.996 1380.37 983.899 1394.68 986.279C1408.27 988.66 1421.62 994.611 1435.68 999.373C1498.39 1020.32 1573.25 988.898 1657.42 932.716C1704.15 901.53 1760.89 870.821 1821.93 831.779C1985.72 726.795 1899.41 589.673 2031.98 600.385C2117.57 570.628 2358.85 697.99 2400.1 778.692L2482.12 877.724" stroke="#0067F9" stroke-width="0.75" stroke-miterlimit="10" stroke-dasharray="0.5 0.5"/>
<path opacity="0.4923" d="M-297.879 321.618L-3.66674 368.516C5.39328 373.753 38.057 373.277 48.0707 372.087C109.583 363.993 174.434 352.09 224.979 320.19C275.286 288.29 321.54 254.486 361.595 224.728C438.128 167.594 560.439 149.978 668.682 202.827C731.387 233.774 798.622 256.628 857.273 271.864C866.572 282.339 918.786 280.672 925.939 293.289C989.12 310.906 1041.33 379.467 1044.67 466.12C1045.63 489.688 1043.96 513.494 1040.62 537.538C1034.66 579.913 1035.85 637.999 1041.33 692.753C1051.11 789.405 1108.33 864.632 1163.41 922.004C1188.44 948.19 1290.01 997.231 1323.86 984.137C1335.79 979.614 1375.36 990.803 1390.15 993.422C1403.97 995.802 1417.33 1001.75 1431.39 1006.28C1495.05 1026.99 1570.63 997.707 1655.99 943.191C1703.43 912.958 1760.89 882.724 1822.4 843.206C1988.11 737.27 1894.88 596.339 2027.68 604.909C2115.9 574.199 2355.75 700.133 2398.43 783.215L2480.21 883.676" stroke="#0067F9" stroke-width="0.75" stroke-miterlimit="10" stroke-dasharray="0.5 0.5"/>
<path opacity="0.4769" d="M-299.548 327.093L-4.85882 378.038C4.67804 383.275 36.8649 383.275 47.117 382.085C108.868 374.705 173.957 362.326 224.264 329.474C274.333 296.86 320.348 261.865 359.688 230.918C435.267 171.641 558.531 152.596 667.013 205.683C729.479 236.393 796.714 259.723 854.889 276.149C864.426 286.861 915.687 286.147 922.839 299.002C985.306 318.047 1036.33 386.608 1039.19 473.5C1039.9 497.068 1038.47 520.874 1035.14 544.918C1029.41 587.53 1030.84 645.379 1036.57 699.894C1046.82 796.546 1103.8 871.773 1158.16 929.145C1183.91 956.284 1284.52 1004.61 1319.33 991.041C1331.49 986.279 1370.83 997.23 1386.09 999.611C1399.92 1001.99 1413.27 1007.7 1427.58 1012.23C1491.95 1032.94 1568.72 1005.32 1655.03 952.475C1703.19 922.956 1761.13 893.198 1823.12 853.681C1990.73 746.792 1890.35 601.814 2023.63 608.718C2114.47 577.056 2352.89 701.561 2396.76 787.024L2478.3 888.913" stroke="#0067F9" stroke-width="0.75" stroke-miterlimit="10" stroke-dasharray="0.5 0.5"/>
<path opacity="0.4615" d="M-301.217 332.807L-6.05102 387.798C3.72426 393.274 35.4343 393.512 45.9248 392.322C108.153 385.656 173.242 372.801 223.549 339.234C273.379 305.906 318.917 269.721 357.78 237.821C432.645 176.402 556.385 155.929 665.582 209.254C728.049 239.964 794.807 263.77 852.505 281.148C862.28 292.099 912.349 292.099 919.74 305.43C981.252 325.903 1031.08 394.702 1033.71 481.356C1034.42 504.924 1032.75 528.73 1029.65 552.536C1024.17 595.624 1025.6 652.997 1031.56 707.274C1042.05 803.926 1098.79 879.391 1152.68 936.525C1179.14 964.616 1278.8 1012.23 1314.57 998.182C1327.2 993.421 1366.06 1003.66 1381.8 1006.28C1395.63 1008.66 1409.22 1014.13 1423.76 1018.89C1488.85 1039.37 1566.58 1013.89 1653.84 962.712C1702.72 934.145 1761.13 904.625 1823.83 864.869C1993.35 757.028 1885.82 608.003 2019.58 613.003C2113.04 580.388 2350.03 703.465 2395.09 791.309L2476.39 894.627" stroke="#0067F9" stroke-width="0.75" stroke-miterlimit="10" stroke-dasharray="0.5 0.5"/>
<path opacity="0.4462" d="M-302.886 338.282L-7.00465 397.083C3.00905 402.558 34.2423 401.13 45.2097 402.32C107.676 408.272 173.004 383.037 223.072 348.519C272.664 314.238 317.964 277.101 356.35 244.249C430.26 180.449 554.716 159.024 664.39 212.349C726.618 242.82 793.138 267.341 850.598 285.909C860.85 297.336 909.726 298.05 917.356 311.62C977.915 333.521 1026.79 402.32 1029.18 489.212C1029.89 512.78 1028.22 536.586 1025.12 560.392C1019.64 603.718 1021.55 660.853 1027.51 714.892C1038.47 811.544 1094.74 887.009 1148.15 943.905C1175.09 972.71 1274.03 1019.61 1310.99 1005.32C1323.86 1000.33 1362.49 1010.32 1378.7 1012.94C1392.53 1015.08 1406.36 1020.8 1420.9 1025.32C1486.71 1045.79 1565.62 1022.23 1653.84 972.472C1703.43 944.619 1762.56 915.576 1825.5 875.582C1996.93 766.789 1882.25 613.955 2016.48 617.05C2112.8 583.483 2348.12 704.894 2394.62 795.594L2475.68 900.102" stroke="#0067F9" stroke-width="0.75" stroke-miterlimit="10" stroke-dasharray="0.5 0.5"/>
<path opacity="0.4308" d="M-304.555 343.996L-8.19673 406.843C2.0554 412.557 33.0502 411.366 44.256 412.557C106.961 418.746 172.527 393.512 222.357 358.279C271.71 323.285 316.533 284.957 354.442 250.915C427.638 184.972 552.809 162.118 662.722 215.682C724.95 246.153 790.992 270.911 847.975 290.67C858.466 302.335 906.15 303.764 914.018 317.809C973.623 340.901 1021.55 410.176 1023.45 497.068C1023.93 520.636 1022.26 544.442 1019.4 568.009C1014.15 611.812 1016.06 668.708 1022.5 722.272C1033.94 818.924 1089.97 894.389 1142.66 951.285C1170.32 981.042 1268.07 1027.23 1306.22 1012.47C1319.57 1007.23 1357.48 1016.99 1374.17 1019.37C1388.24 1021.51 1402.07 1026.99 1416.61 1031.51C1483.37 1051.75 1563 1030.32 1652.41 982.232C1702.72 955.094 1762.32 926.527 1825.74 886.533C1999.07 776.787 1894.41 686.801 2011.95 621.097C2103.5 570.152 2344.79 706.56 2392.47 799.641L2473.29 905.577" stroke="#0067F9" stroke-width="0.75" stroke-miterlimit="10" stroke-dasharray="0.5 0.5"/>
<path opacity="0.4154" d="M-306.224 349.709L-9.38891 416.604C1.10163 422.555 31.6196 421.603 43.0638 422.793C105.769 429.459 172.05 403.987 221.642 368.04C270.756 332.331 315.341 292.813 352.535 257.818C425.015 189.495 550.663 165.213 661.291 219.015C723.28 249.486 789.085 274.72 845.59 295.432C856.319 307.335 903.05 309.715 911.156 323.999C970.046 348.519 1016.78 417.794 1018.21 504.924C1018.68 528.492 1017.02 552.059 1014.15 575.865C1009.15 619.906 1011.29 676.564 1017.73 729.89C1029.65 826.542 1085.2 902.245 1137.42 958.903C1165.79 989.612 1262.59 1035.08 1301.69 1019.85C1315.28 1014.61 1352.95 1023.65 1370.12 1026.27C1384.18 1028.42 1398.01 1033.89 1412.8 1038.18C1480.27 1058.41 1561.09 1038.65 1651.45 992.469C1702.48 966.283 1762.8 938.192 1826.69 897.722C2001.93 787.024 1874.86 648.473 2008.13 625.62C2114.23 607.289 2342.16 708.702 2391.04 804.164L2471.63 911.529" stroke="#0067F9" stroke-width="0.75" stroke-miterlimit="10" stroke-dasharray="0.5 0.5"/>
<path opacity="0.4" d="M-307.893 355.184L-10.5809 425.888C0.148038 431.839 30.1892 431.363 42.1102 432.554C105.054 439.457 171.573 413.985 220.926 377.086C269.803 340.663 313.911 299.955 350.628 264.008C422.154 193.78 548.756 168.308 659.622 222.109C721.373 252.343 786.939 278.053 843.207 300.193C854.174 312.572 899.712 315.428 908.057 330.188C965.994 356.137 1011.77 425.65 1012.72 512.542C1012.96 536.109 1011.53 559.677 1008.91 583.245C1003.9 627.524 1006.29 683.944 1013.2 736.793C1025.6 833.445 1080.67 909.148 1132.65 965.806C1161.5 997.468 1257.58 1041.99 1297.64 1026.51C1311.7 1021.04 1348.9 1029.84 1366.54 1032.46C1380.61 1034.61 1394.68 1039.84 1409.46 1044.37C1477.65 1064.36 1559.42 1046.75 1650.98 1001.99C1702.95 976.519 1763.51 948.904 1827.89 908.196C2005.03 796.546 1871.04 653.235 2004.8 629.191C2113.52 609.67 2339.78 709.655 2390.32 807.973L2470.67 916.766" stroke="#0067F9" stroke-width="0.75" stroke-miterlimit="10" stroke-dasharray="0.5 0.5"/>
<path opacity="0.3846" d="M-309.562 360.898L-11.5347 435.649C-0.328854 441.838 29.2354 441.6 41.3949 443.028C104.577 450.17 171.335 424.698 220.449 387.084C269.087 349.709 312.957 308.287 349.197 270.912C420.008 198.542 547.087 171.641 658.43 225.68C720.181 255.914 785.27 282.1 841.061 305.192C852.266 317.809 896.851 321.618 905.196 336.616C962.179 363.993 1006.76 433.506 1007.48 520.636C1007.72 544.204 1006.05 567.771 1003.66 591.339C998.896 636.094 1001.52 692.038 1008.43 744.649C1021.07 841.302 1076.14 917.004 1127.4 973.663C1156.97 1006.28 1252.1 1050.08 1293.11 1034.13C1307.41 1028.65 1344.37 1036.75 1362.25 1039.6C1376.56 1041.75 1390.62 1046.98 1405.4 1051.27C1474.31 1071.27 1557.28 1055.55 1649.55 1012.47C1702.24 987.946 1763.27 960.569 1828.36 919.861C2007.42 807.259 1866.51 659.186 2000.5 634.19C2111.85 613.479 2336.68 712.273 2388.42 812.973L2468.53 923.194" stroke="#0067F9" stroke-width="0.75" stroke-miterlimit="10" stroke-dasharray="0.5 0.5"/>
<path opacity="0.3692" d="M-311.23 366.373L-12.7268 445.171C-1.28252 451.598 27.8049 451.598 40.2028 453.027C103.623 460.407 170.619 434.934 219.496 396.369C267.895 358.279 311.288 315.667 347.051 277.339C416.909 202.826 544.941 174.497 656.761 228.775C718.274 258.77 783.124 285.671 838.438 309.715C850.121 322.57 893.275 327.093 902.096 342.567C958.126 371.134 1001.76 441.124 1002 528.254C1002 551.583 1000.56 575.389 998.18 598.719C993.65 643.712 996.273 699.418 1003.43 751.791C1016.54 848.443 1071.14 924.384 1121.92 980.566C1152.2 1014.13 1246.38 1056.98 1288.34 1040.8C1303.12 1035.08 1339.6 1042.94 1357.96 1045.56C1372.26 1047.7 1386.33 1052.7 1401.35 1056.98C1471.21 1076.74 1554.89 1063.17 1648.36 1021.51C1701.76 997.707 1763.51 970.806 1828.84 929.86C2009.8 816.305 1861.74 663.471 1996.21 637.285C2110.18 615.145 2333.58 712.988 2386.51 816.067L2466.38 927.717" stroke="#0067F9" stroke-width="0.75" stroke-miterlimit="10" stroke-dasharray="0.5 0.5"/>
<path opacity="0.3538" d="M-312.899 372.087L-13.9189 454.693C-2.23621 461.121 26.6128 461.597 39.2492 463.025C102.908 470.643 170.143 445.171 219.019 405.891C267.418 367.088 310.096 323.285 345.382 284.005C414.286 207.35 543.034 177.592 655.33 232.108C716.843 262.103 781.217 289.242 836.292 314.715C848.213 328.046 890.414 333.283 899.235 348.995C954.549 378.991 997.227 448.98 996.988 536.348C996.988 559.677 995.319 583.483 993.173 606.813C988.882 652.044 991.743 707.75 999.134 759.647C1012.72 856.299 1066.85 932.24 1117.15 988.422C1147.91 1022.94 1241.13 1065.08 1284.29 1048.41C1299.31 1042.7 1335.31 1050.08 1354.38 1052.7C1368.69 1054.84 1382.99 1059.84 1398.25 1063.89C1468.82 1083.65 1553.7 1071.98 1648.12 1031.99C1702.24 1009.13 1764.47 982.471 1830.51 941.286C2013.38 826.78 1858.4 668.947 1993.11 642.046C2109.7 618.716 2331.67 715.368 2386.03 820.828L2465.66 933.907" stroke="#0067F9" stroke-width="0.75" stroke-miterlimit="10" stroke-dasharray="0.5 0.5"/>
<path opacity="0.3385" d="M-314.568 377.562L-15.1109 464.216C-3.18985 470.881 25.1823 471.596 38.0571 473.024C101.954 480.88 169.427 455.408 218.065 415.176C266.226 375.42 308.665 330.664 343.475 290.432C411.664 211.397 540.888 180.687 653.661 235.203C714.936 264.96 779.071 292.813 833.67 319.238C845.829 332.807 886.838 338.759 895.898 354.947C950.258 386.37 991.743 456.598 991.266 543.728C991.266 567.057 989.597 590.625 987.451 613.955C983.16 659.662 986.498 714.892 993.889 766.551C1007.96 863.203 1061.84 939.144 1111.43 995.326C1142.9 1030.8 1235.17 1072.22 1279.28 1055.08C1294.78 1049.13 1330.3 1056.03 1349.61 1058.89C1363.92 1060.79 1378.46 1065.79 1393.72 1070.08C1465.01 1089.6 1550.84 1080.08 1646.45 1041.51C1701.29 1019.37 1764.23 993.421 1830.51 951.999C2015.29 836.54 1853.16 673.946 1988.34 645.855C2107.56 621.097 2328.1 716.559 2383.65 824.876L2463.04 939.144" stroke="#0067F9" stroke-width="0.75" stroke-miterlimit="10" stroke-dasharray="0.5 0.5"/>
<path opacity="0.3231" d="M-316.237 383.275L-16.0646 473.976C-3.90514 480.88 23.9902 481.832 37.3418 483.498C101.477 491.592 169.189 466.12 217.588 425.174C265.511 384.704 307.473 338.758 341.806 297.336C409.041 216.158 539.219 184.02 652.469 238.773C713.744 268.531 777.641 296.86 831.524 324.237C843.922 338.044 883.977 344.71 893.275 361.374C946.681 393.988 987.213 464.454 986.259 551.821C986.021 575.151 984.59 598.719 982.445 622.049C978.392 667.994 981.729 722.986 989.359 774.407C1003.9 871.059 1057.31 947.238 1106.42 1003.18C1138.37 1039.6 1229.93 1080.07 1274.99 1062.7C1290.72 1056.51 1326.01 1063.17 1345.8 1065.79C1360.34 1067.7 1374.89 1072.46 1390.15 1076.74C1462.15 1096.26 1549.17 1088.65 1645.73 1051.75C1701.29 1030.56 1764.71 1004.85 1831.46 963.188C2018.39 847.253 1849.11 679.421 1984.53 650.378C2106.36 624.191 2325.47 718.701 2382.22 829.399L2461.37 945.095" stroke="#0067F9" stroke-width="0.75" stroke-miterlimit="10" stroke-dasharray="0.5 0.5"/>
<path opacity="0.3077" d="M-317.906 388.989L-17.2568 483.498C-4.85886 490.402 22.798 491.83 36.3881 493.497C100.762 501.829 168.712 476.357 217.112 434.696C264.796 393.512 306.281 346.376 340.137 304.002C406.657 220.681 537.312 187.115 651.039 242.106C712.075 271.864 775.733 300.431 829.378 328.998C842.014 343.281 880.877 350.661 890.414 367.563C942.867 401.606 982.445 472.31 981.014 559.677C980.776 583.007 979.107 606.575 977.199 629.905C973.385 676.326 976.961 730.842 984.829 782.025C999.849 878.677 1052.78 954.856 1101.66 1010.8C1134.08 1048.18 1224.92 1087.93 1271.17 1070.08C1287.39 1063.89 1322.2 1070.08 1342.46 1072.7C1357 1074.6 1371.55 1079.36 1387.05 1083.41C1460 1102.69 1547.74 1097.22 1645.26 1061.98C1701.76 1041.51 1765.66 1016.51 1832.89 974.377C2021.72 857.489 1845.29 684.897 1981.19 654.663C2105.65 627.048 2323.33 720.605 2381.26 833.684L2460.18 950.809" stroke="#0067F9" stroke-width="0.75" stroke-miterlimit="10" stroke-dasharray="0.5 0.5"/>
<path opacity="0.2923" d="M-319.575 394.464L-18.4488 493.021C-5.57404 500.163 21.3676 501.591 35.196 503.495C99.8083 512.065 167.997 486.593 216.158 443.981C263.604 402.082 304.851 353.756 337.991 310.429C403.796 224.966 535.166 190.209 649.37 245.201C710.167 274.72 779.071 295.67 826.756 333.759C842.014 345.9 877.539 356.375 887.315 373.753C939.052 409.224 977.438 479.927 975.531 567.533C975.054 590.863 973.623 614.431 971.716 637.523C968.14 684.182 971.716 738.46 979.822 789.405C995.32 886.057 1047.77 962.236 1096.17 1017.94C1129.31 1056.27 1219.2 1095.31 1266.4 1076.98C1282.86 1070.55 1317.19 1076.27 1338.17 1079.12C1352.71 1081.03 1367.5 1085.55 1382.99 1089.6C1456.67 1108.88 1545.6 1105.31 1644.06 1071.5C1701.29 1051.98 1765.66 1027.23 1833.37 985.089C2024.11 867.25 1840.52 689.896 1976.9 658.71C2103.74 629.667 2320.23 722.034 2379.59 837.969L2458.27 956.522" stroke="#0067F9" stroke-width="0.75" stroke-miterlimit="10" stroke-dasharray="0.5 0.5"/>
<path opacity="0.2769" d="M-321.244 400.178L-19.4025 502.781C-6.28933 510.161 20.4139 511.827 34.4808 513.732C99.093 522.54 167.758 497.068 215.681 453.741C262.889 410.89 303.659 361.612 336.561 317.095C401.173 229.489 533.497 193.304 648.178 248.296C708.975 277.815 777.402 299.717 824.848 338.282C840.345 350.899 874.678 362.088 884.692 379.705C935.476 416.604 972.669 487.545 970.524 574.913C970.047 598.243 968.616 621.811 966.709 644.903C963.132 691.8 967.186 746.078 975.53 796.546C991.266 893.198 1043.72 969.615 1091.4 1025.08C1125.02 1064.36 1213.95 1102.45 1262.35 1083.88C1279.28 1077.46 1313.14 1082.69 1334.35 1085.31C1348.9 1087.22 1363.92 1091.74 1379.42 1095.79C1453.8 1114.83 1543.69 1113.4 1643.35 1081.27C1701.29 1062.46 1766.37 1038.18 1834.56 995.802C2027.21 877.01 1836.47 694.895 1973.56 662.519C2103.03 632.047 2318.08 723.462 2378.64 841.778L2457.08 961.759" stroke="#0067F9" stroke-width="0.75" stroke-miterlimit="10" stroke-dasharray="0.5 0.5"/>
<path opacity="0.2615" d="M-323.151 405.653L-20.833 512.066C-7.48136 519.445 18.745 521.588 33.2887 523.731C98.1394 532.777 167.043 507.542 214.966 463.025C261.935 419.461 302.467 368.992 334.653 323.523C398.55 233.774 531.351 196.161 646.509 251.391C707.068 280.672 775.018 303.526 822.225 342.805C837.961 355.899 871.34 367.564 881.354 385.894C931.184 423.984 967.424 495.163 964.801 582.769C964.086 606.099 962.656 629.429 960.987 652.521C957.649 699.894 961.702 753.696 970.285 803.688C986.498 900.34 1038.47 976.757 1085.68 1032.23C1119.78 1072.46 1207.99 1109.83 1257.34 1090.79C1274.51 1084.12 1308.13 1089.12 1329.82 1091.74C1344.61 1093.64 1359.39 1097.93 1375.12 1101.98C1450.23 1121.02 1541.3 1121.5 1641.92 1090.79C1700.57 1072.93 1766.14 1048.89 1834.8 1006.28C2029.35 886.533 1831.46 699.656 1969.03 666.328C2101.12 634.428 2314.74 724.891 2376.49 845.587L2454.7 966.997" stroke="#0067F9" stroke-width="0.75" stroke-miterlimit="10" stroke-dasharray="0.5 0.5"/>
<path opacity="0.2462" d="M-324.82 411.366L-22.025 521.826C-8.43492 529.444 17.3147 531.824 32.0968 533.967C97.1859 543.251 166.328 518.017 214.012 472.786C260.743 428.507 300.798 376.848 332.508 330.426C395.451 238.297 529.206 199.494 644.602 254.961C705.161 284.243 772.396 308.049 819.365 348.043C835.101 361.374 867.526 373.991 878.017 392.56C926.893 432.078 962.179 503.495 959.318 591.101C958.603 614.431 957.172 637.761 955.742 660.853C952.642 708.464 956.934 762.028 965.517 811.782C982.207 908.434 1033.71 984.851 1080.44 1040.32C1115.25 1081.5 1202.51 1118.16 1252.82 1098.64C1270.46 1091.74 1303.6 1096.26 1325.77 1099.12C1340.55 1101.02 1355.57 1105.31 1371.31 1109.12C1447.37 1127.92 1539.4 1130.54 1640.97 1101.5C1700.33 1084.36 1766.61 1060.79 1835.52 1018.18C2031.98 897.483 1826.93 705.608 1964.98 671.327C2099.69 637.761 2311.88 727.509 2375.07 850.586L2453.03 973.424" stroke="#0067F9" stroke-width="0.75" stroke-miterlimit="10" stroke-dasharray="0.5 0.5"/>
<path opacity="0.2308" d="M-326.489 417.08L-22.9787 531.349C-9.15025 539.205 16.3609 541.823 31.3814 543.966C96.7089 553.488 166.09 528.254 213.535 482.308C260.028 437.315 299.606 384.466 330.839 336.854C392.828 242.583 527.298 202.589 643.409 258.057C703.73 287.1 770.488 312.096 817.457 352.566C833.431 366.373 864.903 379.467 875.393 398.511C923.316 439.458 957.649 511.114 954.311 598.719C953.596 622.049 951.927 645.379 950.735 668.233C947.874 716.083 952.404 769.408 961.225 818.924C978.391 915.576 1029.41 991.993 1075.67 1047.46C1110.95 1089.6 1197.5 1125.31 1248.76 1105.55C1266.64 1098.64 1299.55 1102.69 1321.96 1105.55C1336.74 1107.45 1352 1111.5 1367.97 1115.31C1444.74 1134.11 1537.73 1138.64 1640.25 1111.02C1700.33 1094.83 1767.09 1071.51 1836.71 1028.65C2035.08 907.006 1822.88 710.369 1961.4 675.136C2098.5 640.142 2309.5 728.7 2373.87 854.633L2451.6 978.9" stroke="#0067F9" stroke-width="0.75" stroke-miterlimit="10" stroke-dasharray="0.5 0.5"/>
<path opacity="0.2154" d="M-328.158 422.555L-24.1708 540.871C-10.1039 548.727 14.9303 551.821 30.4277 553.964C95.9937 563.724 165.613 538.49 212.82 491.592C259.074 445.647 298.175 391.846 329.17 343.281C390.444 246.867 525.629 205.445 641.979 261.151C702.3 290.194 768.342 316.143 815.073 357.089C831.286 371.372 858.466 387.084 872.294 404.463C911.872 453.741 952.642 518.493 948.827 606.099C947.874 629.429 946.443 652.758 945.251 675.612C942.628 723.938 947.158 776.787 956.219 826.066C973.862 922.718 1024.65 999.373 1070.18 1054.36C1105.95 1097.45 1191.78 1132.45 1243.99 1112.21C1262.35 1105.07 1294.54 1108.88 1317.67 1111.5C1332.45 1113.17 1347.95 1117.21 1363.92 1121.26C1441.41 1139.83 1535.58 1146.49 1639.06 1120.54C1699.86 1105.31 1767.09 1082.46 1837.19 1039.13C2037.7 916.528 1818.11 715.13 1957.11 678.707C2096.83 642.046 2306.16 729.89 2371.97 858.204L2449.69 983.661" stroke="#0067F9" stroke-width="0.75" stroke-miterlimit="10" stroke-dasharray="0.5 0.5"/>
<path opacity="0.2" d="M-329.827 428.269L-25.3629 550.631C-10.8191 558.725 13.7383 562.058 29.2357 564.439C95.04 574.437 164.898 549.203 212.105 501.591C258.12 454.931 296.983 399.94 327.263 350.423C387.583 251.867 523.484 209.016 640.31 264.96C700.392 293.765 765.958 320.666 812.45 362.326C828.902 377.086 855.366 393.274 869.195 411.129C908.296 461.121 947.397 526.825 943.344 614.431C942.39 637.761 940.96 661.091 939.768 683.706C937.383 732.271 942.152 785.12 951.45 833.922C969.57 930.336 1019.88 1007.23 1065.18 1062.22C1101.42 1106.5 1186.53 1140.54 1239.7 1119.83C1258.3 1112.69 1290.25 1116.02 1313.85 1118.64C1328.87 1120.31 1344.13 1124.35 1360.34 1128.16C1438.55 1146.73 1533.68 1155.54 1638.34 1130.78C1700.09 1116.26 1767.81 1093.88 1838.38 1050.56C2040.8 927.003 1814.06 720.844 1953.54 683.468C2095.64 645.379 2303.78 732.271 2371.01 862.965L2448.5 989.851" stroke="#0067F9" stroke-width="0.75" stroke-miterlimit="10" stroke-dasharray="0.5 0.5"/>
<path opacity="0.1846" d="M-331.496 433.744L-26.5549 560.154C-11.7728 568.486 12.3077 571.819 28.282 574.437C94.3248 584.912 164.421 559.439 211.39 510.875C257.167 463.502 295.553 407.32 325.355 356.851C384.722 256.152 521.576 211.873 638.88 268.055C698.723 296.86 763.812 324.713 810.305 367.088C826.756 382.323 852.505 398.987 866.334 417.318C904.958 468.263 942.629 534.443 938.099 622.287C936.906 645.617 935.476 668.709 934.522 691.562C932.138 740.365 937.383 792.976 946.682 841.54C965.279 937.954 1015.11 1014.85 1059.93 1069.84C1096.65 1115.07 1180.81 1148.16 1235.17 1127.21C1254.25 1119.83 1285.72 1122.69 1309.56 1125.54C1324.58 1127.21 1340.08 1131.02 1356.29 1134.83C1435.45 1153.16 1531.29 1164.11 1637.15 1141.02C1699.62 1127.45 1767.81 1105.31 1838.86 1061.74C2043.18 937.24 1809.29 726.319 1949.24 687.753C2093.97 647.998 2300.68 733.937 2369.1 867.488L2446.35 995.802" stroke="#0067F9" stroke-width="0.75" stroke-miterlimit="10" stroke-dasharray="0.5 0.5"/>
<path opacity="0.1692" d="M-333.165 439.457L-27.5085 569.676C-12.488 578.008 11.1158 581.817 27.3284 584.436C93.6096 595.148 163.944 569.676 210.675 520.398C256.213 472.31 294.122 414.937 323.448 363.279C381.861 260.437 519.431 214.968 637.211 271.15C697.055 299.955 761.428 328.522 807.682 371.611C824.372 387.084 849.168 404.463 863.235 423.269C901.62 474.928 937.622 542.061 932.615 629.905C931.423 653.235 929.992 676.326 929.039 698.942C926.893 748.22 932.138 800.355 941.675 848.681C960.749 945.095 1010.1 1021.99 1054.45 1076.98C1091.64 1123.16 1175.09 1155.54 1230.64 1134.11C1249.95 1126.73 1281.19 1129.12 1305.51 1131.73C1320.53 1133.4 1336.26 1137.21 1352.48 1140.78C1432.35 1159.11 1529.38 1171.97 1636.2 1150.54C1699.38 1137.92 1768.28 1116.02 1839.81 1072.22C2046.04 946.762 1804.76 731.08 1945.43 691.562C2092.54 650.14 2298.06 735.365 2367.67 871.297L2444.68 1001.04" stroke="#0067F9" stroke-width="0.75" stroke-miterlimit="10" stroke-dasharray="0.5 0.5"/>
<path opacity="0.1538" d="M-334.834 445.171L-28.7008 579.437C-13.4418 588.007 9.92349 592.054 26.3746 594.91C92.8942 605.861 163.705 580.389 210.198 530.396C255.736 481.356 293.168 423.032 322.017 370.42C379.477 265.436 517.761 218.539 636.018 274.959C695.624 303.526 759.521 333.283 805.536 376.848C822.464 392.798 846.306 410.652 860.373 429.935C898.282 482.308 932.853 550.155 927.369 637.999C925.939 661.329 924.747 684.421 923.793 707.036C921.886 756.553 927.369 808.45 937.145 856.538C956.695 952.952 1005.57 1029.84 1049.44 1084.84C1087.11 1132.21 1169.84 1163.63 1226.35 1141.73C1246.14 1134.11 1276.66 1136.26 1301.69 1138.88C1316.95 1140.54 1332.45 1144.11 1348.9 1147.92C1429.49 1166.01 1527.48 1181.01 1635.24 1161.02C1699.14 1149.11 1768.52 1127.69 1840.52 1083.88C2048.9 956.998 1800.47 736.556 1941.61 695.847C2091.34 652.759 2295.43 737.27 2366.48 875.582L2443.25 1006.75" stroke="#0067F9" stroke-width="0.75" stroke-miterlimit="10" stroke-dasharray="0.5 0.5"/>
<path opacity="0.1385" d="M-336.503 450.646L-29.8929 588.959C-14.3955 597.529 8.49301 602.052 25.4209 604.909C92.179 616.097 163.229 590.625 209.482 539.68C254.782 489.926 291.738 430.411 320.11 376.848C376.854 269.483 515.854 221.395 634.588 278.053C694.193 306.62 757.375 337.092 803.39 381.609C820.557 398.035 843.684 416.366 857.512 436.125C894.944 489.212 927.846 558.011 922.363 645.855C920.932 669.185 919.502 692.276 918.786 714.892C917.117 764.884 922.601 816.305 932.615 864.155C952.642 960.569 1001.04 1037.46 1044.43 1092.22C1082.58 1140.54 1164.6 1171.01 1222.06 1148.87C1242.09 1141.02 1272.37 1142.92 1297.88 1145.54C1313.14 1147.21 1328.87 1150.54 1345.32 1154.35C1426.62 1172.2 1525.81 1189.34 1634.53 1171.01C1699.14 1160.06 1769 1139.11 1841.48 1094.83C2051.53 967.473 1795.7 742.269 1937.8 700.608C2089.91 655.853 2292.81 739.412 2365.05 880.343L2441.58 1012.94" stroke="#0067F9" stroke-width="0.75" stroke-miterlimit="10" stroke-dasharray="0.5 0.5"/>
<path opacity="0.1231" d="M-338.172 456.36L-31.0849 598.481C-15.3491 607.289 7.30096 612.05 24.2289 614.907C91.2254 626.334 162.513 600.862 208.529 549.203C253.59 498.734 290.069 438.267 317.964 383.276C373.755 273.768 513.47 224.49 632.681 281.148C692.048 309.477 754.753 341.139 800.53 386.132C817.696 403.034 840.107 421.841 854.174 442.076C891.368 496.116 922.601 565.391 916.641 653.473C914.972 676.803 913.78 699.894 913.064 722.272C911.634 772.502 917.356 823.685 927.37 871.059C947.874 967.473 996.035 1044.6 1038.71 1099.12C1077.34 1148.4 1158.64 1178.16 1217.05 1155.54C1237.56 1147.68 1267.36 1148.87 1293.11 1151.49C1308.37 1153.16 1324.34 1156.49 1341.03 1160.06C1423.29 1177.92 1523.19 1197.2 1633.1 1180.06C1698.43 1170.06 1769 1149.35 1841.95 1104.83C2053.91 976.519 1790.93 746.554 1933.51 703.703C2088.01 657.282 2289.71 740.126 2363.14 883.676L2439.44 1017.7" stroke="#0067F9" stroke-width="0.75" stroke-miterlimit="10" stroke-dasharray="0.5 0.5"/>
<path opacity="0.1077" d="M-339.841 461.835L-32.0387 608.004C-15.826 617.05 6.10878 622.049 23.5135 624.906C90.7484 636.571 162.275 611.336 208.29 558.487C253.113 507.305 289.354 445.647 316.772 389.703C371.609 278.053 512.278 227.347 631.727 284.243C691.094 312.572 752.845 344.948 798.86 390.655C816.265 408.034 837.723 427.079 851.79 448.028C888.507 502.781 918.309 573.009 911.872 661.091C910.203 684.421 909.011 707.274 908.296 729.89C907.104 780.358 913.064 831.541 923.316 878.439C944.298 974.853 991.982 1051.98 1034.42 1106.5C1073.52 1156.97 1153.87 1185.77 1213.48 1162.68C1234.22 1154.59 1263.78 1155.54 1290.01 1158.16C1305.27 1159.59 1321.48 1162.92 1338.17 1166.49C1421.14 1184.11 1522.23 1205.53 1633.1 1190.06C1699.14 1180.77 1770.19 1160.54 1843.62 1116.02C2057.49 986.756 1787.12 752.029 1930.41 708.227C2087.29 660.139 2287.8 742.269 2362.67 888.199L2438.72 1023.42" stroke="#0067F9" stroke-width="0.75" stroke-miterlimit="10" stroke-dasharray="0.5 0.5"/>
<path opacity="0.0923077" d="M-341.51 467.548L-33.2307 617.764C-16.7796 626.81 4.67837 632.047 22.56 635.38C90.0333 647.283 161.798 622.049 207.575 568.486C252.16 516.589 287.923 453.741 314.865 396.845C368.748 283.053 510.132 230.918 630.297 288.052C689.425 316.143 750.699 349.709 796.476 395.893C814.12 413.747 834.862 433.268 848.691 454.693C885.169 510.399 913.303 581.103 906.389 669.185C904.72 692.514 903.289 715.368 903.051 737.746C902.097 788.69 908.058 839.397 918.548 886.057C940.006 982.471 987.213 1059.6 1029.18 1114.12C1068.75 1165.54 1148.39 1193.39 1208.95 1170.06C1230.17 1161.97 1259.25 1162.44 1285.96 1165.06C1301.45 1166.49 1317.43 1169.82 1334.36 1173.39C1418.04 1191.01 1520.09 1214.34 1632.14 1200.29C1698.9 1191.96 1770.67 1171.97 1844.58 1127.21C2060.35 996.992 1782.83 757.743 1926.59 712.511C2085.86 662.519 2285.18 744.173 2361.24 892.484L2437.06 1029.13" stroke="#0067F9" stroke-width="0.75" stroke-miterlimit="10" stroke-dasharray="0.5 0.5"/>
<path opacity="0.0769231" d="M-343.179 473.024L-34.4229 627.048C-17.7333 636.332 3.48619 641.808 21.3678 645.141C89.0795 657.282 161.083 632.047 206.621 577.532C250.968 524.921 286.254 460.883 312.719 403.034C365.648 287.1 507.986 233.536 628.389 290.908C687.517 318.999 748.077 353.28 793.615 400.416C811.258 418.746 831.286 438.743 845.353 460.645C881.354 517.303 907.819 588.721 900.666 676.803C898.759 700.132 897.567 722.986 897.328 745.364C896.613 796.546 902.812 847.015 913.541 893.436C935.476 989.85 982.206 1066.98 1023.69 1121.5C1063.75 1174.11 1142.66 1201.01 1204.18 1177.2C1225.63 1168.87 1254.25 1169.11 1281.43 1171.49C1296.92 1172.92 1313.14 1176.01 1330.06 1179.58C1414.46 1196.96 1517.46 1222.43 1630.47 1210.06C1697.95 1202.68 1770.19 1182.92 1844.58 1137.92C2062.26 1006.75 1777.34 762.742 1921.83 716.558C2083.71 664.9 2281.6 745.602 2358.85 896.769L2434.43 1034.84" stroke="#0067F9" stroke-width="0.75" stroke-miterlimit="10" stroke-dasharray="0.5 0.5"/>
<path opacity="0.0615385" d="M-344.848 478.737L-35.3765 636.809C-18.4485 646.331 2.29414 652.044 20.6526 655.377C88.6027 667.756 160.844 642.522 206.145 587.292C250.253 533.729 285.062 468.739 311.05 409.7C363.026 291.623 506.079 236.869 626.959 294.241C685.849 322.332 745.693 357.327 791.47 405.177C809.351 423.746 828.663 444.457 842.492 466.834C878.255 524.445 903.051 596.339 895.421 684.659C893.514 707.988 892.322 730.842 892.083 752.982C891.607 804.402 898.044 854.633 908.773 900.816C931.184 997.23 977.438 1074.36 1018.45 1128.88C1058.74 1182.44 1137.18 1208.63 1199.65 1184.35C1221.58 1175.77 1249.72 1175.54 1277.37 1178.16C1292.87 1179.58 1309.32 1182.68 1326.25 1186.01C1411.6 1203.39 1515.56 1231 1629.52 1219.82C1697.71 1213.15 1770.43 1193.87 1845.29 1148.87C2064.88 1016.75 1772.57 767.979 1917.77 720.606C2082.05 667.28 2278.74 747.268 2357.42 900.816L2432.76 1040.32" stroke="#0067F9" stroke-width="0.75" stroke-miterlimit="10" stroke-dasharray="0.5 0.5"/>
<path opacity="0.0461539" d="M-346.517 484.451L-36.5686 646.569C-19.4023 656.092 1.102 662.281 19.4605 665.614C87.649 678.231 160.129 652.997 205.429 597.053C249.299 542.775 283.87 476.595 309.381 416.604C360.642 296.384 504.171 240.202 625.766 297.812C684.418 325.665 743.785 361.85 789.324 410.176C807.205 429.221 825.802 450.408 839.869 473.262C875.394 531.825 898.521 604.433 890.653 692.753C888.507 716.082 887.553 738.936 887.315 761.076C887.076 812.973 893.514 862.727 904.481 908.672C927.37 1005.09 973.147 1082.22 1013.68 1136.5C1054.45 1191.25 1132.17 1216.24 1195.59 1191.72C1217.77 1183.15 1245.66 1182.44 1273.8 1185.06C1289.53 1186.49 1305.74 1189.34 1322.91 1192.68C1408.98 1209.58 1513.89 1239.57 1629.04 1230.05C1697.95 1224.34 1771.38 1205.53 1846.72 1160.06C2068.22 1026.99 1768.52 773.455 1914.67 725.129C2081.33 669.899 2276.84 749.411 2356.71 905.34L2431.81 1046.27" stroke="#0067F9" stroke-width="0.75" stroke-miterlimit="10" stroke-dasharray="0.5 0.5"/>
<path opacity="0.0307692" d="M-348.186 489.926L-37.7608 655.853C-20.356 665.614 -0.328625 672.041 18.5067 675.612C87.1721 688.467 159.652 663.233 204.714 606.337C248.583 551.345 282.201 483.975 307.474 423.031C357.542 300.431 502.264 243.059 624.097 300.907C682.749 328.76 741.401 365.659 786.701 414.937C804.821 434.458 822.702 456.122 836.531 479.69C871.579 539.204 893.275 612.289 884.93 700.609C882.785 723.938 881.593 746.554 881.593 768.693C881.593 820.828 888.268 870.345 899.474 916.052C923.078 1012.23 968.14 1089.6 1008.19 1143.87C1049.44 1199.58 1126.21 1223.86 1191.06 1198.87C1213.71 1190.06 1241.13 1189.11 1269.5 1191.72C1285.24 1193.15 1301.69 1195.77 1318.86 1199.34C1405.64 1216.24 1511.5 1248.14 1627.85 1240.29C1697.71 1235.53 1771.38 1216.96 1847.2 1171.25C2070.6 1037.22 1763.51 778.93 1910.38 729.414C2079.42 672.518 2273.74 751.077 2354.8 909.625L2429.66 1051.98" stroke="#0067F9" stroke-width="0.75" stroke-miterlimit="10" stroke-dasharray="0.5 0.5"/>
<path opacity="0.0153846" d="M-349.854 495.64L-38.9528 665.614C-21.0711 675.612 -1.759 682.04 17.5531 685.849C86.457 699.18 159.176 673.708 203.999 616.097C247.63 560.154 281.009 491.831 305.566 429.697C354.92 305.192 500.118 246.391 622.429 304.24C680.842 331.855 738.778 369.706 784.317 419.699C802.437 439.696 819.603 461.835 833.432 485.879C868.241 546.346 888.269 620.145 879.447 708.465C877.063 731.794 876.109 754.41 876.109 776.55C876.347 828.923 883.262 878.439 894.468 923.67C918.548 1019.85 963.133 1097.22 1002.95 1151.49C1044.43 1208.39 1120.73 1231.72 1186.53 1206.25C1209.42 1197.44 1236.36 1196.01 1265.45 1198.39C1281.19 1199.82 1297.88 1202.44 1315.28 1205.77C1402.78 1222.67 1509.83 1256.71 1627.14 1250.05C1697.71 1246.24 1772.1 1227.91 1848.39 1182.2C2073.7 1047.22 1759.46 784.167 1906.81 733.699C2078.23 674.898 2271.11 752.982 2353.85 914.148L2428.47 1057.94" stroke="#0067F9" stroke-width="0.75" stroke-miterlimit="10" stroke-dasharray="0.5 0.5"/>
</g>
</svg>
