<?xml version="1.0" encoding="utf-8"?>
<!-- Generator: Adobe Illustrator 27.2.0, SVG Export Plug-In . SVG Version: 6.00 Build 0)  -->
<svg version="1.1" id="Layer_1" xmlns="http://www.w3.org/2000/svg" xmlns:xlink="http://www.w3.org/1999/xlink" x="0px" y="0px"
	 viewBox="0 0 1443 139.5" style="enable-background:new 0 0 1443 139.5;" xml:space="preserve">
<style type="text/css">
	.st0{fill:#FBFCFD;stroke:#000000;stroke-width:3;stroke-miterlimit:10;}
	.st1{clip-path:url(#SVGID_00000007386786587575742650000013018982168237409715_);}
	.st2{fill:#FFFFFF;}
	.st3{fill:#231F20;}
	.st4{fill:#F1F2F2;}
</style>
<g>
	<path class="st0" d="M1.5,139.5v-5.7c0-13.8,11.2-25,24.9-25l57.1-0.2c13.8,0,25-11.3,24.9-25.1l-0.2-57c0-13.8,11.2-25.1,25-25.1
		h1283.2c13.8,0,25,11.2,25,25v113"/>
	<g>
		<defs>
			<rect id="SVGID_1_" x="24.5" y="14.4" width="60.8" height="81"/>
		</defs>
		<clipPath id="SVGID_00000032618698149079962610000007574061029065449623_">
			<use xlink:href="#SVGID_1_"  style="overflow:visible;"/>
		</clipPath>
		<g style="clip-path:url(#SVGID_00000032618698149079962610000007574061029065449623_);">
			<path class="st2" d="M30.7,15.8h29.6c1.3,0,2.5,0.5,3.4,1.4l9.2,9.3l9.5,9.4c0.9,0.9,1.4,2.1,1.4,3.4v49.8c0,1.3-0.5,2.5-1.4,3.4
				c-0.9,0.9-2.1,1.4-3.4,1.4H49.4c-0.6,0-1.2-0.1-1.8-0.4c-0.6-0.2-1.1-0.6-1.6-1L36.6,83l-9.3-9.2c-0.9-0.9-1.4-2.1-1.4-3.4
				l0-49.8c0-1.3,0.5-2.5,1.4-3.4C28.3,16.3,29.5,15.8,30.7,15.8L30.7,15.8z"/>
			<path class="st3" d="M30.7,14.4l29.6,0c1.6,0,3.2,0.6,4.4,1.8l9.2,9.3l9.5,9.4c0.6,0.6,1,1.3,1.3,2c0.3,0.8,0.5,1.6,0.5,2.4v49.8
				c0,1.7-0.7,3.2-1.8,4.4c-1.2,1.2-2.8,1.8-4.4,1.8H49.4c-0.8,0-1.6-0.2-2.4-0.5c-0.8-0.3-1.4-0.8-2-1.3L35.6,84l-9.3-9.2
				c-0.6-0.6-1-1.3-1.4-2c-0.3-0.8-0.5-1.6-0.5-2.4l0-49.8c0-1.7,0.7-3.2,1.8-4.4C27.5,15.1,29.1,14.4,30.7,14.4L30.7,14.4z
				 M79,92.5c0.4,0,0.9-0.1,1.3-0.3c0.4-0.2,0.8-0.4,1.1-0.7c0.3-0.3,0.6-0.7,0.7-1.1c0.2-0.4,0.3-0.8,0.3-1.3V39.3
				c0-0.9-0.3-1.7-1-2.4l-9.5-9.4l-9.2-9.3c-0.6-0.6-1.5-1-2.3-1l-29.6,0c-0.9,0-1.7,0.4-2.4,1c-0.6,0.6-1,1.5-1,2.4l0,49.8
				c0,0.4,0.1,0.9,0.2,1.3c0.2,0.4,0.4,0.8,0.7,1.1l9.3,9.2l9.4,9.5c0.3,0.3,0.7,0.6,1.1,0.7c0.4,0.2,0.8,0.2,1.3,0.2H79z"/>
			<path class="st4" d="M48.5,91.4c0,0.1,0,0.2-0.1,0.3c-0.1,0.1-0.2,0.2-0.3,0.2c-0.1,0-0.2,0.1-0.3,0c-0.1,0-0.2-0.1-0.3-0.2
				L37.9,82l-9.8-9.6c-0.1-0.1-0.1-0.2-0.2-0.3s0-0.2,0-0.3c0-0.1,0.1-0.2,0.2-0.3c0.1-0.1,0.2-0.1,0.3-0.1h19.4c0.1,0,0.2,0,0.2,0
				c0.1,0,0.1,0.1,0.2,0.1c0.1,0.1,0.1,0.1,0.1,0.2c0,0.1,0,0.1,0,0.2V91.4z"/>
			<path class="st3" d="M25.9,69.9h19.1c1,0,2,0.4,2.7,1.1c0.7,0.7,1.1,1.7,1.1,2.7v19.9H46V73.8c0-0.3-0.1-0.5-0.3-0.7
				c-0.2-0.2-0.4-0.3-0.7-0.3H25.9V69.9z"/>
			<path class="st4" d="M61.4,18.4c0-0.1,0-0.2,0.1-0.3c0.1-0.1,0.2-0.2,0.3-0.2c0.1,0,0.2-0.1,0.3,0c0.1,0,0.2,0.1,0.3,0.2l9.6,9.8
				l9.8,9.6c0.1,0.1,0.1,0.2,0.2,0.3c0,0.1,0,0.2,0,0.3c0,0.1-0.1,0.2-0.2,0.3c-0.1,0.1-0.2,0.1-0.3,0.1H62c-0.2,0-0.3-0.1-0.4-0.2
				c-0.1-0.1-0.2-0.3-0.2-0.4V18.4z"/>
			<path class="st3" d="M61,16.1h2.9V36c0,0.3,0.1,0.5,0.3,0.7c0.2,0.2,0.4,0.3,0.7,0.3H84v2.9H64.8c-1,0-2-0.4-2.7-1.1
				C61.4,38,61,37,61,36V16.1z"/>
			<path class="st3" d="M67.3,69.4l2-2L41,38.9l-2,2.1L67.3,69.4z"/>
		</g>
	</g>
</g>
</svg>
