<svg width="23" height="29" viewBox="0 0 23 29" fill="none" xmlns="http://www.w3.org/2000/svg">
<path d="M11.5019 12.5196H1.11106C0.86449 12.5333 0.617191 12.522 0.37282 12.4858C0.265224 12.474 0.166433 12.4199 0.0974877 12.3351C0.0285423 12.2503 -0.00511002 12.1414 0.00369772 12.0318C0.00257664 11.9755 0.0139254 11.9196 0.0369033 11.8684C0.0598812 11.8172 0.0938996 11.7719 0.136438 11.7359C0.178977 11.6998 0.228945 11.674 0.282643 11.6602C0.336341 11.6465 0.392394 11.6452 0.446646 11.6565C2.0025 12.043 2.38823 10.8215 2.94929 9.81758C3.4919 8.84372 4.08434 7.89613 4.60111 6.90914C4.90564 6.32745 5.28953 6.00095 5.95948 6.01596C6.86014 6.03473 7.43597 5.62567 7.866 4.76064C8.57471 3.3158 9.44769 1.9554 10.221 0.544335C10.5477 -0.0561178 10.854 -0.206231 11.404 0.309783C12.3877 1.24799 13.4102 2.13929 14.4216 3.04372C15.0454 3.60665 15.1765 4.42101 15.3038 5.14531C15.5991 6.80406 16.4518 7.81544 18.0722 8.12881C19.4804 8.40089 19.9658 9.58866 20.5269 10.6695C20.896 11.375 21.3002 11.8066 22.151 11.6546C22.4759 11.5964 23.0037 11.5082 23.0055 12.0543C23.0055 12.5534 22.5201 12.5159 22.1547 12.5159H11.5019V12.5196ZM13.1832 11.6096C13.0548 11.4249 12.9365 11.2332 12.8288 11.0354C12.0186 9.28656 10.8153 8.53224 8.92538 9.36161C8.67622 9.47232 8.28126 9.56051 8.08563 9.23777C7.85493 8.86249 8.18713 8.61292 8.40676 8.36336C9.38371 7.24877 10.3619 6.13668 11.3413 5.02709C11.5443 4.79629 11.7935 4.59552 11.6643 4.22399C11.3634 3.35145 11.07 2.47517 10.7193 1.44689C9.9054 2.86734 9.10625 4.11703 8.45844 5.44366C8.00996 6.35747 7.43043 6.84159 6.42827 6.81907C6.10344 6.81907 5.69002 6.81907 5.50546 7.1268C4.64172 8.57539 3.81857 10.0503 2.92161 11.6096H13.1832ZM20.1651 11.6452C19.4158 10.6657 19.2977 9.36536 18.0962 9.09328C15.8944 8.59603 14.7834 7.23751 14.3884 5.02146C14.1614 3.74738 13.1371 2.74349 11.8433 2.07361C11.9915 2.6256 12.1733 3.16768 12.3877 3.69671C12.7439 4.44728 12.5871 5.01021 12.0186 5.59752C11.2139 6.41189 10.4905 7.30881 9.58611 8.33709C9.91335 8.31208 10.2384 8.26317 10.5587 8.19073C11.4096 7.89613 11.9854 8.14382 12.4413 8.95443C12.9082 9.72189 13.4158 10.4629 13.962 11.1742C14.1171 11.3919 14.2463 11.649 14.5896 11.649C16.365 11.6396 18.1571 11.6452 20.1559 11.6452H20.1651Z" fill="black"/>
<path d="M10.926 27.512C13.3733 25.416 14.6062 22.6915 14.9679 19.5447C15.0953 18.4339 15.5844 17.7077 16.5958 17.3155C16.736 17.2611 16.856 17.1467 16.9963 17.0922C18.3509 16.5725 19.1778 15.5911 19.5506 14.1725C19.6367 13.9073 19.7447 13.6499 19.8736 13.4032C19.8914 13.3512 19.9198 13.3036 19.9569 13.2635C19.994 13.2234 20.039 13.1917 20.089 13.1705C20.139 13.1492 20.1928 13.1389 20.2469 13.1402C20.3011 13.1415 20.3543 13.1544 20.4033 13.178C20.4556 13.1924 20.5043 13.2184 20.5457 13.254C20.587 13.2897 20.6202 13.3342 20.6428 13.3843C20.6653 13.4345 20.6767 13.4891 20.6762 13.5443C20.6756 13.5994 20.6631 13.6538 20.6395 13.7034C19.9622 15.1089 19.8127 16.8783 18.0113 17.4994C16.4463 18.0386 15.6182 19.1644 15.5272 20.877C15.4921 21.4887 15.2152 22.0816 15.1433 22.6952C14.9015 24.7461 13.3401 25.9602 12.2272 27.4369C10.795 29.3321 10.8301 29.8556 9.76885 27.0935C9.07859 25.2997 8.29236 23.5415 7.63902 21.7383C7.34925 20.952 6.92107 20.4942 6.09239 20.4604C5.30063 20.4266 4.86691 20.0326 4.58268 19.2539C3.95702 17.537 3.21324 15.8651 2.54144 14.165C2.42147 13.8611 2.05789 13.4389 2.58388 13.2043C3.10988 12.9698 3.16525 13.4877 3.29998 13.8123C3.95887 15.4166 4.63621 17.0153 5.25079 18.6384C5.48334 19.2558 5.81371 19.646 6.47074 19.6779C7.47476 19.7267 8.00445 20.2409 8.34773 21.2204C9.00292 23.0968 9.80576 24.9075 10.5514 26.7445C10.6621 27.011 10.7027 27.3243 10.926 27.512Z" fill="#92D327"/>
</svg>
