<svg width="242" height="105" viewBox="0 0 242 105" fill="none" xmlns="http://www.w3.org/2000/svg">
<path d="M171.208 75.0079C170.178 72.261 171.666 69.1777 174.471 68.2247C177.276 67.2156 180.424 68.6732 181.455 71.4201C182.485 74.167 180.997 77.2503 178.192 78.2594C177.562 78.4836 176.99 78.5957 176.36 78.5957C174.127 78.5397 172.009 77.1942 171.208 75.0079ZM68.74 76.8579C65.935 75.7927 64.5611 72.7095 65.6488 69.9625C66.7364 67.2156 69.8849 65.8702 72.6899 66.9353C75.4949 68.0004 76.8687 71.0837 75.7811 73.8307C74.9224 75.9609 72.9188 77.1942 70.7435 77.1942C70.0566 77.1942 69.3697 77.0821 68.74 76.8579ZM82.1925 53.6491C80.2462 51.4067 80.4751 48.0432 82.7077 46.1371C84.9402 44.175 88.3749 44.4553 90.3785 46.6417C92.3248 48.884 92.0958 52.2476 89.8633 54.1537C88.8329 55.0506 87.5735 55.443 86.3141 55.443C84.8257 55.4991 83.2801 54.8824 82.1925 53.6491ZM136.174 43.6144C133.255 42.8856 131.537 39.9705 132.282 37.1115C133.026 34.2524 136.002 32.5706 138.922 33.2994C141.841 34.0282 143.559 36.9433 142.815 39.8024C142.185 42.2129 139.952 43.7826 137.548 43.7826C137.09 43.7826 136.632 43.7265 136.174 43.6144ZM105.148 39.2978C104.461 36.4388 106.292 33.5797 109.212 32.907C112.131 32.2343 115.051 34.0282 115.738 36.8873C116.425 39.7463 114.593 42.6054 111.673 43.2781C111.273 43.3902 110.815 43.3902 110.414 43.3902C107.953 43.4462 105.72 41.7645 105.148 39.2978Z" fill="#8DBD1A"/>
<path d="M216.776 100.123L205.385 99.1137C205.614 96.7031 205.728 94.2926 205.728 91.882C205.728 47.3705 168.748 11.1559 123.296 11.1559C77.8434 11.1559 40.8634 47.3705 40.8634 91.882C40.8634 94.2926 40.9779 96.7031 41.2068 99.1137L29.8151 100.123C29.5862 97.4319 29.4717 94.685 29.4717 91.9381C29.4717 41.26 71.6037 0 123.353 0C175.102 0 217.234 41.26 217.234 91.9381C217.177 94.6289 217.005 97.3759 216.776 100.123Z" fill="#465364"/>
<path d="M103.259 100.179C102.114 97.5439 101.542 94.7409 101.542 91.8818C101.542 80.1093 111.274 70.5791 123.295 70.5791C135.316 70.5791 145.048 80.1093 145.048 91.8818C145.048 94.6288 144.533 97.3196 143.445 99.8423L132.855 95.6378C133.37 94.4606 133.599 93.1712 133.599 91.8818C133.599 86.3319 128.962 81.7911 123.295 81.7911C117.628 81.7911 112.991 86.3319 112.991 91.8818C112.991 93.2273 113.277 94.5727 113.792 95.806L103.259 100.179Z" fill="#465364"/>
<path d="M133.772 85.3226C132.398 85.3226 131.024 84.818 129.936 83.865C127.589 81.7908 127.418 78.259 129.536 75.9606L156.441 46.8095C158.559 44.511 162.165 44.3429 164.512 46.4171C166.859 48.4913 167.031 52.023 164.913 54.3215L138.008 83.4726C136.863 84.7059 135.317 85.3226 133.772 85.3226Z" fill="#465364"/>
<path d="M235.952 104.944H5.82887C2.85215 104.944 0.390625 102.533 0.390625 99.6182C0.390625 96.703 2.85215 94.2925 5.82887 94.2925H235.952C238.929 94.2925 241.391 96.703 241.391 99.6182C241.391 102.533 238.929 104.944 235.952 104.944Z" fill="#465364"/>
</svg>
