<svg width="25" height="25" viewBox="0 0 25 25" fill="none" xmlns="http://www.w3.org/2000/svg">
<path d="M12.59 13.0205C12.4528 13.0205 12.3211 12.9656 12.2241 12.8678C12.127 12.7701 12.0725 12.6375 12.0725 12.4993V0.519804C12.0725 0.451424 12.0859 0.383714 12.1119 0.320557C12.138 0.257399 12.1761 0.200033 12.2242 0.151747C12.2722 0.10346 12.3293 0.0652015 12.3921 0.0391625C12.4549 0.0131235 12.5221 -0.000184393 12.59 1.92976e-06C14.722 0.0016607 16.8177 0.556518 18.6749 1.61108C20.5321 2.66564 22.0883 4.18434 23.1933 6.02075C24.2984 7.85715 24.9151 9.94934 24.984 12.0956C25.0528 14.2418 24.5715 16.3698 23.5865 18.2742C22.6015 20.1786 21.1459 21.7953 19.3601 22.9685C17.5744 24.1416 15.5187 24.8316 13.3912 24.9719C11.2637 25.1122 9.13626 24.6981 7.21389 23.7695C5.29151 22.8409 3.63909 21.4291 2.41592 19.6703C2.3501 19.5574 2.32883 19.4238 2.35634 19.2959C2.38384 19.168 2.45811 19.0552 2.56439 18.9799C2.67067 18.9046 2.80118 18.8724 2.92999 18.8895C3.0588 18.9067 3.17648 18.972 3.25966 19.0726C4.36766 20.6704 5.86177 21.9574 7.60088 22.812C9.33999 23.6666 11.2667 24.0605 13.199 23.9566C15.1313 23.8527 17.0054 23.2545 18.6443 22.2183C20.2832 21.1821 21.6328 19.7422 22.5656 18.0347C23.4985 16.3271 23.9837 14.4083 23.9756 12.4593C23.9675 10.5104 23.4662 8.59567 22.5191 6.89609C21.572 5.1965 20.2104 3.76813 18.5629 2.74588C16.9154 1.72364 15.0364 1.14126 13.1033 1.05377V12.4993C13.1037 12.6369 13.0498 12.7691 12.9536 12.8668C12.8574 12.9645 12.7266 13.0198 12.59 13.0205V13.0205Z" fill="black"/>
<path d="M12.59 6.24903C13.4501 6.24916 14.3009 6.42938 15.0882 6.77825C15.8755 7.12713 16.5822 7.63704 17.1635 8.27563C17.7447 8.91422 18.1878 9.66754 18.4646 10.4878C18.7415 11.308 18.846 12.1772 18.7715 13.0403C18.6971 13.9034 18.4453 14.7415 18.0322 15.5013C17.6191 16.2612 17.0537 16.9263 16.3718 17.4544C15.6899 17.9824 14.9065 18.362 14.0712 18.5689C13.236 18.7758 12.3671 18.8055 11.5199 18.6563C11.4136 18.6402 11.3151 18.5906 11.2386 18.5146C11.1604 18.4366 11.109 18.3354 11.0919 18.2259C11.0749 18.1163 11.093 18.0042 11.1438 17.9057C11.1945 17.8073 11.2752 17.7279 11.3739 17.6789C11.4727 17.6299 11.5845 17.6141 11.6928 17.6337C12.7761 17.8256 13.8919 17.6646 14.8782 17.1743C15.8645 16.6839 16.6699 15.8896 17.1774 14.9067C17.6849 13.9239 17.8681 12.8037 17.7004 11.7088C17.5327 10.6139 17.0228 9.60139 16.2448 8.81829C15.4027 7.96569 14.2917 7.43573 13.1033 7.31979V12.5022C13.1033 12.6405 13.0488 12.773 12.9517 12.8708C12.8547 12.9685 12.723 13.0234 12.5858 13.0234C12.4485 13.0234 12.3169 12.9685 12.2199 12.8708C12.1228 12.773 12.0683 12.6405 12.0683 12.5022V6.77025C12.0685 6.70149 12.0821 6.63346 12.1085 6.57003C12.1348 6.5066 12.1733 6.44902 12.2218 6.4006C12.2702 6.35219 12.3277 6.31387 12.3909 6.28786C12.4541 6.26185 12.5217 6.24866 12.59 6.24903V6.24903Z" fill="black"/>
<path d="M8.27712 19.6181C9.24554 20.2137 10.3252 20.6024 11.4491 20.7599C12.573 20.9174 13.717 20.8404 14.8101 20.5337C15.9032 20.227 16.922 19.6971 17.8031 18.977C18.6842 18.2569 19.4088 17.3619 19.932 16.3477C19.9972 16.2288 20.106 16.1402 20.2352 16.1009C20.3643 16.0616 20.5036 16.0746 20.6233 16.1372C20.7431 16.1998 20.8338 16.3071 20.8762 16.4361C20.9186 16.5651 20.9093 16.7057 20.8502 16.8279C20.2621 17.9692 19.4471 18.9764 18.456 19.7869C17.4649 20.5975 16.3188 21.194 15.089 21.5394C13.8593 21.8848 12.5721 21.9716 11.3076 21.7946C10.043 21.6176 8.82818 21.1805 7.73853 20.5104C7.70358 20.4884 7.67106 20.4628 7.6415 20.4339C7.55237 20.3436 7.49913 20.2236 7.49183 20.0965C7.48453 19.9694 7.52368 19.844 7.60189 19.7439C7.6801 19.6439 7.79196 19.5762 7.91635 19.5535C8.04075 19.5308 8.16908 19.5548 8.27712 19.6209V19.6181Z" fill="#2F2F2F"/>
<path d="M12.5914 3.12451C13.9623 3.12368 15.3165 3.42805 16.557 4.01585C17.7975 4.60365 18.8936 5.46035 19.767 6.52463C20.6404 7.58892 21.2695 8.83449 21.6092 10.1722C21.9489 11.5099 21.9908 12.9068 21.7319 14.2627C21.7194 14.33 21.6939 14.3942 21.6567 14.4515C21.6195 14.5088 21.5714 14.5582 21.5152 14.5968C21.459 14.6353 21.3958 14.6623 21.3292 14.6762C21.2627 14.6901 21.194 14.6906 21.1272 14.6777C21.025 14.6593 20.9308 14.6099 20.8572 14.5361C20.7978 14.4759 20.7539 14.4019 20.7294 14.3207C20.7049 14.2394 20.7005 14.1534 20.7166 14.0701C20.9474 12.8645 20.9107 11.6224 20.6089 10.4329C20.3072 9.24329 19.7479 8.13566 18.9712 7.18935C18.1946 6.24303 17.2197 5.48144 16.1165 4.95916C15.0133 4.43688 13.809 4.16683 12.59 4.16836C12.4528 4.16836 12.3211 4.11345 12.2241 4.0157C12.127 3.91795 12.0725 3.78538 12.0725 3.64715C12.0725 3.50891 12.127 3.37634 12.2241 3.27859C12.3211 3.18085 12.4528 3.12593 12.59 3.12593L12.5914 3.12451Z" fill="black"/>
<circle cx="20.5" cy="15.5" r="1.5" fill="white"/>
<circle cx="1.5" cy="17.5" r="1.5" fill="white"/>
<path d="M7 7.5C7 8.32843 6.32843 9 5.5 9C4.67157 9 4 8.32843 4 7.5C4 6.67157 4.67157 6 5.5 6C6.32843 6 7 6.67157 7 7.5Z" fill="white"/>
<path d="M3.53249 16.257C3.82164 16.5484 4.01852 16.9197 4.09822 17.3238C4.17793 17.7279 4.13688 18.1467 3.98028 18.5274C3.82367 18.908 3.55854 19.2333 3.21839 19.4622C2.87825 19.691 2.47837 19.8132 2.0693 19.8132C1.66024 19.8132 1.26035 19.691 0.92021 19.4622C0.580066 19.2333 0.314932 18.908 0.158326 18.5274C0.00172097 18.1467 -0.0393253 17.7279 0.0403793 17.3238C0.120084 16.9197 0.31696 16.5484 0.606117 16.257C0.994453 15.8667 1.52067 15.6475 2.0693 15.6475C2.61793 15.6475 3.14415 15.8667 3.53249 16.257V16.257ZM1.33736 18.4679C1.48204 18.6139 1.66645 18.7133 1.86726 18.7537C2.06808 18.7941 2.27627 18.7735 2.46549 18.6947C2.65471 18.6158 2.81645 18.4822 2.93025 18.3108C3.04405 18.1393 3.1048 17.9377 3.1048 17.7314C3.1048 17.5252 3.04405 17.3236 2.93025 17.1521C2.81645 16.9806 2.65471 16.847 2.46549 16.7682C2.27627 16.6893 2.06808 16.6688 1.86726 16.7092C1.66645 16.7495 1.48204 16.849 1.33736 16.9949C1.14397 17.1906 1.0354 17.4554 1.0354 17.7314C1.0354 18.0075 1.14397 18.2723 1.33736 18.4679V18.4679Z" fill="black"/>
<path d="M7.23085 5.69353C7.52001 5.98496 7.71688 6.3562 7.79658 6.76031C7.87629 7.16442 7.83525 7.58327 7.67864 7.96389C7.52204 8.34451 7.2569 8.66981 6.91676 8.89869C6.57661 9.12756 6.17673 9.24971 5.76767 9.24971C5.3586 9.24971 4.95872 9.12756 4.61857 8.89869C4.27843 8.66981 4.01329 8.34451 3.85669 7.96389C3.70008 7.58327 3.65904 7.16442 3.73874 6.76031C3.81845 6.3562 4.01533 5.98496 4.30448 5.69353C4.69282 5.3032 5.21904 5.08398 5.76767 5.08398C6.31629 5.08398 6.84251 5.3032 7.23085 5.69353ZM5.03572 7.90445C5.18048 8.05021 5.36489 8.14947 5.56565 8.18967C5.76641 8.22987 5.9745 8.20921 6.16361 8.1303C6.35271 8.05139 6.51433 7.91778 6.62805 7.74636C6.74176 7.57494 6.80246 7.37341 6.80246 7.16724C6.80246 6.96108 6.74176 6.75955 6.62805 6.58813C6.51433 6.4167 6.35271 6.28309 6.16361 6.20418C5.9745 6.12528 5.76641 6.10462 5.56565 6.14482C5.36489 6.18502 5.18048 6.28427 5.03572 6.43003C4.84225 6.6259 4.73364 6.89095 4.73364 7.16724C4.73364 7.44353 4.84225 7.70858 5.03572 7.90445V7.90445Z" fill="#92D327"/>
<path d="M14.7851 10.2883C15.3253 10.8821 15.6172 11.6628 15.6001 12.468C15.583 13.2732 15.2581 14.0407 14.6932 14.6106C14.1282 15.1805 13.3667 15.509 12.5673 15.5275C11.7679 15.5461 10.9922 15.2533 10.4019 14.7101C10.3049 14.6123 10.2505 14.4796 10.2506 14.3414C10.2507 14.2031 10.3054 14.0706 10.4026 13.9729C10.4997 13.8752 10.6314 13.8205 10.7687 13.8206C10.9059 13.8207 11.0375 13.8758 11.1345 13.9736C11.3828 14.2236 11.6902 14.4058 12.0277 14.5031C12.3652 14.6004 12.7218 14.6095 13.0638 14.5297C13.4058 14.4499 13.722 14.2837 13.9826 14.0468C14.2433 13.8099 14.4398 13.5101 14.5536 13.1756C14.6675 12.8412 14.6949 12.483 14.6334 12.1349C14.5718 11.7868 14.4234 11.4601 14.2019 11.1858C13.9804 10.9114 13.6933 10.6983 13.3675 10.5666C13.0417 10.4348 12.688 10.3888 12.3396 10.4327C11.8981 10.488 12.8881 10.0772 12.5506 10.4172C12.3481 10.6211 12.8557 9.38607 12.3396 9.90445C12.1371 9.70049 12.1371 9.5886 12.3396 9.38606C11.6365 9.44413 12.8782 8.84219 12.3396 9.38606C12.7879 9.34836 13.2389 9.40955 13.6612 9.56537C14.0836 9.72119 14.4671 9.96789 14.7851 10.2883V10.2883Z" fill="black"/>
<path d="M22.2846 14.1637C22.538 14.4188 22.7106 14.7439 22.7806 15.0978C22.8505 15.4517 22.8147 15.8185 22.6777 16.1519C22.5406 16.4853 22.3085 16.7703 22.0106 16.9708C21.7127 17.1713 21.3625 17.2783 21.0042 17.2783C20.646 17.2783 20.2957 17.1713 19.9979 16.9708C19.7 16.7703 19.4678 16.4853 19.3308 16.1519C19.1937 15.8185 19.1579 15.4517 19.2279 15.0978C19.2978 14.7439 19.4704 14.4188 19.7238 14.1637C20.0637 13.8222 20.5241 13.6304 21.0042 13.6304C21.4843 13.6304 21.9448 13.8222 22.2846 14.1637V14.1637ZM20.4565 16.005C20.5651 16.1143 20.7034 16.1887 20.854 16.2188C21.0045 16.2489 21.1605 16.2334 21.3023 16.1742C21.4441 16.115 21.5653 16.0148 21.6506 15.8862C21.7359 15.7576 21.7814 15.6065 21.7814 15.4519C21.7814 15.2973 21.7359 15.1462 21.6506 15.0176C21.5653 14.8891 21.4441 14.7889 21.3023 14.7297C21.1605 14.6705 21.0045 14.6549 20.854 14.6851C20.7034 14.7152 20.5651 14.7896 20.4565 14.8988C20.3109 15.0455 20.229 15.2443 20.2288 15.4516C20.2285 15.659 20.3099 15.858 20.4551 16.005H20.4565Z" fill="black"/>
</svg>
