<svg width="25" height="11" viewBox="0 0 25 11" fill="none" xmlns="http://www.w3.org/2000/svg">
<path d="M13.8362 8.94454C13.6937 8.94454 13.5512 8.89169 13.4384 8.79185C13.1949 8.57455 13.1771 8.20456 13.3968 7.96377L16.1878 4.90984C16.4075 4.66905 16.7816 4.65143 17.0251 4.86873C17.2685 5.08603 17.2863 5.45602 17.0666 5.69681L14.2756 8.75074C14.1569 8.87994 13.9965 8.94454 13.8362 8.94454Z" fill="#92D327"/>
<path d="M17.7196 7.86386C17.6127 7.57609 17.7671 7.25307 18.0581 7.15323C18.349 7.04752 18.6756 7.20022 18.7825 7.48799C18.8894 7.77576 18.735 8.09878 18.4441 8.20449C18.3787 8.22798 18.3193 8.23973 18.254 8.23973C18.0224 8.23385 17.8027 8.0929 17.7196 7.86386ZM7.09013 8.05767C6.79916 7.94608 6.65664 7.62307 6.76947 7.3353C6.88229 7.04752 7.2089 6.90657 7.49987 7.01816C7.79084 7.12974 7.93336 7.45275 7.82053 7.74053C7.73146 7.9637 7.52362 8.0929 7.29797 8.0929C7.22671 8.0929 7.15545 8.08116 7.09013 8.05767ZM8.48562 5.62627C8.28372 5.39136 8.30747 5.03898 8.53906 4.8393C8.77065 4.63375 9.12695 4.66311 9.33479 4.89216C9.53669 5.12707 9.51293 5.47945 9.28134 5.67913C9.17445 5.7731 9.04381 5.81421 8.91317 5.81421C8.75878 5.82008 8.59844 5.75548 8.48562 5.62627ZM14.0854 4.57502C13.7825 4.49867 13.6044 4.19328 13.6816 3.89376C13.7588 3.59424 14.0676 3.41805 14.3704 3.4944C14.6733 3.57075 14.8514 3.87614 14.7742 4.17566C14.7089 4.42819 14.4773 4.59264 14.2279 4.59264C14.1804 4.59264 14.1329 4.58676 14.0854 4.57502ZM10.8669 4.1228C10.7956 3.82328 10.9856 3.52376 11.2885 3.45329C11.5913 3.38281 11.8942 3.57075 11.9654 3.87027C12.0367 4.16979 11.8467 4.4693 11.5438 4.53978C11.5022 4.55153 11.4547 4.55153 11.4132 4.55153C11.1578 4.5574 10.9262 4.38121 10.8669 4.1228Z" fill="black"/>
<path d="M22.4467 10.4949L21.2649 10.3892C21.2887 10.1367 21.3006 9.88413 21.3006 9.63159C21.3006 4.96849 17.4645 1.17457 12.7495 1.17457C8.03454 1.17457 4.19843 4.96849 4.19843 9.63159C4.19843 9.88413 4.21031 10.1367 4.23406 10.3892L3.05235 10.4949C3.0286 10.213 3.01672 9.92524 3.01672 9.63747C3.01672 4.32834 7.38727 0.00585938 12.7554 0.00585938C18.1236 0.00585938 22.4942 4.32834 22.4942 9.63747C22.4882 9.91937 22.4704 10.2071 22.4467 10.4949Z" fill="black"/>
<path d="M10.6711 10.5008C10.5523 10.2248 10.4929 9.93114 10.4929 9.63162C10.4929 8.3983 11.5024 7.3999 12.7495 7.3999C13.9965 7.3999 15.006 8.3983 15.006 9.63162C15.006 9.91939 14.9525 10.2013 14.8397 10.4656L13.7411 10.0251C13.7946 9.90177 13.8183 9.76669 13.8183 9.63162C13.8183 9.0502 13.3373 8.57449 12.7495 8.57449C12.1616 8.57449 11.6806 9.0502 11.6806 9.63162C11.6806 9.77257 11.7103 9.91352 11.7637 10.0427L10.6711 10.5008Z" fill="black"/>
<path d="M24.4359 11.0001H0.564133C0.255344 11.0001 0 10.7476 0 10.4422C0 10.1368 0.255344 9.88428 0.564133 9.88428H24.4359C24.7447 9.88428 25 10.1368 25 10.4422C25 10.7476 24.7447 11.0001 24.4359 11.0001Z" fill="black"/>
</svg>
