<svg width="178" height="177" viewBox="0 0 178 177" fill="none" xmlns="http://www.w3.org/2000/svg">
<g clip-path="url(#clip0_214_926)">
<path d="M89.53 91.93C88.554 91.93 87.618 91.5423 86.9278 90.8522C86.2377 90.162 85.85 89.226 85.85 88.25V3.67003C85.85 3.18723 85.9452 2.70918 86.1303 2.26326C86.3154 1.81734 86.5866 1.41232 86.9285 1.07139C87.2703 0.730472 87.676 0.460349 88.1225 0.276503C88.5689 0.0926572 89.0472 -0.00130189 89.53 1.36249e-05C104.691 0.0117252 119.594 3.92924 132.801 11.3749C146.008 18.8205 157.074 29.5431 164.932 42.5089C172.791 55.4747 177.176 70.2463 177.666 85.3997C178.155 100.553 174.733 115.577 167.728 129.023C160.723 142.469 150.373 153.884 137.674 162.167C124.975 170.449 110.356 175.321 95.2275 176.311C80.0986 177.302 64.9697 174.378 51.2993 167.822C37.6289 161.266 25.8782 151.298 17.18 138.88C16.7119 138.083 16.5607 137.14 16.7563 136.237C16.9519 135.334 17.48 134.537 18.2358 134.006C18.9916 133.474 19.9196 133.246 20.8356 133.368C21.7516 133.489 22.5885 133.95 23.18 134.66C31.0592 145.941 41.6841 155.028 54.0513 161.062C66.4184 167.095 80.1196 169.877 93.8605 169.143C107.601 168.41 120.929 164.186 132.583 156.87C144.238 149.554 153.835 139.388 160.469 127.332C167.102 115.276 170.553 101.728 170.495 87.9677C170.437 74.2074 166.873 60.6889 160.138 48.6891C153.403 36.6894 143.72 26.6045 132.005 19.387C120.289 12.1696 106.927 8.05777 93.18 7.44002V88.25C93.1826 89.2216 92.7999 90.1546 92.1157 90.8445C91.4315 91.5343 90.5016 91.9247 89.53 91.93V91.93Z" fill="#565656"/>
<path d="M89.5295 44.1202C95.6461 44.121 101.696 45.3935 107.295 47.8567C112.893 50.3199 117.919 53.9201 122.052 58.4288C126.186 62.9375 129.337 68.2562 131.305 74.0474C133.274 79.8386 134.017 85.9758 133.488 92.0695C132.958 98.1631 131.168 104.08 128.23 109.445C125.292 114.81 121.271 119.506 116.422 123.234C111.573 126.963 106.002 129.642 100.063 131.103C94.1231 132.564 87.9447 132.774 81.9195 131.72C81.1638 131.607 80.4635 131.257 79.9195 130.72C79.3633 130.169 78.9977 129.455 78.8764 128.681C78.755 127.908 78.8842 127.116 79.245 126.421C79.6058 125.726 80.1794 125.165 80.8818 124.82C81.5843 124.474 82.3789 124.362 83.1495 124.5C90.853 125.855 98.7878 124.719 105.801 121.257C112.815 117.794 118.542 112.186 122.151 105.247C125.761 98.3076 127.063 90.3984 125.871 82.6681C124.678 74.9379 121.052 67.7891 115.519 62.2602C109.531 56.2405 101.631 52.4988 93.1795 51.6802V88.2702C93.1795 89.2462 92.7918 90.1822 92.1016 90.8723C91.4115 91.5625 90.4755 91.9502 89.4995 91.9502C88.5235 91.9502 87.5875 91.5625 86.8974 90.8723C86.2072 90.1822 85.8195 89.2462 85.8195 88.2702V47.8002C85.8208 47.3147 85.9179 46.8344 86.1051 46.3865C86.2924 45.9387 86.5662 45.5322 86.9109 45.1903C87.2555 44.8485 87.6642 44.578 88.1136 44.3943C88.5629 44.2107 89.0441 44.1175 89.5295 44.1202V44.1202Z" fill="#565656"/>
<path d="M58.8601 138.51C65.7466 142.716 73.4246 145.46 81.4167 146.572C89.4089 147.684 97.5443 147.14 105.317 144.975C113.091 142.809 120.335 139.068 126.601 133.984C132.867 128.899 138.02 122.581 141.74 115.42C142.204 114.58 142.978 113.955 143.896 113.677C144.815 113.4 145.805 113.492 146.657 113.934C147.508 114.376 148.153 115.133 148.455 116.044C148.756 116.955 148.69 117.947 148.27 118.81C144.088 126.868 138.292 133.98 131.244 139.702C124.196 145.425 116.046 149.637 107.301 152.075C98.5558 154.514 89.4025 155.127 80.4101 153.877C71.4178 152.628 62.7787 149.541 55.03 144.81C54.7815 144.655 54.5502 144.474 54.34 144.27C53.7062 143.633 53.3276 142.785 53.2757 141.888C53.2238 140.99 53.5022 140.105 54.0583 139.399C54.6145 138.692 55.4099 138.214 56.2945 138.054C57.1791 137.894 58.0917 138.063 58.8601 138.53V138.51Z" fill="#565656"/>
<path d="M89.5396 22.0601C99.2885 22.0542 108.918 24.2032 117.74 28.3533C126.561 32.5034 134.356 38.552 140.567 46.0663C146.778 53.5806 151.251 62.3748 153.667 71.8197C156.082 81.2645 156.38 91.1266 154.54 100.7C154.451 101.175 154.269 101.628 154.004 102.033C153.74 102.438 153.398 102.787 152.999 103.059C152.599 103.331 152.15 103.522 151.676 103.62C151.203 103.718 150.714 103.721 150.24 103.63C149.513 103.5 148.843 103.151 148.32 102.63C147.897 102.205 147.585 101.683 147.41 101.109C147.236 100.536 147.205 99.9284 147.32 99.3401C148.961 90.8283 148.699 82.0588 146.554 73.6599C144.408 65.2611 140.431 57.4408 134.908 50.7594C129.385 44.078 122.452 38.7009 114.607 35.0134C106.762 31.3259 98.1982 29.4192 89.5296 29.4301C88.5536 29.4301 87.6176 29.0423 86.9275 28.3522C86.2373 27.6621 85.8496 26.7261 85.8496 25.7501C85.8496 24.7741 86.2373 23.8381 86.9275 23.1479C87.6176 22.4578 88.5536 22.0701 89.5296 22.0701L89.5396 22.0601Z" fill="#565656"/>
<path d="M25.1199 114.78C27.1761 116.838 28.5762 119.459 29.143 122.312C29.7098 125.165 29.4179 128.122 28.3042 130.81C27.1906 133.497 25.3051 135.794 22.8863 137.41C20.4675 139.026 17.6238 139.888 14.7149 139.888C11.8059 139.888 8.96231 139.026 6.54347 137.41C4.12464 135.794 2.23922 133.497 1.12557 130.81C0.0119126 128.122 -0.279976 125.165 0.28682 122.312C0.853616 119.459 2.25364 116.838 4.30989 114.78C7.07143 112.024 10.8135 110.477 14.7149 110.477C18.6163 110.477 22.3584 112.024 25.1199 114.78V114.78ZM9.5099 130.39C10.5387 131.421 11.8501 132.123 13.2782 132.408C14.7062 132.693 16.1867 132.548 17.5322 131.991C18.8778 131.434 20.028 130.491 20.8373 129.28C21.6465 128.07 22.0785 126.646 22.0785 125.19C22.0785 123.734 21.6465 122.311 20.8373 121.1C20.028 119.889 18.8778 118.946 17.5322 118.389C16.1867 117.833 14.7062 117.688 13.2782 117.973C11.8501 118.258 10.5387 118.96 9.5099 119.99C8.13471 121.371 7.36263 123.241 7.36263 125.19C7.36263 127.139 8.13471 129.009 9.5099 130.39V130.39Z" fill="#8DBD1A"/>
<path d="M51.4197 40.2001C53.476 42.2578 54.8759 44.8788 55.4427 47.732C56.0095 50.5852 55.7177 53.5424 54.604 56.2297C53.4904 58.9171 51.605 61.2139 49.1861 62.8298C46.7673 64.4457 43.9236 65.3082 41.0147 65.3082C38.1058 65.3082 35.2621 64.4457 32.8433 62.8298C30.4244 61.2139 28.539 58.9171 27.4253 56.2297C26.3117 53.5424 26.0198 50.5852 26.5866 47.732C27.1534 44.8788 28.5535 42.2578 30.6097 40.2001C33.3712 37.4443 37.1133 35.8965 41.0147 35.8965C44.9161 35.8965 48.6582 37.4443 51.4197 40.2001ZM35.8097 55.8101C36.8391 56.8392 38.1505 57.54 39.5781 57.8239C41.0058 58.1077 42.4856 57.9618 43.8303 57.4047C45.1751 56.8476 46.3244 55.9042 47.133 54.6939C47.9417 53.4836 48.3733 52.0607 48.3733 50.6051C48.3733 49.1495 47.9417 47.7266 47.133 46.5163C46.3244 45.306 45.1751 44.3627 43.8303 43.8055C42.4856 43.2484 41.0058 43.1026 39.5781 43.3864C38.1505 43.6702 36.8391 44.371 35.8097 45.4001C34.4339 46.783 33.6616 48.6544 33.6616 50.6051C33.6616 52.5558 34.4339 54.4272 35.8097 55.8101V55.8101Z" fill="#8DBD1A"/>
<path d="M105.14 72.64C108.982 76.8323 111.058 82.345 110.936 88.0299C110.814 93.7147 108.504 99.1335 104.486 103.157C100.469 107.181 95.0538 109.5 89.3691 109.631C83.6845 109.762 78.1685 107.695 73.97 103.86C73.2805 103.169 72.8936 102.233 72.8945 101.256C72.8955 100.28 73.2841 99.3446 73.975 98.655C74.6659 97.9655 75.6024 97.5786 76.5786 97.5795C77.5547 97.5805 78.4905 97.9691 79.18 98.66C80.9458 100.425 83.1317 101.711 85.5318 102.398C87.932 103.085 90.4675 103.15 92.8996 102.586C95.3317 102.023 97.5803 100.849 99.4338 99.1768C101.287 97.5043 102.685 95.3876 103.494 93.026C104.304 90.6644 104.499 88.1356 104.061 85.6777C103.624 83.2198 102.568 80.9137 100.993 78.9766C99.4181 77.0395 97.3761 75.535 95.0594 74.6049C92.7426 73.6748 90.2272 73.3496 87.75 73.66C84.61 74.05 91.65 71.15 89.25 73.55C87.81 74.99 91.42 66.27 87.75 69.93C86.31 68.49 86.31 67.7 87.75 66.27C82.75 66.68 91.58 62.43 87.75 66.27C90.9375 66.0038 94.1446 66.4359 97.148 67.536C100.151 68.6361 102.879 70.378 105.14 72.64V72.64Z" fill="#565656"/>
<path d="M158.47 100C160.272 101.801 161.5 104.096 161.997 106.595C162.495 109.094 162.24 111.684 161.266 114.038C160.291 116.391 158.64 118.404 156.522 119.819C154.404 121.235 151.913 121.99 149.365 121.99C146.818 121.99 144.327 121.235 142.209 119.819C140.091 118.404 138.44 116.391 137.465 114.038C136.49 111.684 136.236 109.094 136.733 106.595C137.231 104.096 138.458 101.801 140.26 100C142.677 97.5887 145.951 96.2344 149.365 96.2344C152.779 96.2344 156.054 97.5887 158.47 100V100ZM145.47 113C146.243 113.772 147.226 114.297 148.297 114.509C149.367 114.722 150.477 114.612 151.485 114.195C152.494 113.777 153.356 113.069 153.962 112.161C154.568 111.254 154.892 110.187 154.892 109.095C154.892 108.004 154.568 106.937 153.962 106.029C153.356 105.121 152.494 104.414 151.485 103.996C150.477 103.578 149.367 103.468 148.297 103.681C147.226 103.893 146.243 104.419 145.47 105.19C144.435 106.226 143.853 107.629 143.851 109.093C143.849 110.557 144.428 111.962 145.46 113H145.47Z" fill="#8DBD1A"/>
</g>
<defs>
<clipPath id="clip0_214_926">
<rect width="177.78" height="176.51" fill="white"/>
</clipPath>
</defs>
</svg>
