<svg width="163" height="90" viewBox="0 0 163 90" fill="none" xmlns="http://www.w3.org/2000/svg">
<g clip-path="url(#clip0_128_61)">
<path d="M159.436 83.4641H3.56104V30.5767H159.436V83.4641ZM5.04237 81.9854H157.954V32.0554H5.04237V81.9854V81.9854Z" fill="#231F20"/>
<path d="M163 32.0554H0L13.1068 10.3391H57.9824V11.8178H13.9423L2.62196 30.5767H160.378L149.055 11.8178H104.363V10.3391H149.893L163 32.0554Z" fill="#231F20"/>
<path d="M118.288 90H44.7097V78.4631H118.288V90ZM46.1911 88.5213H116.806V79.9418H46.1911V88.5213Z" fill="#231F20"/>
<path d="M46.1939 87.3058H0.568848V81.9854H46.191V87.3058H46.1939ZM2.05314 85.8271H44.7126V83.4641H2.05018V85.8271H2.05314Z" fill="#231F20"/>
<path d="M162.428 87.3058H116.806V81.9854H162.428V87.3058ZM118.287 85.8271H160.947V83.4641H118.287V85.8271Z" fill="#231F20"/>
<path d="M118.288 32.0554H44.7097V25.5491H118.288V32.0554ZM46.1911 30.5767H116.806V27.0278H46.1911V30.5767Z" fill="#231F20"/>
<path d="M121.221 26.9657H41.7766V20.4594H121.221V26.9657V26.9657ZM43.2579 25.487H119.739V21.9381H43.2579V25.487V25.487Z" fill="#231F20"/>
<path d="M90.228 79.9448H72.772V53.7155H90.228V79.9448ZM74.2533 78.4661H88.7467V55.1942H74.2533V78.4661Z" fill="#231F20"/>
<path d="M87.2001 49.0161H75.7998V37.639H87.2001V49.0161ZM77.2811 47.5374H85.7188V39.1177H77.2811V47.5374Z" fill="#231F20"/>
<path d="M51.0617 31.316H49.5803V79.2025H51.0617V31.316Z" fill="#231F20"/>
<path d="M57.067 31.316H55.5857V79.2025H57.067V31.316Z" fill="#231F20"/>
<path d="M63.0724 31.316H61.5911V79.2025H63.0724V31.316Z" fill="#231F20"/>
<path d="M69.0775 31.316H67.5962V79.2025H69.0775V31.316Z" fill="#231F20"/>
<path d="M95.4039 31.316H93.9226V79.2025H95.4039V31.316Z" fill="#231F20"/>
<path d="M101.409 31.316H99.928V79.2025H101.409V31.316Z" fill="#231F20"/>
<path d="M107.414 31.316H105.933V79.2025H107.414V31.316Z" fill="#231F20"/>
<path d="M113.42 31.316H111.938V79.2025H113.42V31.316Z" fill="#231F20"/>
<path d="M19.5625 55.1912H8.8999V35.8912H19.5596V55.1912H19.5625ZM10.3842 53.7125H18.0812V37.3699H10.3842V53.7125Z" fill="#231F20"/>
<path d="M32.856 55.1912H22.1963V35.8912H32.856V55.1912ZM23.6776 53.7125H31.3746V37.3699H23.6776V53.7125Z" fill="#231F20"/>
<path d="M46.4043 55.1912H35.7446V35.8912H46.4043V55.1912ZM37.226 53.7125H44.923V37.3699H37.226V53.7125Z" fill="#231F20"/>
<path d="M19.5625 76.4787H8.8999V57.1786H19.5596V76.4787H19.5625ZM10.3842 75H18.0812V58.6574H10.3842V75Z" fill="#231F20"/>
<path d="M32.856 76.4787H22.1963V57.1786H32.856V76.4787ZM23.6776 75H31.3746V58.6574H23.6776V75Z" fill="#231F20"/>
<path d="M46.4043 76.4787H35.7446V57.1786H46.4043V76.4787ZM37.226 75H44.923V58.6574H37.226V75Z" fill="#231F20"/>
<path d="M127.255 55.1912H116.596V35.8912H127.255V55.1912ZM118.077 53.7125H125.774V37.3699H118.077V53.7125Z" fill="#231F20"/>
<path d="M140.552 55.1912H129.892V35.8912H140.552V55.1912ZM131.373 53.7125H139.07V37.3699H131.373V53.7125Z" fill="#231F20"/>
<path d="M154.097 55.1912H143.438V35.8912H154.097V55.1912ZM144.919 53.7125H152.616V37.3699H144.919V53.7125Z" fill="#231F20"/>
<path d="M127.255 76.4787H116.596V57.1786H127.255V76.4787ZM118.077 75H125.774V58.6574H118.077V75Z" fill="#231F20"/>
<path d="M140.552 76.4787H129.892V57.1786H140.552V76.4787ZM131.373 75H139.07V58.6574H131.373V75Z" fill="#231F20"/>
<path d="M154.097 76.4787H143.438V57.1786H154.097V76.4787ZM144.919 75H152.616V58.6574H144.919V75Z" fill="#231F20"/>
<path d="M121.221 21.9381H41.7766V17.4665L80.6883 0L80.9875 0.130126L121.221 17.4606V21.9381ZM43.2579 20.4594H119.739V18.4306L80.7001 1.61475L43.2579 18.4217V20.4564V20.4594Z" fill="#231F20"/>
<path d="M81.5001 19.2912C79.0292 19.2912 77.0176 17.2832 77.0176 14.8167C77.0176 12.3502 79.0292 10.3421 81.5001 10.3421C83.971 10.3421 85.9826 12.3502 85.9826 14.8167C85.9826 17.2832 83.971 19.2912 81.5001 19.2912ZM81.5001 11.8179C79.844 11.8179 78.4989 13.1635 78.4989 14.8137C78.4989 16.4639 79.8469 17.8096 81.5001 17.8096C83.1533 17.8096 84.5013 16.4639 84.5013 14.8137C84.5013 13.1635 83.1533 11.8179 81.5001 11.8179Z" fill="#231F20"/>
</g>
<defs>
<clipPath id="clip0_128_61">
<rect width="163" height="90" fill="white"/>
</clipPath>
</defs>
</svg>
