<svg width="225" height="91" viewBox="0 0 225 91" fill="none" xmlns="http://www.w3.org/2000/svg">
<g clip-path="url(#clip0_128_2292)">
<path d="M65.9702 81.2974H7.15161V29.5277C7.15161 13.2453 20.3431 0 36.5593 0C52.7756 0 65.9671 13.2453 65.9671 29.5277V81.2974H65.9702ZM8.73523 79.7073H64.3866V29.5277C64.3866 14.123 51.9046 1.59008 36.5625 1.59008C21.2204 1.59008 8.73523 14.123 8.73523 29.5277V79.7073V79.7073Z" fill="#231F20"/>
<path d="M69.5459 86.1471H3.57568V79.7073H69.5459V86.1471V86.1471ZM5.1593 84.557H67.9623V81.2974H5.1593V84.557V84.557Z" fill="#231F20"/>
<path d="M73.1187 91H0V84.5602H73.1187V91ZM1.58361 89.4099H71.535V86.1503H1.58361V89.4099Z" fill="#231F20"/>
<path d="M141.689 81.2974H82.8706V29.5277C82.8706 13.2453 96.0621 0 112.278 0C128.495 0 141.686 13.2453 141.686 29.5277V81.2974H141.689ZM84.4542 79.7073H140.106V29.5277C140.106 14.123 127.624 1.59008 112.282 1.59008C96.9394 1.59008 84.4574 14.123 84.4574 29.5277V79.7073H84.4542Z" fill="#231F20"/>
<path d="M145.265 86.1471H79.2947V79.7073H145.265V86.1471ZM80.8783 84.557H143.681V81.2974H80.8783V84.557Z" fill="#231F20"/>
<path d="M148.841 91H75.7222V84.5602H148.841V91ZM77.3058 89.4099H147.257V86.1503H77.3058V89.4099Z" fill="#231F20"/>
<path d="M217.848 81.2974H159.03V29.5277C159.03 13.2453 172.221 0 188.438 0C204.654 0 217.845 13.2453 217.845 29.5277V81.2974H217.848ZM160.613 79.7073H216.265V29.5277C216.265 14.123 203.783 1.59008 188.441 1.59008C173.099 1.59008 160.617 14.123 160.617 29.5277V79.7073H160.613Z" fill="#231F20"/>
<path d="M221.427 86.1471H155.457V79.7073H221.427V86.1471ZM157.041 84.557H219.844V81.2974H157.041V84.557Z" fill="#231F20"/>
<path d="M225 91H151.881V84.5602H225V91ZM153.465 89.4099H223.416V86.1503H153.465V89.4099Z" fill="#231F20"/>
<path d="M36.5593 39.0522C30.2755 39.0522 25.1667 33.9194 25.1667 27.61C25.1667 21.3006 30.2787 16.171 36.5593 16.171C42.8399 16.171 47.955 21.3038 47.955 27.61C47.955 33.9163 42.8431 39.0522 36.5593 39.0522V39.0522ZM36.5593 17.7611C31.1496 17.7611 26.7504 22.1815 26.7504 27.61C26.7504 33.0385 31.1528 37.4621 36.5593 37.4621C41.9657 37.4621 46.3714 33.0417 46.3714 27.61C46.3714 22.1783 41.9689 17.7611 36.5593 17.7611V17.7611Z" fill="#231F20"/>
<path d="M50.6884 46.3317H22.4304V47.9217H50.6884V46.3317Z" fill="#231F20"/>
<path d="M50.6884 51.5153H22.4304V53.1053H50.6884V51.5153Z" fill="#231F20"/>
<path d="M34.108 56.6989H22.4304V58.2889H34.108V56.6989Z" fill="#231F20"/>
<path d="M50.6886 56.6989H39.011V58.2889H50.6886V56.6989Z" fill="#231F20"/>
<path d="M34.108 61.8793H22.4304V63.4693H34.108V61.8793Z" fill="#231F20"/>
<path d="M50.6886 61.8793H39.011V63.4693H50.6886V61.8793Z" fill="#231F20"/>
<path d="M126.407 46.3317H98.1492V47.9217H126.407V46.3317Z" fill="#231F20"/>
<path d="M126.407 51.5153H98.1492V53.1053H126.407V51.5153Z" fill="#231F20"/>
<path d="M109.827 56.6989H98.1492V58.2889H109.827V56.6989Z" fill="#231F20"/>
<path d="M126.41 56.6989H114.733V58.2889H126.41V56.6989Z" fill="#231F20"/>
<path d="M109.827 61.8793H98.1492V63.4693H109.827V61.8793Z" fill="#231F20"/>
<path d="M126.41 61.8793H114.733V63.4693H126.41V61.8793Z" fill="#231F20"/>
<path d="M202.57 46.3317H174.312V47.9217H202.57V46.3317Z" fill="#231F20"/>
<path d="M202.57 51.5153H174.312V53.1053H202.57V51.5153Z" fill="#231F20"/>
<path d="M185.989 56.6989H174.312V58.2889H185.989V56.6989Z" fill="#231F20"/>
<path d="M202.57 56.6989H190.892V58.2889H202.57V56.6989Z" fill="#231F20"/>
<path d="M185.989 61.8793H174.312V63.4693H185.989V61.8793Z" fill="#231F20"/>
<path d="M202.57 61.8793H190.892V63.4693H202.57V61.8793Z" fill="#231F20"/>
<path d="M117.168 41.4183H107.356V26.9645H102.381V18.076H107.356V12.1609H117.168V18.076H122.176V26.9645H117.168V41.4183ZM108.94 39.8282H115.585V25.3744H120.592V19.666H115.585V13.751H108.94V19.666H103.964V25.3744H108.94V39.8282Z" fill="#231F20"/>
<path d="M183.835 15.9239L182.593 16.9103L196.666 34.7772L197.908 33.7908L183.835 15.9239Z" fill="#231F20"/>
<path d="M187.3 18.0919C185.473 18.0919 183.988 16.6004 183.988 14.7654C183.988 13.2231 186.182 9.4832 186.623 8.74859L187.3 7.61646L187.978 8.74859C188.419 9.4832 190.613 13.2231 190.613 14.7654C190.613 16.6004 189.128 18.0919 187.3 18.0919ZM187.3 10.7521C186.442 12.3104 185.571 14.1262 185.571 14.7654C185.571 15.7227 186.347 16.5018 187.3 16.5018C188.254 16.5018 189.03 15.7227 189.03 14.7654C189.03 14.1262 188.159 12.3104 187.3 10.7521Z" fill="#231F20"/>
<path d="M193.483 24.3504C192.922 24.3504 192.355 24.2072 191.836 23.9083C190.252 22.9924 189.708 20.954 190.617 19.3639C191.383 18.0282 195.143 15.8848 195.89 15.4682L197.04 14.8258L197.065 16.1487C197.081 17.0042 197.125 21.3483 196.359 22.684C195.748 23.7525 194.63 24.3504 193.483 24.3504V24.3504ZM195.485 17.5448C193.968 18.4671 192.308 19.6024 191.991 20.1557C191.516 20.9858 191.801 22.0511 192.628 22.5281C193.454 23.0052 194.512 22.7189 194.991 21.8889C195.307 21.3356 195.456 19.3257 195.485 17.5448V17.5448Z" fill="#231F20"/>
<path d="M197.964 30.9079C197.404 30.9079 196.837 30.7647 196.317 30.4658C194.734 29.5499 194.189 27.5115 195.098 25.9214C195.865 24.5857 199.624 22.4423 200.372 22.0257L201.521 21.3833L201.547 22.7062C201.562 23.5617 201.607 27.9058 200.84 29.2415C200.229 30.31 199.111 30.9079 197.964 30.9079V30.9079ZM199.966 24.1023C198.449 25.0246 196.789 26.1599 196.473 26.7132C195.998 27.5433 196.283 28.6086 197.109 29.0856C197.936 29.5626 198.994 29.2764 199.472 28.4464C199.789 27.8931 199.938 25.8832 199.966 24.1023Z" fill="#231F20"/>
<path d="M181.685 25.8706C181.58 25.8706 181.473 25.8642 181.368 25.8547C179.838 25.7084 176.335 23.1643 175.651 22.6554L174.594 21.8699L175.781 21.2975C176.551 20.9254 180.462 19.0905 181.995 19.2272C182.876 19.3099 183.674 19.7329 184.238 20.4198C184.801 21.1035 185.068 21.9685 184.985 22.8526C184.903 23.7367 184.482 24.5381 183.797 25.1042C183.199 25.6034 182.461 25.8674 181.691 25.8674L181.685 25.8706ZM177.701 22.1657C179.164 23.1706 180.884 24.2105 181.517 24.271C182.47 24.3632 183.313 23.6572 183.402 22.7063C183.446 22.2452 183.307 21.7936 183.012 21.4343C182.717 21.0749 182.303 20.8555 181.843 20.8109C181.204 20.7442 179.325 21.4502 177.701 22.1625V22.1657Z" fill="#231F20"/>
<path d="M186.303 32.3485C186.198 32.3485 186.091 32.3421 185.986 32.3326C184.456 32.1863 180.953 29.6422 180.269 29.1333L179.211 28.3478L180.399 27.7754C181.169 27.4033 185.09 25.5684 186.613 25.7051C188.431 25.8769 189.771 27.5051 189.6 29.3305C189.518 30.2146 189.096 31.016 188.412 31.5821C187.814 32.0813 187.076 32.3453 186.306 32.3453L186.303 32.3485ZM182.318 28.6436C183.785 29.6485 185.502 30.6884 186.135 30.7489C187.088 30.8411 187.931 30.1351 188.019 29.1842C188.108 28.2302 187.408 27.3811 186.461 27.292C185.825 27.2348 183.946 27.9312 182.318 28.6436Z" fill="#231F20"/>
<path d="M191.676 22.9499L190.993 26.2633L192.543 26.5858L193.227 23.2724L191.676 22.9499Z" fill="#231F20"/>
<path d="M186.536 17.1391L185.852 20.4525L187.403 20.775L188.086 17.4616L186.536 17.1391Z" fill="#231F20"/>
<path d="M195.954 29.5315L195.086 32.2614L196.595 32.7445L197.462 30.0147L195.954 29.5315Z" fill="#231F20"/>
<path d="M188.956 28.4787L188.667 30.042L193.649 30.9719L193.938 29.4086L188.956 28.4787Z" fill="#231F20"/>
<path d="M186.968 21.0984L183.957 22.0221L184.42 23.5428L187.431 22.6191L186.968 21.0984Z" fill="#231F20"/>
</g>
<defs>
<clipPath id="clip0_128_2292">
<rect width="225" height="91" fill="white"/>
</clipPath>
</defs>
</svg>
