<svg width="428" height="120" viewBox="0 0 428 120" fill="none" xmlns="http://www.w3.org/2000/svg">
<path d="M114.3 57.7557V71.563H107.726V36.226H118.503C120.914 36.226 122.975 36.4786 124.686 36.9836C126.413 37.4724 127.822 38.1648 128.914 39.0608C130.022 39.9569 130.828 41.0321 131.333 42.2866C131.854 43.5248 132.115 44.8933 132.115 46.3921C132.115 47.5814 131.936 48.7056 131.577 49.7645C131.235 50.8235 130.73 51.7847 130.062 52.6482C129.411 53.5116 128.596 54.2692 127.618 54.9209C126.657 55.5726 125.558 56.0939 124.319 56.4849C125.15 56.9574 125.867 57.6335 126.47 58.5132L135.316 71.563H129.402C128.832 71.563 128.343 71.4489 127.936 71.2208C127.545 70.9927 127.211 70.6669 126.934 70.2433L119.505 58.9287C119.228 58.5051 118.919 58.2037 118.577 58.0245C118.251 57.8453 117.762 57.7557 117.11 57.7557H114.3ZM114.3 53.0392H118.405C119.644 53.0392 120.719 52.8844 121.631 52.5749C122.56 52.2653 123.317 51.8417 123.904 51.3041C124.507 50.7502 124.955 50.0985 125.248 49.3491C125.541 48.5997 125.688 47.7769 125.688 46.8809C125.688 45.0888 125.093 43.7121 123.904 42.7509C122.731 41.7897 120.931 41.3091 118.503 41.3091H114.3V53.0392Z" fill="black"/>
<path d="M149.552 46.0989C151.133 46.0989 152.583 46.3514 153.902 46.8564C155.238 47.3615 156.387 48.1028 157.348 49.0803C158.309 50.0415 159.059 51.2308 159.596 52.6482C160.134 54.0493 160.403 55.654 160.403 57.4624C160.403 57.9186 160.378 58.3014 160.329 58.611C160.297 58.9042 160.224 59.1405 160.11 59.3197C160.012 59.4826 159.873 59.6048 159.694 59.6862C159.515 59.7514 159.287 59.784 159.01 59.784H143.516C143.696 62.3581 144.388 64.2479 145.594 65.4535C146.799 66.6591 148.396 67.2619 150.383 67.2619C151.361 67.2619 152.2 67.1479 152.9 66.9198C153.617 66.6917 154.236 66.4392 154.758 66.1622C155.295 65.8853 155.76 65.6327 156.151 65.4047C156.558 65.1766 156.949 65.0625 157.324 65.0625C157.568 65.0625 157.78 65.1114 157.959 65.2092C158.138 65.3069 158.293 65.4454 158.423 65.6246L160.183 67.824C159.515 68.606 158.765 69.2658 157.935 69.8034C157.104 70.3248 156.232 70.7484 155.32 71.0742C154.424 71.3837 153.503 71.6037 152.558 71.734C151.63 71.8643 150.725 71.9295 149.846 71.9295C148.102 71.9295 146.481 71.6444 144.983 71.0742C143.484 70.4877 142.18 69.6324 141.073 68.5082C139.965 67.3678 139.093 65.9667 138.458 64.305C137.822 62.6269 137.505 60.6882 137.505 58.4888C137.505 56.7781 137.782 55.1734 138.336 53.6746C138.889 52.1594 139.68 50.8479 140.706 49.7401C141.749 48.616 143.011 47.7281 144.494 47.0764C145.993 46.4247 147.679 46.0989 149.552 46.0989ZM149.675 50.4243C147.915 50.4243 146.538 50.9212 145.545 51.915C144.551 52.9088 143.915 54.3181 143.639 56.1428H154.978C154.978 55.3608 154.872 54.6276 154.66 53.9434C154.448 53.2428 154.122 52.6319 153.682 52.1105C153.243 51.5892 152.689 51.1819 152.021 50.8887C151.353 50.5791 150.571 50.4243 149.675 50.4243Z" fill="black"/>
<path d="M182.919 51.7929C182.739 52.0209 182.56 52.2002 182.381 52.3305C182.218 52.4608 181.974 52.526 181.648 52.526C181.338 52.526 181.037 52.4364 180.744 52.2572C180.45 52.0617 180.1 51.8499 179.693 51.6218C179.286 51.3774 178.797 51.1656 178.227 50.9864C177.673 50.7909 176.98 50.6932 176.149 50.6932C175.09 50.6932 174.162 50.8887 173.364 51.2797C172.565 51.6544 171.897 52.2001 171.36 52.917C170.838 53.6338 170.447 54.5054 170.187 55.5318C169.926 56.5419 169.796 57.6905 169.796 58.9775C169.796 60.3135 169.934 61.5028 170.211 62.5454C170.504 63.5881 170.92 64.4679 171.457 65.1847C171.995 65.8853 172.647 66.4229 173.412 66.7976C174.178 67.156 175.042 67.3352 176.003 67.3352C176.964 67.3352 177.738 67.2212 178.324 66.9931C178.927 66.7487 179.432 66.4881 179.84 66.2111C180.247 65.9178 180.597 65.6572 180.89 65.4291C181.2 65.1847 181.542 65.0625 181.917 65.0625C182.406 65.0625 182.772 65.2499 183.016 65.6246L184.752 67.824C184.084 68.606 183.359 69.2658 182.577 69.8034C181.795 70.3248 180.98 70.7484 180.133 71.0742C179.302 71.3837 178.438 71.6037 177.542 71.734C176.646 71.8643 175.758 71.9295 174.879 71.9295C173.331 71.9295 171.873 71.6444 170.504 71.0742C169.136 70.4877 167.938 69.6405 166.912 68.5327C165.902 67.4248 165.095 66.0726 164.493 64.476C163.906 62.8631 163.613 61.0303 163.613 58.9775C163.613 57.1366 163.874 55.4341 164.395 53.8701C164.933 52.2898 165.715 50.9294 166.741 49.789C167.767 48.6322 169.038 47.7281 170.553 47.0764C172.068 46.4247 173.812 46.0989 175.783 46.0989C177.656 46.0989 179.294 46.4003 180.695 47.0031C182.112 47.6059 183.383 48.4693 184.507 49.5935L182.919 51.7929Z" fill="black"/>
<path d="M199.295 46.0989C201.169 46.0989 202.863 46.4003 204.378 47.0031C205.909 47.6059 207.213 48.4612 208.288 49.569C209.363 50.6769 210.194 52.0291 210.781 53.6257C211.367 55.2223 211.66 57.0062 211.66 58.9775C211.66 60.9651 211.367 62.7572 210.781 64.3538C210.194 65.9504 209.363 67.3108 208.288 68.4349C207.213 69.5591 205.909 70.4225 204.378 71.0253C202.863 71.6281 201.169 71.9295 199.295 71.9295C197.421 71.9295 195.719 71.6281 194.188 71.0253C192.656 70.4225 191.345 69.5591 190.253 68.4349C189.178 67.3108 188.339 65.9504 187.736 64.3538C187.149 62.7572 186.856 60.9651 186.856 58.9775C186.856 57.0062 187.149 55.2223 187.736 53.6257C188.339 52.0291 189.178 50.6769 190.253 49.569C191.345 48.4612 192.656 47.6059 194.188 47.0031C195.719 46.4003 197.421 46.0989 199.295 46.0989ZM199.295 67.2864C201.38 67.2864 202.92 66.5858 203.914 65.1847C204.924 63.7836 205.429 61.7309 205.429 59.0264C205.429 56.322 204.924 54.2611 203.914 52.8437C202.92 51.4263 201.38 50.7176 199.295 50.7176C197.177 50.7176 195.613 51.4344 194.603 52.8681C193.593 54.2855 193.088 56.3383 193.088 59.0264C193.088 61.7146 193.593 63.7673 194.603 65.1847C195.613 66.5858 197.177 67.2864 199.295 67.2864Z" fill="black"/>
<path d="M216.37 71.563V46.4899H220.06C220.842 46.4899 221.355 46.8564 221.6 47.5896L221.991 49.4468C222.431 48.9581 222.887 48.5101 223.359 48.1028C223.848 47.6955 224.361 47.3452 224.899 47.0519C225.453 46.7587 226.039 46.5306 226.658 46.3677C227.294 46.1885 227.986 46.0989 228.736 46.0989C230.316 46.0989 231.611 46.5306 232.621 47.3941C233.648 48.2412 234.413 49.3735 234.918 50.7909C235.309 49.96 235.798 49.2513 236.385 48.6648C236.971 48.062 237.615 47.5733 238.315 47.1986C239.016 46.8239 239.757 46.5469 240.539 46.3677C241.337 46.1885 242.136 46.0989 242.934 46.0989C244.319 46.0989 245.549 46.3107 246.624 46.7343C247.699 47.1578 248.603 47.7769 249.337 48.5915C250.07 49.4061 250.624 50.3999 250.998 51.5729C251.389 52.7459 251.585 54.09 251.585 55.6051V71.563H245.549V55.6051C245.549 54.0085 245.198 52.8111 244.498 52.0128C243.797 51.1982 242.771 50.7909 241.419 50.7909C240.8 50.7909 240.221 50.8968 239.684 51.1086C239.162 51.3204 238.698 51.6299 238.291 52.0372C237.9 52.4282 237.59 52.9251 237.362 53.5279C237.134 54.1307 237.02 54.8231 237.02 55.6051V71.563H230.959V55.6051C230.959 53.9271 230.617 52.7052 229.933 51.9395C229.265 51.1738 228.271 50.7909 226.952 50.7909C226.088 50.7909 225.274 51.0108 224.508 51.4507C223.758 51.8743 223.058 52.4608 222.406 53.2102V71.563H216.37Z" fill="black"/>
<path d="M257.513 71.563V46.4899H261.203C261.985 46.4899 262.499 46.8564 262.743 47.5896L263.134 49.4468C263.574 48.9581 264.03 48.5101 264.502 48.1028C264.991 47.6955 265.504 47.3452 266.042 47.0519C266.596 46.7587 267.182 46.5306 267.802 46.3677C268.437 46.1885 269.129 46.0989 269.879 46.0989C271.459 46.0989 272.754 46.5306 273.764 47.3941C274.791 48.2412 275.556 49.3735 276.061 50.7909C276.452 49.96 276.941 49.2513 277.528 48.6648C278.114 48.062 278.758 47.5733 279.458 47.1986C280.159 46.8239 280.9 46.5469 281.682 46.3677C282.48 46.1885 283.279 46.0989 284.077 46.0989C285.462 46.0989 286.692 46.3107 287.767 46.7343C288.842 47.1578 289.747 47.7769 290.48 48.5915C291.213 49.4061 291.767 50.3999 292.141 51.5729C292.532 52.7459 292.728 54.09 292.728 55.6051V71.563H286.692V55.6051C286.692 54.0085 286.342 52.8111 285.641 52.0128C284.94 51.1982 283.914 50.7909 282.562 50.7909C281.943 50.7909 281.364 50.8968 280.827 51.1086C280.305 51.3204 279.841 51.6299 279.434 52.0372C279.043 52.4282 278.733 52.9251 278.505 53.5279C278.277 54.1307 278.163 54.8231 278.163 55.6051V71.563H272.103V55.6051C272.103 53.9271 271.76 52.7052 271.076 51.9395C270.408 51.1738 269.414 50.7909 268.095 50.7909C267.231 50.7909 266.417 51.0108 265.651 51.4507C264.902 51.8743 264.201 52.4608 263.549 53.2102V71.563H257.513Z" fill="black"/>
<path d="M309.018 46.0989C310.598 46.0989 312.048 46.3514 313.368 46.8564C314.704 47.3615 315.852 48.1028 316.814 49.0803C317.775 50.0415 318.524 51.2308 319.062 52.6482C319.599 54.0493 319.868 55.654 319.868 57.4624C319.868 57.9186 319.844 58.3014 319.795 58.611C319.762 58.9042 319.689 59.1405 319.575 59.3197C319.477 59.4826 319.339 59.6048 319.16 59.6862C318.98 59.7514 318.752 59.784 318.475 59.784H302.982C303.161 62.3581 303.853 64.2479 305.059 65.4535C306.265 66.6591 307.861 67.2619 309.849 67.2619C310.826 67.2619 311.665 67.1479 312.366 66.9198C313.083 66.6917 313.702 66.4392 314.223 66.1622C314.761 65.8853 315.225 65.6327 315.616 65.4047C316.023 65.1766 316.414 65.0625 316.789 65.0625C317.034 65.0625 317.245 65.1114 317.425 65.2092C317.604 65.3069 317.759 65.4454 317.889 65.6246L319.648 67.824C318.98 68.606 318.231 69.2658 317.4 69.8034C316.569 70.3248 315.698 70.7484 314.785 71.0742C313.889 71.3837 312.969 71.6037 312.024 71.734C311.095 71.8643 310.191 71.9295 309.311 71.9295C307.568 71.9295 305.947 71.6444 304.448 71.0742C302.949 70.4877 301.646 69.6324 300.538 68.5082C299.43 67.3678 298.559 65.9667 297.923 64.305C297.288 62.6269 296.97 60.6882 296.97 58.4888C296.97 56.7781 297.247 55.1734 297.801 53.6746C298.355 52.1594 299.145 50.8479 300.172 49.7401C301.214 48.616 302.477 47.7281 303.959 47.0764C305.458 46.4247 307.144 46.0989 309.018 46.0989ZM309.14 50.4243C307.381 50.4243 306.004 50.9212 305.01 51.915C304.016 52.9088 303.381 54.3181 303.104 56.1428H314.443C314.443 55.3608 314.337 54.6276 314.125 53.9434C313.914 53.2428 313.588 52.6319 313.148 52.1105C312.708 51.5892 312.154 51.1819 311.486 50.8887C310.818 50.5791 310.036 50.4243 309.14 50.4243Z" fill="black"/>
<path d="M324.765 71.563V46.4899H328.455C329.237 46.4899 329.75 46.8564 329.994 47.5896L330.41 49.569C330.915 49.0477 331.444 48.5752 331.998 48.1516C332.568 47.7281 333.163 47.3615 333.782 47.0519C334.418 46.7424 335.094 46.5062 335.81 46.3432C336.527 46.1803 337.309 46.0989 338.156 46.0989C339.525 46.0989 340.739 46.3351 341.798 46.8076C342.857 47.2637 343.736 47.9154 344.437 48.7626C345.154 49.5935 345.691 50.5954 346.05 51.7684C346.425 52.9251 346.612 54.204 346.612 55.6051V71.563H340.576V55.6051C340.576 54.0737 340.217 52.8926 339.501 52.0617C338.8 51.2145 337.741 50.7909 336.324 50.7909C335.281 50.7909 334.303 51.0271 333.391 51.4996C332.479 51.9721 331.615 52.6156 330.801 53.4302V71.563H324.765Z" fill="black"/>
<path d="M370.187 71.563C369.405 71.563 368.892 71.1964 368.648 70.4633L368.159 68.0439C367.638 68.6304 367.092 69.1599 366.522 69.6324C365.952 70.1048 365.332 70.5121 364.664 70.8543C364.013 71.1964 363.304 71.4571 362.538 71.6363C361.789 71.8318 360.974 71.9295 360.095 71.9295C358.726 71.9295 357.472 71.6444 356.331 71.0742C355.191 70.504 354.205 69.6812 353.374 68.606C352.56 67.5144 351.924 66.1704 351.468 64.5738C351.028 62.9772 350.808 61.1525 350.808 59.0997C350.808 57.2425 351.061 55.5155 351.566 53.9189C352.071 52.3223 352.796 50.9375 353.741 49.7645C354.686 48.5915 355.818 47.6792 357.138 47.0275C358.457 46.3595 359.94 46.0256 361.585 46.0256C362.986 46.0256 364.184 46.2536 365.178 46.7098C366.172 47.1497 367.059 47.7443 367.841 48.4938V35.2485H373.878V71.563H370.187ZM362.147 67.1397C363.402 67.1397 364.469 66.8791 365.349 66.3577C366.229 65.8364 367.059 65.0951 367.841 64.1339V52.8926C367.157 52.0617 366.408 51.4752 365.593 51.133C364.795 50.7909 363.931 50.6198 363.003 50.6198C362.09 50.6198 361.26 50.7909 360.51 51.133C359.777 51.4752 359.15 51.9965 358.628 52.697C358.123 53.3813 357.732 54.2611 357.455 55.3363C357.178 56.3953 357.04 57.6498 357.04 59.0997C357.04 60.566 357.154 61.8123 357.382 62.8387C357.626 63.8488 357.969 64.6797 358.408 65.3313C358.848 65.9667 359.386 66.431 360.021 66.7243C360.657 67.0012 361.365 67.1397 362.147 67.1397Z" fill="black"/>
<path d="M390.779 46.0989C392.36 46.0989 393.81 46.3514 395.129 46.8564C396.465 47.3615 397.614 48.1028 398.575 49.0803C399.536 50.0415 400.285 51.2308 400.823 52.6482C401.361 54.0493 401.63 55.654 401.63 57.4624C401.63 57.9186 401.605 58.3014 401.556 58.611C401.524 58.9042 401.45 59.1405 401.336 59.3197C401.239 59.4826 401.1 59.6048 400.921 59.6862C400.742 59.7514 400.514 59.784 400.237 59.784H384.743C384.922 62.3581 385.615 64.2479 386.82 65.4535C388.026 66.6591 389.623 67.2619 391.61 67.2619C392.588 67.2619 393.427 67.1479 394.127 66.9198C394.844 66.6917 395.463 66.4392 395.984 66.1622C396.522 65.8853 396.986 65.6327 397.377 65.4047C397.785 65.1766 398.176 65.0625 398.55 65.0625C398.795 65.0625 399.007 65.1114 399.186 65.2092C399.365 65.3069 399.52 65.4454 399.65 65.6246L401.41 67.824C400.742 68.606 399.992 69.2658 399.161 69.8034C398.33 70.3248 397.459 70.7484 396.547 71.0742C395.65 71.3837 394.73 71.6037 393.785 71.734C392.856 71.8643 391.952 71.9295 391.072 71.9295C389.329 71.9295 387.708 71.6444 386.209 71.0742C384.711 70.4877 383.407 69.6324 382.299 68.5082C381.192 67.3678 380.32 65.9667 379.685 64.305C379.049 62.6269 378.731 60.6882 378.731 58.4888C378.731 56.7781 379.008 55.1734 379.562 53.6746C380.116 52.1594 380.906 50.8479 381.933 49.7401C382.975 48.616 384.238 47.7281 385.721 47.0764C387.219 46.4247 388.906 46.0989 390.779 46.0989ZM390.901 50.4243C389.142 50.4243 387.765 50.9212 386.771 51.915C385.778 52.9088 385.142 54.3181 384.865 56.1428H396.204C396.204 55.3608 396.099 54.6276 395.887 53.9434C395.675 53.2428 395.349 52.6319 394.909 52.1105C394.469 51.5892 393.915 51.1819 393.247 50.8887C392.579 50.5791 391.797 50.4243 390.901 50.4243Z" fill="black"/>
<path d="M424.17 71.563C423.388 71.563 422.875 71.1964 422.63 70.4633L422.142 68.0439C421.62 68.6304 421.074 69.1599 420.504 69.6324C419.934 70.1048 419.315 70.5121 418.647 70.8543C417.995 71.1964 417.287 71.4571 416.521 71.6363C415.771 71.8318 414.957 71.9295 414.077 71.9295C412.709 71.9295 411.454 71.6444 410.314 71.0742C409.173 70.504 408.188 69.6812 407.357 68.606C406.542 67.5144 405.907 66.1704 405.451 64.5738C405.011 62.9772 404.791 61.1525 404.791 59.0997C404.791 57.2425 405.043 55.5155 405.548 53.9189C406.053 52.3223 406.778 50.9375 407.723 49.7645C408.668 48.5915 409.801 47.6792 411.12 47.0275C412.44 46.3595 413.922 46.0256 415.568 46.0256C416.969 46.0256 418.166 46.2536 419.16 46.7098C420.154 47.1497 421.042 47.7443 421.824 48.4938V35.2485H427.86V71.563H424.17ZM416.13 67.1397C417.384 67.1397 418.451 66.8791 419.331 66.3577C420.211 65.8364 421.042 65.0951 421.824 64.1339V52.8926C421.14 52.0617 420.39 51.4752 419.576 51.133C418.777 50.7909 417.914 50.6198 416.985 50.6198C416.073 50.6198 415.242 50.7909 414.493 51.133C413.759 51.4752 413.132 51.9965 412.611 52.697C412.106 53.3813 411.715 54.2611 411.438 55.3363C411.161 56.3953 411.022 57.6498 411.022 59.0997C411.022 60.566 411.136 61.8123 411.365 62.8387C411.609 63.8488 411.951 64.6797 412.391 65.3313C412.831 65.9667 413.368 66.431 414.004 66.7243C414.639 67.0012 415.348 67.1397 416.13 67.1397Z" fill="black"/>
<path d="M126.445 82.9035C126.266 83.2619 126.054 83.5144 125.81 83.661C125.582 83.8077 125.305 83.881 124.979 83.881C124.653 83.881 124.287 83.7588 123.88 83.5144C123.472 83.2538 122.992 82.9686 122.438 82.6591C121.884 82.3496 121.232 82.0726 120.483 81.8282C119.75 81.5676 118.878 81.4372 117.868 81.4372C116.956 81.4372 116.157 81.5513 115.473 81.7793C114.805 81.9911 114.235 82.2925 113.762 82.6835C113.306 83.0745 112.964 83.547 112.736 84.1009C112.508 84.6386 112.394 85.2332 112.394 85.8849C112.394 86.7158 112.622 87.4082 113.078 87.9621C113.551 88.516 114.17 88.9885 114.935 89.3795C115.701 89.7705 116.573 90.1207 117.55 90.4303C118.528 90.7398 119.521 91.0738 120.532 91.4322C121.558 91.7744 122.56 92.1817 123.537 92.6541C124.515 93.1103 125.387 93.6968 126.152 94.4136C126.918 95.1142 127.529 95.9776 127.985 97.004C128.458 98.0304 128.694 99.2767 128.694 100.743C128.694 102.34 128.417 103.838 127.863 105.24C127.325 106.624 126.527 107.838 125.468 108.881C124.425 109.907 123.146 110.722 121.631 111.325C120.116 111.911 118.381 112.204 116.426 112.204C115.302 112.204 114.194 112.09 113.102 111.862C112.011 111.65 110.96 111.341 109.95 110.934C108.956 110.526 108.019 110.037 107.14 109.467C106.276 108.897 105.502 108.262 104.818 107.561L106.724 104.409C106.903 104.181 107.115 103.993 107.36 103.847C107.62 103.684 107.905 103.602 108.215 103.602C108.622 103.602 109.062 103.773 109.535 104.115C110.007 104.441 110.561 104.808 111.196 105.215C111.848 105.622 112.606 105.997 113.469 106.339C114.349 106.665 115.4 106.828 116.622 106.828C118.495 106.828 119.945 106.388 120.971 105.508C121.998 104.612 122.511 103.333 122.511 101.672C122.511 100.743 122.275 99.9854 121.802 99.3989C121.346 98.8124 120.735 98.3237 119.969 97.9327C119.204 97.5254 118.332 97.1832 117.355 96.9063C116.377 96.6293 115.383 96.3279 114.373 96.0021C113.363 95.6762 112.369 95.2852 111.392 94.8291C110.414 94.3729 109.543 93.7783 108.777 93.0451C108.011 92.312 107.392 91.3997 106.92 90.3081C106.464 89.2003 106.236 87.8399 106.236 86.227C106.236 84.94 106.488 83.6855 106.993 82.4636C107.514 81.2417 108.264 80.1583 109.241 79.2134C110.235 78.2685 111.449 77.5109 112.883 76.9407C114.316 76.3705 115.954 76.0854 117.795 76.0854C119.88 76.0854 121.802 76.4112 123.562 77.0629C125.321 77.7145 126.82 78.6269 128.058 79.7999L126.445 82.9035Z" fill="black"/>
<path d="M142.263 118.705C142.084 119.128 141.848 119.446 141.554 119.658C141.278 119.886 140.846 120 140.259 120H135.763L140.455 109.956L130.313 86.7402H135.592C136.08 86.7402 136.455 86.8542 136.716 87.0823C136.976 87.3104 137.172 87.5711 137.302 87.8643L142.654 100.865C142.833 101.289 142.988 101.729 143.118 102.185C143.249 102.641 143.363 103.097 143.461 103.553C143.591 103.081 143.729 102.625 143.876 102.185C144.039 101.745 144.21 101.297 144.389 100.841L149.423 87.8643C149.554 87.5385 149.766 87.2697 150.059 87.0579C150.368 86.8461 150.71 86.7402 151.085 86.7402H155.924L142.263 118.705Z" fill="black"/>
<path d="M174.311 91.6277C174.148 91.8884 173.977 92.0758 173.798 92.1898C173.619 92.2876 173.39 92.3364 173.113 92.3364C172.82 92.3364 172.503 92.255 172.16 92.092C171.835 91.9291 171.452 91.7499 171.012 91.5544C170.572 91.3426 170.067 91.1553 169.497 90.9924C168.943 90.8294 168.283 90.748 167.517 90.748C166.328 90.748 165.391 91.0005 164.707 91.5055C164.023 92.0106 163.681 92.6704 163.681 93.485C163.681 94.0226 163.852 94.4788 164.194 94.8535C164.552 95.2119 165.016 95.5296 165.587 95.8066C166.173 96.0835 166.833 96.3361 167.566 96.5641C168.299 96.7759 169.049 97.0122 169.814 97.2728C170.58 97.5335 171.33 97.8349 172.063 98.177C172.796 98.5029 173.447 98.9265 174.018 99.4478C174.604 99.9528 175.068 100.564 175.411 101.281C175.769 101.997 175.948 102.861 175.948 103.871C175.948 105.077 175.728 106.193 175.288 107.219C174.849 108.229 174.205 109.109 173.358 109.858C172.511 110.591 171.46 111.17 170.205 111.593C168.967 112.001 167.542 112.204 165.929 112.204C165.065 112.204 164.218 112.123 163.387 111.96C162.573 111.813 161.783 111.601 161.017 111.325C160.267 111.048 159.567 110.722 158.915 110.347C158.28 109.972 157.718 109.565 157.229 109.125L158.622 106.828C158.801 106.551 159.013 106.339 159.257 106.193C159.502 106.046 159.811 105.973 160.186 105.973C160.561 105.973 160.911 106.079 161.237 106.29C161.579 106.502 161.97 106.73 162.41 106.975C162.85 107.219 163.363 107.447 163.949 107.659C164.552 107.871 165.31 107.977 166.222 107.977C166.939 107.977 167.55 107.895 168.055 107.732C168.576 107.553 169 107.325 169.326 107.048C169.668 106.771 169.912 106.453 170.059 106.095C170.222 105.72 170.303 105.337 170.303 104.946C170.303 104.36 170.124 103.879 169.765 103.504C169.423 103.13 168.959 102.804 168.373 102.527C167.802 102.25 167.143 102.006 166.393 101.794C165.66 101.566 164.902 101.321 164.12 101.061C163.355 100.8 162.597 100.499 161.848 100.156C161.115 99.7981 160.455 99.35 159.868 98.8124C159.298 98.2748 158.834 97.615 158.475 96.833C158.133 96.051 157.962 95.106 157.962 93.9982C157.962 92.9718 158.166 91.9943 158.573 91.0657C158.98 90.137 159.575 89.3306 160.357 88.6463C161.155 87.9458 162.141 87.3919 163.314 86.9846C164.503 86.561 165.872 86.3492 167.419 86.3492C169.146 86.3492 170.719 86.6343 172.136 87.2045C173.553 87.7747 174.734 88.5241 175.679 89.4528L174.311 91.6277Z" fill="black"/>
<path d="M188.999 112.204C186.832 112.204 185.162 111.593 183.989 110.371C182.816 109.133 182.23 107.431 182.23 105.264V91.2612H179.688C179.363 91.2612 179.077 91.1553 178.833 90.9435C178.605 90.7317 178.491 90.414 178.491 89.9904V87.5955L182.523 86.9357L183.794 80.0931C183.859 79.7673 184.006 79.5148 184.234 79.3356C184.478 79.1564 184.78 79.0668 185.138 79.0668H188.266V86.9601H194.864V91.2612H188.266V104.849C188.266 105.631 188.461 106.241 188.852 106.681C189.243 107.121 189.765 107.341 190.416 107.341C190.791 107.341 191.101 107.3 191.345 107.219C191.606 107.121 191.826 107.023 192.005 106.926C192.2 106.828 192.372 106.738 192.518 106.657C192.665 106.559 192.811 106.51 192.958 106.51C193.137 106.51 193.284 106.559 193.398 106.657C193.512 106.738 193.634 106.869 193.764 107.048L195.573 109.98C194.693 110.714 193.683 111.267 192.543 111.642C191.402 112.017 190.221 112.204 188.999 112.204Z" fill="black"/>
<path d="M210.026 86.3492C211.607 86.3492 213.056 86.6017 214.376 87.1068C215.712 87.6118 216.861 88.3531 217.822 89.3306C218.783 90.2918 219.532 91.4811 220.07 92.8985C220.608 94.2996 220.877 95.9043 220.877 97.7127C220.877 98.1689 220.852 98.5517 220.803 98.8613C220.771 99.1545 220.697 99.3908 220.583 99.57C220.486 99.7329 220.347 99.8551 220.168 99.9366C219.989 100.002 219.761 100.034 219.484 100.034H203.99C204.169 102.608 204.862 104.498 206.067 105.704C207.273 106.909 208.869 107.512 210.857 107.512C211.835 107.512 212.674 107.398 213.374 107.17C214.091 106.942 214.71 106.69 215.231 106.413C215.769 106.136 216.233 105.883 216.624 105.655C217.032 105.427 217.423 105.313 217.797 105.313C218.042 105.313 218.254 105.362 218.433 105.459C218.612 105.557 218.767 105.696 218.897 105.875L220.657 108.074C219.989 108.856 219.239 109.516 218.408 110.054C217.577 110.575 216.706 110.999 215.794 111.325C214.897 111.634 213.977 111.854 213.032 111.984C212.103 112.115 211.199 112.18 210.319 112.18C208.576 112.18 206.955 111.895 205.456 111.325C203.958 110.738 202.654 109.883 201.546 108.759C200.438 107.618 199.567 106.217 198.931 104.555C198.296 102.877 197.978 100.938 197.978 98.7391C197.978 97.0285 198.255 95.4237 198.809 93.9249C199.363 92.4097 200.153 91.0983 201.18 89.9904C202.222 88.8663 203.485 87.9784 204.968 87.3267C206.466 86.675 208.153 86.3492 210.026 86.3492ZM210.148 90.6747C208.389 90.6747 207.012 91.1716 206.018 92.1654C205.025 93.1592 204.389 94.5684 204.112 96.3931H215.451C215.451 95.6111 215.345 94.8779 215.134 94.1937C214.922 93.4931 214.596 92.8822 214.156 92.3609C213.716 91.8395 213.162 91.4322 212.494 91.139C211.826 90.8294 211.044 90.6747 210.148 90.6747Z" fill="black"/>
<path d="M225.773 111.813V86.7402H229.463C230.245 86.7402 230.758 87.1068 231.003 87.8399L231.394 89.6972C231.833 89.2084 232.29 88.7604 232.762 88.3531C233.251 87.9458 233.764 87.5955 234.302 87.3023C234.856 87.009 235.442 86.7809 236.061 86.618C236.697 86.4388 237.389 86.3492 238.138 86.3492C239.719 86.3492 241.014 86.7809 242.024 87.6444C243.05 88.4916 243.816 89.6238 244.321 91.0412C244.712 90.2103 245.201 89.5017 245.787 88.9152C246.374 88.3124 247.017 87.8236 247.718 87.4489C248.418 87.0742 249.16 86.7972 249.942 86.618C250.74 86.4388 251.538 86.3492 252.337 86.3492C253.721 86.3492 254.951 86.561 256.027 86.9846C257.102 87.4082 258.006 88.0272 258.739 88.8418C259.472 89.6564 260.026 90.6502 260.401 91.8232C260.792 92.9962 260.988 94.3403 260.988 95.8555V111.813H254.951V95.8555C254.951 94.2589 254.601 93.0614 253.901 92.2631C253.2 91.4485 252.174 91.0412 250.822 91.0412C250.202 91.0412 249.624 91.1471 249.086 91.3589C248.565 91.5707 248.101 91.8803 247.693 92.2876C247.302 92.6786 246.993 93.1755 246.765 93.7783C246.537 94.381 246.423 95.0734 246.423 95.8555V111.813H240.362V95.8555C240.362 94.1774 240.02 92.9555 239.336 92.1898C238.668 91.4241 237.674 91.0412 236.354 91.0412C235.491 91.0412 234.676 91.2612 233.911 91.701C233.161 92.1246 232.461 92.7111 231.809 93.4606V111.813H225.773Z" fill="black"/>
<path d="M281.799 91.6277C281.636 91.8884 281.465 92.0758 281.285 92.1898C281.106 92.2876 280.878 92.3364 280.601 92.3364C280.308 92.3364 279.99 92.255 279.648 92.092C279.322 91.9291 278.939 91.7499 278.499 91.5544C278.06 91.3426 277.555 91.1553 276.984 90.9924C276.43 90.8294 275.771 90.748 275.005 90.748C273.816 90.748 272.879 91.0005 272.195 91.5055C271.51 92.0106 271.168 92.6704 271.168 93.485C271.168 94.0226 271.339 94.4788 271.681 94.8535C272.04 95.2119 272.504 95.5296 273.074 95.8066C273.661 96.0835 274.321 96.3361 275.054 96.5641C275.787 96.7759 276.536 97.0122 277.302 97.2728C278.068 97.5335 278.817 97.8349 279.55 98.177C280.283 98.5029 280.935 98.9265 281.505 99.4478C282.092 99.9528 282.556 100.564 282.898 101.281C283.257 101.997 283.436 102.861 283.436 103.871C283.436 105.077 283.216 106.193 282.776 107.219C282.336 108.229 281.693 109.109 280.845 109.858C279.998 110.591 278.948 111.17 277.693 111.593C276.455 112.001 275.029 112.204 273.416 112.204C272.553 112.204 271.706 112.123 270.875 111.96C270.06 111.813 269.27 111.601 268.504 111.325C267.755 111.048 267.054 110.722 266.403 110.347C265.767 109.972 265.205 109.565 264.717 109.125L266.11 106.828C266.289 106.551 266.501 106.339 266.745 106.193C266.989 106.046 267.299 105.973 267.674 105.973C268.048 105.973 268.399 106.079 268.724 106.29C269.067 106.502 269.458 106.73 269.897 106.975C270.337 107.219 270.85 107.447 271.437 107.659C272.04 107.871 272.797 107.977 273.71 107.977C274.427 107.977 275.037 107.895 275.543 107.732C276.064 107.553 276.487 107.325 276.813 107.048C277.155 106.771 277.4 106.453 277.546 106.095C277.709 105.72 277.791 105.337 277.791 104.946C277.791 104.36 277.612 103.879 277.253 103.504C276.911 103.13 276.447 102.804 275.86 102.527C275.29 102.25 274.63 102.006 273.881 101.794C273.148 101.566 272.39 101.321 271.608 101.061C270.842 100.8 270.085 100.499 269.335 100.156C268.602 99.7981 267.942 99.35 267.356 98.8124C266.786 98.2748 266.321 97.615 265.963 96.833C265.621 96.051 265.45 95.106 265.45 93.9982C265.45 92.9718 265.653 91.9943 266.061 91.0657C266.468 90.137 267.063 89.3306 267.845 88.6463C268.643 87.9458 269.629 87.3919 270.802 86.9846C271.991 86.561 273.359 86.3492 274.907 86.3492C276.634 86.3492 278.206 86.6343 279.624 87.2045C281.041 87.7747 282.222 88.5241 283.167 89.4528L281.799 91.6277Z" fill="black"/>
<g clip-path="url(#clip0_212_598)">
<path d="M8.63925 2.04463L49.5731 2.04463C51.3209 2.04408 52.998 2.73585 54.2381 3.96893L66.9116 16.8377L80.0758 29.8667C81.3056 31.1095 81.9962 32.7877 81.9978 34.5372L81.9978 103.351C81.9978 105.113 81.2986 106.803 80.0539 108.049C78.8092 109.296 77.121 109.996 75.3607 109.996L34.4368 109.996C33.5689 109.996 32.7093 109.826 31.9071 109.494C31.105 109.162 30.376 108.675 29.7618 108.061L16.808 94.9119L3.93419 82.2236C2.70195 80.9783 2.01113 79.296 2.01215 77.5432L2.01215 8.66942C2.01481 6.9115 2.71415 5.22647 3.95668 3.98437C5.19922 2.74227 6.88337 2.04463 8.63925 2.04463V2.04463Z" fill="white"/>
<path d="M8.63929 0.040067L49.5732 0.0400706C51.8503 0.0358033 54.036 0.937045 55.6496 2.54566L68.3333 15.4344L81.4873 28.4635C82.2854 29.2642 82.9182 30.2144 83.3493 31.26C83.7805 32.3056 84.0016 33.426 84 34.5571L84 103.351C83.9973 105.644 83.0863 107.842 81.4667 109.464C79.8471 111.085 77.6512 111.997 75.3607 112L34.4369 112C33.3069 112.003 32.1875 111.782 31.143 111.35C30.0985 110.918 29.1495 110.284 28.3504 109.484L15.3865 96.325L2.53271 83.6367C1.7317 82.8335 1.09662 81.8801 0.663762 80.8311C0.230906 79.7821 0.00880055 78.658 0.0100471 77.523L0.0100531 8.64928C0.0232523 6.36484 0.937556 4.17818 2.55386 2.56563C4.17016 0.953084 6.35748 0.0453167 8.63929 0.040067V0.040067ZM75.3607 107.991C75.9707 107.992 76.575 107.873 77.1391 107.641C77.7031 107.408 78.2159 107.067 78.6482 106.636C79.0804 106.205 79.4237 105.693 79.6584 105.13C79.893 104.566 80.0144 103.961 80.0157 103.351L80.0157 34.4669C80.0159 33.2464 79.5336 32.0754 78.6743 31.2096L65.5303 18.2307L52.8366 5.3419C51.9739 4.48584 50.8078 4.0066 49.5931 4.00894L8.63929 4.00893C7.41176 4.01159 6.23539 4.50164 5.36833 5.37159C4.50127 6.24154 4.01434 7.42031 4.01434 8.64928L4.01434 77.523C4.01076 78.1294 4.12751 78.7305 4.35778 79.2913C4.58806 79.8522 4.92724 80.3617 5.35574 80.7903L18.2095 93.4887L31.2235 106.658C31.65 107.083 32.1561 107.419 32.7126 107.648C33.2692 107.877 33.8653 107.993 34.4669 107.991L75.3607 107.991Z" fill="#231F20"/>
<path d="M33.1755 106.528C33.1764 106.69 33.129 106.848 33.0393 106.983C32.9497 107.117 32.8219 107.222 32.6723 107.284C32.5227 107.345 32.3583 107.36 32.2 107.327C32.0417 107.294 31.8969 107.215 31.784 107.099L18.4998 93.4987L4.93525 80.2191C4.82096 80.1048 4.74292 79.9592 4.71089 79.8007C4.67886 79.6421 4.69426 79.4777 4.75518 79.3278C4.81611 79.178 4.91982 79.0495 5.05336 78.9585C5.18689 78.8674 5.34431 78.8179 5.50587 78.816L32.3647 78.816C32.4711 78.816 32.5766 78.837 32.6749 78.8778C32.7733 78.9186 32.8627 78.9784 32.938 79.0537C33.0133 79.1291 33.073 79.2186 33.1138 79.3171C33.1545 79.4156 33.1755 79.5212 33.1755 79.6278L33.1755 106.528Z" fill="#F1F2F2"/>
<path d="M2.0121 76.8015L28.4504 76.8015C29.8647 76.8042 31.2204 77.3678 32.2204 78.3691C33.2205 79.3703 33.7835 80.7275 33.7861 82.1434L33.7861 109.595L29.7818 109.595L29.7818 82.1434C29.7792 81.7907 29.6381 81.4532 29.389 81.2038C29.1398 80.9544 28.8027 80.8131 28.4504 80.8105L2.0121 80.8105L2.0121 76.8015Z" fill="#231F20"/>
<path d="M51.0648 5.52225C51.0638 5.36041 51.1112 5.202 51.2009 5.06734C51.2906 4.93269 51.4184 4.82793 51.5679 4.76653C51.7175 4.70513 51.882 4.68988 52.0403 4.72275C52.1986 4.75561 52.3434 4.83508 52.4562 4.95096L65.7405 18.5513L79.325 31.851C79.4393 31.9653 79.5173 32.1109 79.5494 32.2694C79.5814 32.428 79.566 32.5925 79.5051 32.7423C79.4442 32.8921 79.3404 33.0206 79.2069 33.1116C79.0734 33.2027 78.916 33.2523 78.7544 33.2542L51.8756 33.2541C51.6597 33.2515 51.4534 33.1638 51.3016 33.0099C51.1499 32.8561 51.0647 32.6486 51.0648 32.4323L51.0648 5.52225Z" fill="#F1F2F2"/>
<path d="M50.4539 2.46558L54.4582 2.46558L54.4582 29.9169C54.4608 30.2696 54.602 30.6071 54.8511 30.8565C55.1002 31.1059 55.4374 31.2472 55.7897 31.2498L82.228 31.2498L82.228 35.2588L55.7897 35.2588C54.3745 35.2588 53.0174 34.696 52.0168 33.6942C51.0161 32.6924 50.4539 31.3336 50.4539 29.9169L50.4539 2.46558Z" fill="#231F20"/>
<path d="M59.2037 76.0813L62.0352 73.2466L22.8053 33.9711L19.9738 36.8058L59.2037 76.0813Z" fill="#231F20"/>
</g>
<defs>
<clipPath id="clip0_212_598">
<rect width="84" height="112" fill="white" transform="translate(84 112) rotate(-180)"/>
</clipPath>
</defs>
</svg>
